<svg id="Component_289_4" data-name="Component 289 – 4" xmlns="http://www.w3.org/2000/svg" width="36" height="36" viewBox="0 0 36 36">
  <g id="Group_9296" data-name="Group 9296">
    <g id="Group_9289" data-name="Group 9289" transform="translate(8.02 6.205)">
      <path id="Path_18157" data-name="Path 18157" d="M664.488,1080.64c2.06,0,4.12,0,6.179-.005.233,0,.32.033.319.3-.012,3-.022,5.991,0,8.986a1.617,1.617,0,0,1-1.731,1.723c-.287-.018-.676-.13-.84.054-.143.16-.044.54-.045.822,0,.784.009,1.569,0,2.353a1.46,1.46,0,0,1-2.843.457,1.815,1.815,0,0,1-.082-.585c0-.954-.005-1.909.005-2.863,0-.2-.059-.254-.253-.248-.482.014-.964.018-1.445,0-.227-.009-.259.074-.257.274.01.973.012,1.946,0,2.92a1.459,1.459,0,0,1-1.87,1.437,1.42,1.42,0,0,1-1.028-1.344c-.026-.992-.029-1.984-.021-2.976,0-.247-.055-.337-.309-.309a5.926,5.926,0,0,1-.68,0,1.543,1.543,0,0,1-1.625-1.642q0-4.28,0-8.56c0-.254-.085-.592.043-.739.151-.172.5-.054.76-.055Q661.625,1080.635,664.488,1080.64Z" transform="translate(-654.488 -1072.735)" fill="#333"/>
      <path id="Path_18158" data-name="Path 18158" d="M600.11,1081.154c0,.992,0,1.984,0,2.976a1.424,1.424,0,0,1-1.459,1.526,1.441,1.441,0,0,1-1.44-1.526q0-3.019,0-6.037a1.452,1.452,0,0,1,2.859-.336,1.934,1.934,0,0,1,.038.449C600.112,1079.189,600.11,1080.172,600.11,1081.154Z" transform="translate(-597.208 -1069.021)" fill="#333"/>
      <path id="Path_18159" data-name="Path 18159" d="M898.054,1081.168c0-.991,0-1.982,0-2.973a1.451,1.451,0,1,1,2.9.013c0,2.01,0,4.021,0,6.031a1.451,1.451,0,0,1-2.862.323,2.025,2.025,0,0,1-.035-.45C898.053,1083.131,898.054,1082.15,898.054,1081.168Z" transform="translate(-880.996 -1069.039)" fill="#333"/>
      <path id="Path_18160" data-name="Path 18160" d="M670.588,948.972a6.479,6.479,0,0,0-.111-.9,5.96,5.96,0,0,0-3.014-3.976c-.155-.089-.192-.143-.1-.31.3-.514.571-1.039.851-1.562.065-.122.168-.258-.016-.365s-.271.046-.343.176c-.291.528-.584,1.054-.861,1.59-.079.153-.142.163-.3.1a7.006,7.006,0,0,0-5.293-.008c-.16.063-.231.063-.318-.105-.275-.536-.571-1.061-.862-1.589-.068-.124-.139-.269-.323-.174s-.106.234-.037.36c.273.505.537,1.016.829,1.51.127.214.085.29-.123.413a5.841,5.841,0,0,0-3.083,4.752c-.021.246.02.338.3.336,2.077-.013,4.155-.007,6.233-.007,2.106,0,4.212,0,6.318,0C670.534,949.22,670.6,949.18,670.588,948.972Zm-9.55-2.118a.546.546,0,0,1-.513-.565.538.538,0,0,1,.532-.545.563.563,0,0,1,.552.563A.571.571,0,0,1,661.037,946.854Zm6,0a.555.555,0,1,1,.022-1.11.556.556,0,0,1-.022,1.11Z" transform="translate(-654.067 -941.82)" fill="#333"/>
    </g>
    <g id="Ellipse_1785" data-name="Ellipse 1785" fill="none" stroke="#333" stroke-width="1">
      <circle cx="18" cy="18" r="18" stroke="none"/>
      <circle cx="18" cy="18" r="17.5" fill="none"/>
    </g>
  </g>
</svg>
