<svg xmlns="http://www.w3.org/2000/svg" width="107" height="107" viewBox="0 0 107 107">
  <g id="Group_9296" data-name="Group 9296" transform="translate(7510 15781)">
    <g id="Group_9289" data-name="Group 9289" transform="translate(-7489.918 -15766.972)">
      <path id="Path_18157" data-name="Path 18157" d="M679.8,1080.725c6.872,0,13.743.012,20.615-.017.778,0,1.068.109,1.064,1-.04,9.992-.074,19.985,0,29.976a5.394,5.394,0,0,1-5.775,5.747c-.957-.06-2.256-.433-2.8.18-.477.534-.146,1.8-.149,2.744-.009,2.616.031,5.233-.016,7.848a4.871,4.871,0,0,1-9.486,1.526,6.058,6.058,0,0,1-.274-1.953c0-3.184-.018-6.367.018-9.551.008-.674-.2-.846-.845-.827-1.606.045-3.217.06-4.822-.005-.757-.031-.865.247-.858.914.032,3.246.04,6.493.007,9.74a4.866,4.866,0,0,1-6.239,4.794,4.738,4.738,0,0,1-3.43-4.484c-.088-3.308-.1-6.619-.07-9.928.007-.825-.182-1.123-1.031-1.031a19.84,19.84,0,0,1-2.268.015,5.146,5.146,0,0,1-5.422-5.478q-.014-14.278,0-28.558c0-.846-.283-1.975.145-2.464.5-.575,1.663-.18,2.534-.182C667.07,1080.717,673.437,1080.725,679.8,1080.725Z" transform="translate(-646.446 -1054.354)" fill="#ffffff"/>
      <path id="Path_18158" data-name="Path 18158" d="M606.89,1091.636c0,3.31.01,6.619,0,9.928-.012,3.034-2.019,5.12-4.869,5.092a4.805,4.805,0,0,1-4.8-5.092q-.009-10.07,0-20.141a4.844,4.844,0,0,1,9.539-1.12,6.448,6.448,0,0,1,.127,1.5C606.9,1085.081,606.89,1088.359,606.89,1091.636Z" transform="translate(-597.208 -1051.162)" fill="#ffffff"/>
      <path id="Path_18159" data-name="Path 18159" d="M898.056,1091.641c0-3.306-.009-6.612,0-9.918a4.841,4.841,0,1,1,9.673.045c0,6.706.015,13.413-.007,20.118a4.842,4.842,0,0,1-9.548,1.078,6.764,6.764,0,0,1-.116-1.5C898.052,1098.19,898.056,1094.916,898.056,1091.641Z" transform="translate(-841.151 -1051.177)" fill="#ffffff"/>
      <path id="Path_18160" data-name="Path 18160" d="M701.2,965.678a21.6,21.6,0,0,0-.372-2.995,19.883,19.883,0,0,0-10.053-13.265c-.518-.3-.64-.478-.32-1.034.985-1.714,1.905-3.468,2.84-5.211.217-.406.561-.86-.052-1.219-.658-.386-.9.152-1.144.588-.971,1.76-1.949,3.518-2.873,5.3-.265.511-.474.545-.995.339a23.372,23.372,0,0,0-17.657-.025c-.535.209-.772.21-1.06-.351-.917-1.788-1.906-3.541-2.876-5.3-.228-.414-.465-.9-1.079-.582s-.353.78-.125,1.2c.912,1.686,1.791,3.39,2.766,5.038.423.716.284.969-.412,1.376-6.073,3.555-9.672,8.735-10.286,15.853-.07.82.068,1.126,1,1.12,6.93-.045,13.862-.024,20.792-.024,7.026,0,14.051-.009,21.077.014C701.019,966.5,701.255,966.373,701.2,965.678Zm-31.86-7.067a1.82,1.82,0,0,1-1.711-1.885,1.794,1.794,0,0,1,1.775-1.818,1.88,1.88,0,0,1,1.841,1.88A1.906,1.906,0,0,1,669.337,958.612Zm20.011,0a1.852,1.852,0,1,1,.072-3.7,1.855,1.855,0,0,1-.072,3.7Z" transform="translate(-646.084 -941.82)" fill="#ffffff"/>
    </g>
    <g id="Ellipse_1785" data-name="Ellipse 1785" transform="translate(-7510 -15781)" fill="none" stroke="#ffffff" stroke-width="1.5">
      <circle cx="53.5" cy="53.5" r="53.5" stroke="none"/>
      <circle cx="53.5" cy="53.5" r="52.75" fill="none"/>
    </g>
  </g>
</svg>
