<svg xmlns="http://www.w3.org/2000/svg" width="33" height="33" viewBox="0 0 33 33">
  <g id="Component_68_20" data-name="Component 68 – 20" transform="translate(0.5 0.5)">
    <g id="Group_8437" data-name="Group 8437" transform="translate(-12 -23)">
      <path id="Path_4140" data-name="Path 4140" d="M74.662,32.392v3.324c-.383,0-.74,0-1.1,0s-.743,0-1.113.018a1.913,1.913,0,0,0-2.02,1.732c-.065.69-.034,1.389-.043,2.084,0,.26,0,.519,0,.8h4.121c-.222,1.315-.439,2.6-.661,3.911H70.4v9.206a16.546,16.546,0,0,1-4.669-.006V44.251H62V40.34h3.756c0-.317-.006-.6,0-.883.026-1.062-.02-2.131.1-3.185a4.594,4.594,0,0,1,3.975-4A15.9,15.9,0,0,1,74.662,32.392Z" transform="translate(-40.562 -4.109)" fill="#fff" stroke="#fff" stroke-linecap="round" stroke-linejoin="round" stroke-width="1"/>
      <circle id="Ellipse_1432" data-name="Ellipse 1432" cx="16" cy="16" r="16" transform="translate(12 23)" fill="none" stroke="#fff" stroke-linecap="round" stroke-linejoin="round" stroke-width="1"/>
    </g>
  </g>
</svg>
