<svg xmlns="http://www.w3.org/2000/svg" width="37" height="37" viewBox="0 0 37 37">
  <g id="Component_62_97" data-name="Component 62 – 97" transform="translate(0.5 0.5)">
    <g id="Group_8431" data-name="Group 8431">
      <g id="Group_4192" data-name="Group 4192" transform="translate(7.302 7.044)">
        <path id="Path_4143" data-name="Path 4143" d="M44.285,55.756a10.717,10.717,0,0,1,2.4-9.157,10.384,10.384,0,0,1,6.182-3.643,10.774,10.774,0,0,1,9.227,2.37,1.3,1.3,0,0,0,.165.1c-.09.1-.134.152-.184.2-.936.938-1.875,1.871-2.8,2.815a.265.265,0,0,1-.422.027,6.02,6.02,0,0,0-3.095-1.234,6.367,6.367,0,0,0-4.943,1.524A6.3,6.3,0,0,0,48.606,52.8,6.49,6.49,0,0,0,53.6,60.017a6.791,6.791,0,0,0,5.179-.854,4.768,4.768,0,0,0,2.108-3.012c.05-.194,0-.234-.242-.234q-2.4,0-4.807,0c-.176,0-.353-.011-.527,0-.208.018-.276-.085-.274-.269,0-.148,0-.293,0-.439q0-1.56,0-3.117c0-.375.032-.409.415-.409q4.7,0,9.4-.006c.394,0,.423.021.484.425a11.184,11.184,0,0,1-1.551,7.861,9.8,9.8,0,0,1-6.429,4.427,10.388,10.388,0,0,1-3.27.21,10.815,10.815,0,0,1-6.616-2.994A10.527,10.527,0,0,1,44.285,55.756Z" transform="translate(-44.084 -42.736)" fill="#333"/>
        <path id="Path_4144" data-name="Path 4144" d="M63.779,59.966a9.8,9.8,0,0,1-6.429,4.427,10.388,10.388,0,0,1-3.27.21,10.815,10.815,0,0,1-6.616-2.994,10.527,10.527,0,0,1-3.178-5.853,10.717,10.717,0,0,1,2.4-9.157,10.384,10.384,0,0,1,6.182-3.643,10.774,10.774,0,0,1,9.227,2.37,1.3,1.3,0,0,0,.165.1c-.09.1-.134.152-.184.2-.936.938-1.875,1.871-2.8,2.815a.265.265,0,0,1-.422.027,6.02,6.02,0,0,0-3.095-1.234,6.367,6.367,0,0,0-4.943,1.524A6.3,6.3,0,0,0,48.606,52.8,6.49,6.49,0,0,0,53.6,60.017a6.791,6.791,0,0,0,5.179-.854,4.768,4.768,0,0,0,2.108-3.012c.05-.194,0-.234-.242-.234q-2.4,0-4.807,0c-.176,0-.353-.011-.527,0-.208.018-.276-.085-.274-.269,0-.148,0-.293,0-.439q0-1.56,0-3.117c0-.375.032-.409.415-.409q4.7,0,9.4-.006c.394,0,.423.021.484.425A11.184,11.184,0,0,1,63.779,59.966Z" transform="translate(-44.084 -42.736)" fill="#333"/>
      </g>
      <circle id="Ellipse_1434" data-name="Ellipse 1434" cx="18" cy="18" r="18" fill="none" stroke="#333" stroke-linecap="round" stroke-linejoin="round" stroke-width="1"/>
    </g>
  </g>
</svg>
