<svg xmlns="http://www.w3.org/2000/svg" width="33" height="33" viewBox="0 0 33 33">
  <g id="Component_62_20" data-name="Component 62 – 20" transform="translate(0.5 0.5)">
    <g id="Group_8431" data-name="Group 8431" transform="translate(-1359.5 -5874)">
      <g id="Group_4192" data-name="Group 4192" transform="translate(1365.678 5880.296)">
        <path id="Path_4143" data-name="Path 4143" d="M44.258,53.993a9.266,9.266,0,0,1,2.076-7.917,8.977,8.977,0,0,1,5.345-3.15,9.315,9.315,0,0,1,7.978,2.049,1.121,1.121,0,0,0,.143.086c-.078.085-.116.132-.159.176-.809.811-1.621,1.617-2.425,2.433a.229.229,0,0,1-.365.023,5.2,5.2,0,0,0-2.676-1.067A5.505,5.505,0,0,0,49.9,47.945a5.442,5.442,0,0,0-1.907,3.493,5.611,5.611,0,0,0,4.317,6.238,5.872,5.872,0,0,0,4.477-.739,4.122,4.122,0,0,0,1.822-2.6c.043-.168,0-.2-.209-.2q-2.077,0-4.156,0c-.152,0-.3-.01-.456,0-.18.015-.238-.073-.237-.233,0-.128,0-.254,0-.38q0-1.349,0-2.7c0-.324.028-.353.359-.353l8.123-.005c.341,0,.366.018.419.367a9.67,9.67,0,0,1-1.341,6.8,8.474,8.474,0,0,1-5.558,3.827,8.981,8.981,0,0,1-2.827.182,9.351,9.351,0,0,1-5.72-2.589A9.1,9.1,0,0,1,44.258,53.993Z" transform="translate(-44.084 -42.736)" fill="#fff" stroke="#fff" stroke-linecap="round" stroke-linejoin="round" stroke-width="1"/>
        <path id="Path_4144" data-name="Path 4144" d="M61.111,57.633a8.474,8.474,0,0,1-5.558,3.827,8.981,8.981,0,0,1-2.827.182,9.351,9.351,0,0,1-5.72-2.589,9.1,9.1,0,0,1-2.748-5.061,9.266,9.266,0,0,1,2.076-7.917,8.977,8.977,0,0,1,5.345-3.15,9.315,9.315,0,0,1,7.978,2.049,1.121,1.121,0,0,0,.143.086c-.078.085-.116.132-.159.176-.809.811-1.621,1.617-2.425,2.433a.229.229,0,0,1-.365.023,5.2,5.2,0,0,0-2.676-1.067A5.505,5.505,0,0,0,49.9,47.945a5.442,5.442,0,0,0-1.907,3.493,5.611,5.611,0,0,0,4.317,6.238,5.872,5.872,0,0,0,4.477-.739,4.122,4.122,0,0,0,1.822-2.6c.043-.168,0-.2-.209-.2q-2.077,0-4.156,0c-.152,0-.3-.01-.456,0-.18.015-.238-.073-.237-.233,0-.128,0-.254,0-.38q0-1.349,0-2.7c0-.324.028-.353.359-.353l8.123-.005c.341,0,.366.018.419.367A9.67,9.67,0,0,1,61.111,57.633Z" transform="translate(-44.084 -42.736)" fill="#fff" stroke="#fff" stroke-linecap="round" stroke-linejoin="round" stroke-width="1"/>
      </g>
      <circle id="Ellipse_1434" data-name="Ellipse 1434" cx="16" cy="16" r="16" transform="translate(1359.5 5874)" fill="none" stroke="#fff" stroke-linecap="round" stroke-linejoin="round" stroke-width="1"/>
    </g>
  </g>
</svg>
