<svg xmlns="http://www.w3.org/2000/svg" width="107" height="107" viewBox="0 0 107 107">
  <g id="Group_9298" data-name="Group 9298" transform="translate(7565 15989)">
    <g id="Group_9290" data-name="Group 9290" transform="translate(-7541.594 -15972.282)">
      <path id="Path_18161" data-name="Path 18161" d="M-1671.152,10.832c0-6.116,3.268-11.345,7.9-13.545a24.354,24.354,0,0,0-5.353-4.933c-3.014-2.149-9.693-2.395-14.071-1.277-3.325.844-6.159,2.474-7.674,2.546-1.371.072-4.313-1.76-7.674-2.546a16.785,16.785,0,0,0-11.512,1.277c-8.828,4.933-10.241,9.975-10.241,20.39,0,12,4.349,22.179,14.071,29.319a10.039,10.039,0,0,0,8.958,1.277c2.568-1.046,3.938-2.322,6.4-2.546a9.674,9.674,0,0,1,7,1.955c1.572.974,5.2,1.76,7.076.6A35.784,35.784,0,0,0-1661.8,24.955C-1667.193,23.224-1671.152,17.562-1671.152,10.832Zm-7.682-27.4c2.61-4.1,2.618-10.22,2.56-10.2-1.082.361-4.731-.49-10.235,3.823a20.336,20.336,0,0,0-5.121,7.645,53.123,53.123,0,0,0-1.284,6.376c-.065.007,4.219-.231,6.4-1.277C-1684.279-11.267-1680.521-13.914-1678.833-16.568Z" transform="translate(1719.772 26.767)" fill="#ffffff"/>
    </g>
    <g id="Ellipse_1785" data-name="Ellipse 1785" transform="translate(-7565 -15989)" fill="none" stroke="#ffffff" stroke-width="1.5">
      <circle cx="53.5" cy="53.5" r="53.5" stroke="none"/>
      <circle cx="53.5" cy="53.5" r="52.75" fill="none"/>
    </g>
  </g>
</svg>
