<svg id="Component_288_4" data-name="Component 288 – 4" xmlns="http://www.w3.org/2000/svg" width="36" height="36" viewBox="0 0 36 36">
  <g id="Group_9298" data-name="Group 9298">
    <g id="Group_9290" data-name="Group 9290" transform="translate(8.488 5.402)">
      <path id="Path_18161" data-name="Path 18161" d="M-1703.818-14.429a4.858,4.858,0,0,1,2.594-4.445,7.987,7.987,0,0,0-1.756-1.619c-.989-.705-3.181-.786-4.617-.419-1.091.277-2.021.812-2.518.835-.45.024-1.415-.577-2.518-.835a5.507,5.507,0,0,0-3.777.419c-2.9,1.619-3.36,3.273-3.36,6.69a11.312,11.312,0,0,0,4.617,9.62,3.294,3.294,0,0,0,2.939.419,7.2,7.2,0,0,1,2.1-.835,3.174,3.174,0,0,1,2.3.641,2.694,2.694,0,0,0,2.322.2,11.741,11.741,0,0,0,4.75-6.035A4.761,4.761,0,0,1-1703.818-14.429Zm-2.521-8.991a6.911,6.911,0,0,0,.84-3.346,5.361,5.361,0,0,0-3.358,1.254,6.671,6.671,0,0,0-1.68,2.509,17.381,17.381,0,0,0-.421,2.092,7.282,7.282,0,0,0,2.1-.419A7.012,7.012,0,0,0-1706.339-23.42Z" transform="translate(1719.772 26.767)" fill="#333"/>
    </g>
    <g id="Ellipse_1785" data-name="Ellipse 1785" fill="none" stroke="#333" stroke-width="1">
      <circle cx="18" cy="18" r="18" stroke="none"/>
      <circle cx="18" cy="18" r="17.5" fill="none"/>
    </g>
  </g>
</svg>
