<svg xmlns="http://www.w3.org/2000/svg" width="37" height="37" viewBox="0 0 37 37">
  <g id="Component_71_97" data-name="Component 71 – 97" transform="translate(0.5 0.5)">
    <g id="Group_8441" data-name="Group 8441" transform="translate(0 0)">
      <g id="Group_4202" data-name="Group 4202" transform="translate(4.719 8.263)">
        <path id="Path_4151" data-name="Path 4151" d="M35.048,63.45c0-1.491,0-2.982,0-4.473a1,1,0,0,1,.508-.925c1.593-1.025,3.223-1.987,4.863-2.935a.876.876,0,0,1,.975.021c1.552,1,3.108,1.987,4.683,2.946a3.928,3.928,0,0,0,4.456-.048c1.509-.954,3.032-1.885,4.541-2.838a1.112,1.112,0,0,1,1.272-.04q1.809,1.1,3.619,2.191c.379.23.751.474,1.128.708a1.021,1.021,0,0,1,.512.936q-.007,4.429,0,8.858a1,1,0,0,1-.508.908c-.973.6-1.951,1.2-2.923,1.8q-3.46,2.14-6.916,4.284c-.755.467-1.507.938-2.264,1.4a1.181,1.181,0,0,1-1.335,0q-3.958-2.459-7.922-4.909c-1.392-.861-2.789-1.714-4.181-2.576a.933.933,0,0,1-.51-.864C35.06,66.413,35.048,64.932,35.048,63.45Z" transform="translate(-35.04 -54.977)" fill="#333"/>
        <g id="Group_4201" data-name="Group 4201" transform="translate(5.694 5.631)">
          <path id="Path_4152" data-name="Path 4152" d="M82.569,86.471c0-.211,0-.37,0-.528,0-.118.039-.172.163-.17q.457.007.915,0c.144,0,.188.066.187.2q0,2.625,0,5.25c0,.117-.037.173-.162.171q-.468-.007-.937,0c-.121,0-.171-.044-.167-.166.006-.149,0-.3,0-.5a2.623,2.623,0,0,1-.911.62,2.44,2.44,0,0,1-2.425-.366,2.817,2.817,0,0,1-1.116-2.191,2.974,2.974,0,0,1,.733-2.228,2.46,2.46,0,0,1,3.567-.227C82.452,86.373,82.491,86.4,82.569,86.471Zm.1,2.034a1.711,1.711,0,0,0-.14-.664,1.633,1.633,0,0,0-2.584-.607,1.829,1.829,0,0,0-.55,1.626,1.621,1.621,0,0,0,2.387,1.329A1.711,1.711,0,0,0,82.665,88.505Z" transform="translate(-74.196 -83.802)" fill="#fff"/>
          <path id="Path_4153" data-name="Path 4153" d="M120.52,87.418h-2.38c-.437,0-.437,0-.437-.438,0-.167.009-.334,0-.5-.013-.186.068-.237.243-.235.77.006,1.539,0,2.309,0,.559,0,1.118,0,1.677,0,.193,0,.239.073.271.266a1.682,1.682,0,0,1-.562,1.444c-.714.809-1.394,1.647-2.084,2.476-.066.08-.2.171-.158.26s.2.039.3.04c.77,0,1.539.009,2.309,0,.212,0,.284.068.272.276-.014.231-.007.464,0,.7,0,.121-.044.167-.166.167q-2.145,0-4.291,0c-.126,0-.163-.055-.161-.172,0-.232-.011-.465,0-.7.018-.27.252-.414.4-.6.794-.968,1.6-1.927,2.4-2.889A.806.806,0,0,0,120.52,87.418Z" transform="translate(-107.106 -84.274)" fill="#fff"/>
          <path id="Path_4154" data-name="Path 4154" d="M54.8,78.308c0-1.183,0-2.367,0-3.55,0-.188.045-.26.242-.248a7.119,7.119,0,0,0,.827,0c.2-.011.244.059.244.248-.007,1.771,0,3.542,0,5.314,0,.189.007.378,0,.566-.008.152.048.2.2.2.61-.006,1.22,0,1.829-.006.179,0,.248.058.241.239-.011.283-.007.566,0,.849,0,.129-.04.181-.175.181q-1.611-.006-3.223,0c-.179,0-.175-.1-.175-.223Q54.8,80.094,54.8,78.308Z" transform="translate(-54.795 -74.509)" fill="#fff"/>
        </g>
      </g>
      <circle id="Ellipse_1439" data-name="Ellipse 1439" cx="18" cy="18" r="18" transform="translate(0 0)" fill="none" stroke="#333" stroke-linecap="round" stroke-linejoin="round" stroke-width="1"/>
    </g>
  </g>
</svg>
