<svg xmlns="http://www.w3.org/2000/svg" width="33" height="33" viewBox="0 0 33 33">
  <g id="Component_74_94" data-name="Component 74 – 94" transform="translate(0.5 0.5)">
    <g id="Group_8444" data-name="Group 8444" transform="translate(-1472.001 -5921)">
      <g id="Group_4206" data-name="Group 4206" transform="translate(1479.135 5926.656)">
        <path id="Path_4161" data-name="Path 4161" d="M-173.3,47.979c-.206.522-.4,1.026-.6,1.526-.1.254-.156.593-.348.728s-.514.04-.781.041c-1.326,0-2.652,0-3.978,0-.2,0-.294.049-.347.248-.134.5-.291,1-.442,1.512.933,0,1.834,0,2.735,0q3.038-.016,6.077-.041a3.161,3.161,0,0,0,1.439-.328,1.563,1.563,0,0,0,.374-2.667,10.85,10.85,0,0,0-1.37-.919c-.564-.363-1.164-.678-1.693-1.086a3.8,3.8,0,0,1-1.343-4.714,5.855,5.855,0,0,1,5.12-3.88,8.832,8.832,0,0,1,3,.308l-1.1,2.495a18.02,18.02,0,0,0-1.928-.03,2.339,2.339,0,0,0-1.922,2.1,1.231,1.231,0,0,0,.452,1.078c.443.355.92.669,1.4.979.555.36,1.158.653,1.685,1.048a4.349,4.349,0,0,1,.478,6.623,5.648,5.648,0,0,1-3.544,1.682c-1.186.123-2.388.11-3.583.118-2.652.018-5.3.01-7.955.016a1.351,1.351,0,0,1-1.149-.547.831.831,0,0,1-.162-.754c.455-1.619.906-3.238,1.368-4.855a.94.94,0,0,1,.785-.617,2.482,2.482,0,0,1,.574-.067q3.287-.007,6.574,0C-173.44,47.966-173.387,47.973-173.3,47.979Z" transform="translate(182.827 -38.36)" fill="#ffffff"/>
        <path id="Path_4162" data-name="Path 4162" d="M-173.478,145.256a1.871,1.871,0,0,1-1.874,1.849,1.876,1.876,0,0,1-1.87-1.884,1.883,1.883,0,0,1,1.876-1.852A1.876,1.876,0,0,1-173.478,145.256Z" transform="translate(178.162 -125.745)" fill="#ffffff"/>
        <path id="Path_4163" data-name="Path 4163" d="M-120.236,145.277a1.864,1.864,0,0,1-1.918,1.828,1.856,1.856,0,0,1-1.808-1.96,1.859,1.859,0,0,1,1.884-1.775A1.868,1.868,0,0,1-120.236,145.277Z" transform="translate(133.842 -125.746)" fill="#ffffff"/>
      </g>
      <circle id="Ellipse_1441" data-name="Ellipse 1441" cx="16" cy="16" r="16" transform="translate(1472.001 5921)" fill="none" stroke="#ffffff" stroke-linecap="round" stroke-linejoin="round" stroke-width="1"/>
    </g>
  </g>
</svg>
