<svg xmlns="http://www.w3.org/2000/svg" width="37" height="37" viewBox="0 0 37 37">
  <g id="Component_74_97" data-name="Component 74 – 97" transform="translate(0.5 0.5)">
    <g id="Group_8444" data-name="Group 8444" transform="translate(-0.001 0)">
      <g id="Group_4206" data-name="Group 4206" transform="translate(8.057 6.007)">
        <path id="Path_4161" data-name="Path 4161" d="M-172.158,48.938c-.231.574-.449,1.128-.676,1.678-.115.28-.175.652-.39.8s-.576.044-.874.045c-1.485,0-2.97.005-4.455,0-.22,0-.329.054-.389.272-.15.554-.326,1.1-.5,1.662,1.044,0,2.054,0,3.063,0q3.4-.018,6.806-.045a3.594,3.594,0,0,0,1.612-.361,1.7,1.7,0,0,0,.419-2.932,12.17,12.17,0,0,0-1.534-1.01c-.631-.4-1.3-.745-1.9-1.194a4.133,4.133,0,0,1-1.5-5.184,6.542,6.542,0,0,1,5.734-4.267,10.065,10.065,0,0,1,3.362.339l-1.237,2.743a20.55,20.55,0,0,0-2.159-.033,2.591,2.591,0,0,0-2.152,2.307,1.342,1.342,0,0,0,.506,1.186c.5.39,1.03.736,1.564,1.076.622.4,1.3.718,1.887,1.153a4.729,4.729,0,0,1,.536,7.284,6.374,6.374,0,0,1-3.97,1.85c-1.328.136-2.674.121-4.012.129-2.97.02-5.94.011-8.91.018a1.524,1.524,0,0,1-1.286-.6.9.9,0,0,1-.182-.829c.51-1.78,1.015-3.561,1.532-5.339A1.049,1.049,0,0,1-180.38,49a2.829,2.829,0,0,1,.643-.074q3.681-.008,7.363,0C-172.315,48.924-172.255,48.932-172.158,48.938Z" transform="translate(182.827 -38.36)" fill="#333"/>
        <path id="Path_4162" data-name="Path 4162" d="M-172.427,145.785a2.4,2.4,0,0,1-2.4,2.368,2.4,2.4,0,0,1-2.395-2.413,2.411,2.411,0,0,1,2.4-2.372A2.4,2.4,0,0,1-172.427,145.785Z" transform="translate(179.294 -124.166)" fill="#333"/>
        <path id="Path_4163" data-name="Path 4163" d="M-119.188,145.814a2.388,2.388,0,0,1-2.458,2.342,2.378,2.378,0,0,1-2.316-2.511,2.382,2.382,0,0,1,2.414-2.275A2.394,2.394,0,0,1-119.188,145.814Z" transform="translate(134.171 -124.168)" fill="#333"/>
      </g>
      <circle id="Ellipse_1441" data-name="Ellipse 1441" cx="18" cy="18" r="18" transform="translate(0.001 0)" fill="none" stroke="#333" stroke-linecap="round" stroke-linejoin="round" stroke-width="1"/>
    </g>
  </g>
</svg>
