<svg xmlns="http://www.w3.org/2000/svg" width="37" height="37" viewBox="0 0 37 37">
  <g id="Component_69_97" data-name="Component 69 – 97" transform="translate(0.5 0.5)">
    <g id="Group_8439" data-name="Group 8439" transform="translate(-0.001 0)">
      <g id="Group_4199" data-name="Group 4199" transform="translate(7.603 6.302)">
        <path id="Path_4149" data-name="Path 4149" d="M-166.9,41.5q-1.895,0-3.79-.006c-.237,0-.475-.023-.7-.035-.461-3.878-2.938-5.576-5.239-5.59-2.69-.016-4.775,2.228-5.2,5.615h-.691c-1.223,0-2.445-.007-3.667,0-.755,0-.889.137-.858.9q.2,4.852.409,9.7c.07,1.627.15,3.254.226,4.881a2.176,2.176,0,0,0,2.186,2.365q7.549.024,15.1-.009a2.141,2.141,0,0,0,2.2-2.205c.088-1.892.194-3.783.288-5.674.152-3.071.3-6.142.456-9.213C-166.146,41.686-166.405,41.5-166.9,41.5Zm-11.339-3.661c.079-.048.158-.092.237-.134h0a3.328,3.328,0,0,1,3.2.242,4.305,4.305,0,0,1,1.841,3.5h-7.3A4.38,4.38,0,0,1-178.238,37.838Z" transform="translate(187.045 -35.869)" fill="#333"/>
        <g id="Group_4198" data-name="Group 4198" transform="translate(6.518 8.224)">
          <path id="Path_4150" data-name="Path 4150" d="M-143.911,91.708a1.786,1.786,0,0,0-.476-1.284,4.136,4.136,0,0,0-1.686-.9,6.81,6.81,0,0,1-2.675-1.469,3.153,3.153,0,0,1-.941-2.374,3.3,3.3,0,0,1,1.033-2.5A3.7,3.7,0,0,1-146,82.2a3.677,3.677,0,0,1,2.785,1.09,3.615,3.615,0,0,1,1.007,2.693l-.015.052h-1.726a2.178,2.178,0,0,0-.564-1.577,1.989,1.989,0,0,0-1.5-.586,1.871,1.871,0,0,0-1.4.5,1.767,1.767,0,0,0-.491,1.293,1.514,1.514,0,0,0,.539,1.194,5.468,5.468,0,0,0,1.785.892,5.971,5.971,0,0,1,2.575,1.5,3.434,3.434,0,0,1,.885,2.435,3.166,3.166,0,0,1-1.048,2.491,3.99,3.99,0,0,1-2.752.931,4.316,4.316,0,0,1-2.855-1.017,3.435,3.435,0,0,1-1.181-2.87l.015-.052h1.727a2.119,2.119,0,0,0,.668,1.7,2.412,2.412,0,0,0,1.627.573,2.149,2.149,0,0,0,1.479-.47A1.616,1.616,0,0,0-143.911,91.708Z" transform="translate(149.954 -82.203)" fill="#fff"/>
        </g>
      </g>
      <circle id="Ellipse_1438" data-name="Ellipse 1438" cx="18" cy="18" r="18" transform="translate(0.001 0)" fill="none" stroke="#333" stroke-linecap="round" stroke-linejoin="round" stroke-width="1"/>
    </g>
  </g>
</svg>
