<svg xmlns="http://www.w3.org/2000/svg" width="33" height="33" viewBox="0 0 33 33">
  <g id="Component_69_94" data-name="Component 69 – 94" transform="translate(0.5 0.5)">
    <g id="Group_8439" data-name="Group 8439" transform="translate(-1301.001 -5921)">
      <g id="Group_4199" data-name="Group 4199" transform="translate(1307.947 5926.817)">
        <path id="Path_4149" data-name="Path 4149" d="M-169.567,40.753q-1.644,0-3.288-.005c-.206,0-.412-.02-.608-.03-.4-3.365-2.549-4.838-4.545-4.849-2.334-.013-4.142,1.933-4.508,4.871h-.6c-1.061,0-2.121-.006-3.182,0-.655,0-.771.119-.744.782q.17,4.21.355,8.418c.061,1.412.13,2.823.2,4.235a1.888,1.888,0,0,0,1.9,2.052q6.549.021,13.1-.008a1.858,1.858,0,0,0,1.912-1.913c.077-1.641.169-3.282.25-4.923.132-2.664.256-5.329.4-7.992C-168.914,40.915-169.139,40.753-169.567,40.753Zm-9.837-3.176c.068-.042.137-.08.205-.116h0a2.887,2.887,0,0,1,2.776.21,3.735,3.735,0,0,1,1.6,3.035h-6.336A3.8,3.8,0,0,1-179.4,37.577Z" transform="translate(187.045 -35.869)" fill="#fff"/>
        <g id="Group_4198" data-name="Group 4198" transform="translate(5.889 7.357)">
          <path id="Path_4150" data-name="Path 4150" d="M-145.073,89.88a1.443,1.443,0,0,0-.384-1.037,3.34,3.34,0,0,0-1.362-.724,5.5,5.5,0,0,1-2.16-1.187,2.547,2.547,0,0,1-.76-1.918A2.665,2.665,0,0,1-148.9,83a2.986,2.986,0,0,1,2.145-.794,2.97,2.97,0,0,1,2.25.88,2.92,2.92,0,0,1,.813,2.175l-.012.042H-145.1a1.759,1.759,0,0,0-.456-1.274,1.606,1.606,0,0,0-1.213-.473,1.511,1.511,0,0,0-1.129.4A1.427,1.427,0,0,0-148.3,85a1.223,1.223,0,0,0,.435.964,4.416,4.416,0,0,0,1.442.72,4.822,4.822,0,0,1,2.08,1.215,2.774,2.774,0,0,1,.715,1.966,2.557,2.557,0,0,1-.846,2.012,3.222,3.222,0,0,1-2.223.752A3.486,3.486,0,0,1-149,91.808a2.775,2.775,0,0,1-.953-2.318l.012-.042h1.395a1.712,1.712,0,0,0,.539,1.375,1.948,1.948,0,0,0,1.314.463,1.736,1.736,0,0,0,1.195-.379A1.305,1.305,0,0,0-145.073,89.88Z" transform="translate(149.954 -82.203)" fill="#707070"/>
        </g>
      </g>
      <circle id="Ellipse_1438" data-name="Ellipse 1438" cx="16" cy="16" r="16" transform="translate(1301.001 5921)" fill="none" stroke="#fff" stroke-linecap="round" stroke-linejoin="round" stroke-width="1"/>
    </g>
  </g>
</svg>
