<svg xmlns="http://www.w3.org/2000/svg" width="37" height="37" viewBox="0 0 37 37">
  <g id="Component_72_97" data-name="Component 72 – 97" transform="translate(0.5 0.5)">
    <g id="Group_8443" data-name="Group 8443" transform="translate(0 0)">
      <g id="Group_4204" data-name="Group 4204" transform="translate(5.289 8.862)">
        <path id="Path_4157" data-name="Path 4157" d="M146.874,95.918c0-1.508-.014-3.017,0-4.525a1.17,1.17,0,0,1,1.775-1.059,1.059,1.059,0,0,1,.577,1.013c0,3.036.007,6.073-.006,9.109a1.054,1.054,0,0,1-1.147,1.13,1.076,1.076,0,0,1-1.2-1.143C146.863,98.935,146.874,97.426,146.874,95.918Z" transform="translate(-124.863 -84.176)" fill="#333"/>
        <path id="Path_4155" data-name="Path 4155" d="M99.918,94.608q1.685-1.786,3.371-3.572a7.167,7.167,0,0,1,.536-.54,1.1,1.1,0,0,1,1.539.012,1.036,1.036,0,0,1,.139,1.472,21.489,21.489,0,0,1-2.114,2.188c-.435.447-1.167.837-1.244,1.333-.072.465.719.878,1.127,1.315.8.857,1.62,1.693,2.428,2.542.694.728.791,1.409.279,1.9-.555.531-1.322.441-2-.28-1.191-1.265-2.361-2.551-3.54-3.828-.182-.2-.365-.393-.659-.709,0,1.431.008,2.707,0,3.983a1.062,1.062,0,0,1-1.059,1.158,1.114,1.114,0,0,1-1.286-1.116q-.019-4.542,0-9.084a1.143,1.143,0,0,1,1.176-1.2,1.122,1.122,0,0,1,1.171,1.239c.009,1.047,0,2.094,0,3.141Z" transform="translate(-85.298 -84.188)" fill="#333"/>
        <path id="Path_4158" data-name="Path 4158" d="M80.752,95.991c0,1.43,0,2.859,0,4.289,0,.892-.409,1.33-1.2,1.321-.758-.008-1.155-.446-1.157-1.307q-.007-4.377,0-8.754c0-.87.441-1.353,1.2-1.353.71,0,1.152.5,1.155,1.339C80.756,93.014,80.752,94.5,80.752,95.991Z" transform="translate(-69.628 -84.191)" fill="#333"/>
        <path id="Path_4156" data-name="Path 4156" d="M36.9,97.133c0-1.254-.01-2.508.006-3.762,0-.35-.093-.5-.463-.477a11.722,11.722,0,0,1-1.175,0c-.753-.026-1.172-.429-1.169-1.106a1.062,1.062,0,0,1,1.174-1.1q2.792-.011,5.584,0a1.107,1.107,0,1,1,.027,2.207c-.117,0-.235,0-.353,0-1.269,0-1.269,0-1.269,1.3,0,2.175.005,4.35,0,6.525a1.161,1.161,0,0,1-1.484,1.255,1.025,1.025,0,0,1-.873-1.143c-.012-1.234,0-2.469,0-3.7Z" transform="translate(-34.097 -84.605)" fill="#333"/>
        <path id="Path_4159" data-name="Path 4159" d="M139.272,56.69a2.208,2.208,0,0,1,2.221-2.245,2.237,2.237,0,1,1,.019,4.474A2.214,2.214,0,0,1,139.272,56.69Zm2.233-.34c-.359,0-.719.017-1.077-.006-.261-.016-.372.087-.373.333a1.423,1.423,0,0,0,.722,1.294,1.323,1.323,0,0,0,1.471-.027,1.406,1.406,0,0,0,.669-1.318c-.007-.194-.089-.286-.3-.28C142.249,56.358,141.877,56.35,141.5,56.35Z" transform="translate(-118.319 -54.445)" fill="#333"/>
        <path id="Path_4160" data-name="Path 4160" d="M70.939,56.69a2.208,2.208,0,0,1,2.221-2.245,2.237,2.237,0,1,1,.019,4.474A2.214,2.214,0,0,1,70.939,56.69Zm2.233-.34c-.359,0-.719.017-1.077-.006-.261-.016-.372.087-.373.333a1.423,1.423,0,0,0,.722,1.294,1.323,1.323,0,0,0,1.471-.027,1.406,1.406,0,0,0,.669-1.318c-.007-.194-.089-.286-.3-.28C73.916,56.358,73.544,56.35,73.172,56.35Z" transform="translate(-63.231 -54.445)" fill="#333"/>
      </g>
      <circle id="Ellipse_1440" data-name="Ellipse 1440" cx="18" cy="18" r="18" transform="translate(0 0)" fill="none" stroke="#333" stroke-linecap="round" stroke-linejoin="round" stroke-width="1"/>
    </g>
  </g>
</svg>
