<svg xmlns="http://www.w3.org/2000/svg" width="33" height="33" viewBox="0 0 33 33">
  <g id="Component_72_94" data-name="Component 72 – 94" transform="translate(0.5 0.5)">
    <g id="Group_8443" data-name="Group 8443" transform="translate(-1413 -5921)">
      <g id="Group_4204" data-name="Group 4204" transform="translate(1417.939 5929.354)">
        <path id="Path_4155" data-name="Path 4155" d="M99.455,93.786q1.372-1.454,2.745-2.909a5.837,5.837,0,0,1,.437-.44.9.9,0,0,1,1.253.01.844.844,0,0,1,.113,1.2,17.5,17.5,0,0,1-1.721,1.782c-.354.364-.951.681-1.013,1.085-.058.378.586.715.918,1.071.651.7,1.319,1.379,1.977,2.07.565.593.644,1.148.228,1.547-.452.432-1.077.359-1.63-.228-.97-1.03-1.922-2.077-2.882-3.117l-.536-.577c0,1.165.006,2.2,0,3.244a.865.865,0,0,1-.862.943.907.907,0,0,1-1.047-.909q-.016-3.7,0-7.4a.931.931,0,0,1,.957-.975.914.914,0,0,1,.954,1.009c.007.853,0,1.705,0,2.558Z" transform="translate(-86.795 -84.187)" fill="#ffffff"/>
        <path id="Path_4156" data-name="Path 4156" d="M36.371,95.921c0-1.018-.008-2.037.005-3.055,0-.284-.076-.407-.376-.387a9.521,9.521,0,0,1-.954,0c-.612-.021-.951-.348-.949-.9a.862.862,0,0,1,.954-.893q2.267-.009,4.535,0a.9.9,0,1,1,.022,1.792c-.1,0-.191,0-.286,0-1.031,0-1.031,0-1.031,1.055,0,1.766,0,3.532,0,5.3a.943.943,0,0,1-1.2,1.019.833.833,0,0,1-.709-.928c-.01-1,0-2,0-3.007Z" transform="translate(-34.097 -84.604)" fill="#ffffff"/>
        <path id="Path_4157" data-name="Path 4157" d="M146.873,94.837c0-1.225-.012-2.45,0-3.674a.95.95,0,0,1,1.441-.86.86.86,0,0,1,.469.823c0,2.465.005,4.931,0,7.4a.856.856,0,0,1-.931.918.874.874,0,0,1-.974-.928C146.864,97.287,146.873,96.062,146.873,94.837Z" transform="translate(-127.942 -84.174)" fill="#ffffff"/>
        <path id="Path_4158" data-name="Path 4158" d="M80.307,94.9c0,1.161,0,2.321,0,3.482,0,.724-.332,1.08-.975,1.073-.616-.007-.938-.362-.939-1.061q-.006-3.553,0-7.107c0-.706.358-1.1.976-1.1.576,0,.935.407.938,1.087C80.311,92.482,80.307,93.691,80.307,94.9Z" transform="translate(-70.955 -84.188)" fill="#ffffff"/>
        <path id="Path_4159" data-name="Path 4159" d="M139.272,56.69a2.208,2.208,0,0,1,2.221-2.245,2.237,2.237,0,1,1,.019,4.474A2.214,2.214,0,0,1,139.272,56.69Zm2.233-.34c-.359,0-.719.017-1.077-.006-.261-.016-.372.087-.373.333a1.423,1.423,0,0,0,.722,1.294,1.323,1.323,0,0,0,1.471-.027,1.406,1.406,0,0,0,.669-1.318c-.007-.194-.089-.286-.3-.28C142.249,56.358,141.877,56.35,141.5,56.35Z" transform="translate(-121.62 -54.445)" fill="#ffffff"/>
        <path id="Path_4160" data-name="Path 4160" d="M70.939,56.69a2.208,2.208,0,0,1,2.221-2.245,2.237,2.237,0,1,1,.019,4.474A2.214,2.214,0,0,1,70.939,56.69Zm2.233-.34c-.359,0-.719.017-1.077-.006-.261-.016-.372.087-.373.333a1.423,1.423,0,0,0,.722,1.294,1.323,1.323,0,0,0,1.471-.027,1.406,1.406,0,0,0,.669-1.318c-.007-.194-.089-.286-.3-.28C73.916,56.358,73.544,56.35,73.172,56.35Z" transform="translate(-64.756 -54.445)" fill="#ffffff"/>
      </g>
      <circle id="Ellipse_1440" data-name="Ellipse 1440" cx="16" cy="16" r="16" transform="translate(1413 5921)" fill="none" stroke="#ffffff" stroke-linecap="round" stroke-linejoin="round" stroke-width="1"/>
    </g>
  </g>
</svg>
