<svg xmlns="http://www.w3.org/2000/svg" width="33" height="33" viewBox="0 0 33 33">
  <g id="Component_67_94" data-name="Component 67 – 94" transform="translate(0.5 0.5)">
    <g id="Group_8434" data-name="Group 8434" transform="translate(-1473.001 -5874)">
      <path id="Path_4147" data-name="Path 4147" d="M48.02,44.429a6.617,6.617,0,0,1,3.887-.741c.155.016.215.078.215.238,0,1.119,0,2.239,0,3.358,0,.189-.015.2-.2.152a3.089,3.089,0,1,0,2.344,3.2c.007-.142.011-.286.011-.428q0-3.349,0-6.7v-.136h.012v-.445q0-2.937,0-5.877c0-.337-.01-.673-.01-1.011,0-.244.032-.274.277-.273,1.016,0,2.033,0,3.05.007.436,0,.369-.009.394.365a5.182,5.182,0,0,0,4.343,4.7c.2.029.4.05.595.065.128.01.184.065.184.192,0,1.1,0,2.2,0,3.307,0,.182-.037.207-.274.2a8.932,8.932,0,0,1-4.027-1.122,5.184,5.184,0,0,1-.662-.422c-.039-.03-.076-.081-.133-.044a.142.142,0,0,0-.056.136c.009.205.022.41.022.615,0,2.112,0,4.226,0,6.338a7.168,7.168,0,0,1-.795,3.546,6.63,6.63,0,0,1-4.655,3.437,5.969,5.969,0,0,1-3.243-.106,6.926,6.926,0,0,1-4.112-3.347A6.79,6.79,0,0,1,48.02,44.429Z" transform="translate(1435.244 5843.485)" fill="#fff"/>
      <circle id="Ellipse_1436" data-name="Ellipse 1436" cx="16" cy="16" r="16" transform="translate(1473.001 5874)" fill="none" stroke="#fff" stroke-linecap="round" stroke-linejoin="round" stroke-width="1"/>
    </g>
  </g>
</svg>
