<svg xmlns="http://www.w3.org/2000/svg" width="37" height="37" viewBox="0 0 37 37">
  <g id="Component_75_97" data-name="Component 75 – 97" transform="translate(0.5 0.5)">
    <g id="Group_8447" data-name="Group 8447" transform="translate(0.001)">
      <path id="Path_4148" data-name="Path 4148" d="M64.063,52.389a8.613,8.613,0,0,1-1.924,2.194,1.434,1.434,0,0,0-.589,1.251,15.64,15.64,0,0,1-2.943,9.038,13.5,13.5,0,0,1-7.936,5.519,14.389,14.389,0,0,1-9.822-.884,8.646,8.646,0,0,1-1.671-.983,10.534,10.534,0,0,0,7.356-2.2c-.325-.069-.538-.115-.753-.157a5.062,5.062,0,0,1-3.864-3.262c-.119-.284-.016-.335.229-.288a3.685,3.685,0,0,0,1.77-.118c-.441-.194-.824-.323-1.172-.521A5.278,5.278,0,0,1,40.016,57.7c-.014-.132-.076-.3.049-.4s.253.051.372.106a3.464,3.464,0,0,0,1.671.409,13.709,13.709,0,0,1-1.234-1.456,5.52,5.52,0,0,1-.338-5.155c.141-.346.242-.39.515-.074a14.341,14.341,0,0,0,9.154,5.09c.329.044.724.224.977.044.2-.138.15-.358.092-.581,0,0-.007-.023-.018-.074a3.172,3.172,0,0,1-.027-.8c.011-.127.025-.265.045-.42.016-.1.031-.2.049-.3a4.988,4.988,0,0,1,2.356-3.466,4.864,4.864,0,0,1,5.465.03l.018.012.027.014a.262.262,0,0,0,.043.025l.034.021a2.6,2.6,0,0,1,.448.381l0,0a.629.629,0,0,0,.065.069,1.078,1.078,0,0,0,1.223.109,11.415,11.415,0,0,0,2.419-1.1,5.765,5.765,0,0,1-1.982,2.85A10.656,10.656,0,0,0,64.063,52.389Z" transform="translate(-33.621 -42.339)" fill="#333"/>
      <circle id="Ellipse_1437" data-name="Ellipse 1437" cx="18" cy="18" r="18" transform="translate(-0.001)" fill="none" stroke="#333" stroke-linecap="round" stroke-linejoin="round" stroke-width="1"/>
    </g>
  </g>
</svg>
