<svg xmlns="http://www.w3.org/2000/svg" width="33" height="33" viewBox="0 0 33 33">
  <g id="Component_75_94" data-name="Component 75 – 94" transform="translate(0.5 0.5)">
    <g id="Group_8447" data-name="Group 8447" transform="translate(-1244.5 -5921)">
      <path id="Path_4148" data-name="Path 4148" d="M59.536,51.847a6.884,6.884,0,0,1-1.574,1.733,1.119,1.119,0,0,0-.482.988,12.07,12.07,0,0,1-2.408,7.139,11.053,11.053,0,0,1-6.492,4.36,12.156,12.156,0,0,1-8.035-.7,7.134,7.134,0,0,1-1.367-.776A8.834,8.834,0,0,0,45.2,62.857c-.266-.055-.44-.091-.616-.124a4.105,4.105,0,0,1-3.161-2.577c-.1-.224-.013-.264.187-.228a3.118,3.118,0,0,0,1.448-.093c-.361-.153-.674-.255-.958-.412a4.16,4.16,0,0,1-2.232-3.379c-.011-.1-.062-.241.04-.314s.207.04.3.084a2.915,2.915,0,0,0,1.367.323,10.934,10.934,0,0,1-1.01-1.15,4.23,4.23,0,0,1-.277-4.072c.115-.273.2-.308.421-.058A11.845,11.845,0,0,0,48.2,54.878c.269.035.592.177.8.035.161-.109.123-.282.075-.459,0,0-.005-.018-.015-.058a2.421,2.421,0,0,1-.022-.63c.009-.1.02-.21.037-.332.013-.078.026-.157.04-.233a3.94,3.94,0,0,1,1.928-2.738,4.1,4.1,0,0,1,4.471.024l.015.009.022.011a.216.216,0,0,0,.035.02l.027.016a2.114,2.114,0,0,1,.367.3l0,0a.5.5,0,0,0,.053.055.907.907,0,0,0,1,.086,9.5,9.5,0,0,0,1.979-.871,4.558,4.558,0,0,1-1.622,2.251A8.972,8.972,0,0,0,59.536,51.847Z" transform="translate(1210.644 5878.873)" fill="#fff"/>
      <circle id="Ellipse_1437" data-name="Ellipse 1437" cx="16" cy="16" r="16" transform="translate(1244.5 5921)" fill="none" stroke="#fff" stroke-linecap="round" stroke-linejoin="round" stroke-width="1"/>
    </g>
  </g>
</svg>
