<svg xmlns="http://www.w3.org/2000/svg" width="33" height="33" viewBox="0 0 33 33">
  <g id="Component_65_94" data-name="Component 65 – 94" transform="translate(0.5 0.5)">
    <g id="Group_8433" data-name="Group 8433" transform="translate(-1416.001 -5874)">
      <g id="Group_4194" data-name="Group 4194" transform="translate(1423.239 5880.184)">
        <path id="Path_4145" data-name="Path 4145" d="M117.676,74.976l.042.09c.927,0,1.855,0,2.782,0,.9,0,1.8-.021,2.7,0,.266.005.321-.069.321-.318-.008-2.409,0-4.817-.006-7.226,0-.09-.011-.179-.021-.327Z" transform="translate(-105.985 -63.033)" fill="#fff"/>
        <path id="Path_4146" data-name="Path 4146" d="M53.314,44.306a2.2,2.2,0,0,1,1.493-.5h9.728L64.48,43.8h.054a1.927,1.927,0,0,0-1.628-1.7c-.607-.046-1.223-.048-1.833-.048-1.458,0-2.913.016-4.367.019-.969,0-1.938-.016-2.907-.019-.907,0-1.817,0-2.726.005-.823.005-1.649-.013-2.47.051a1.565,1.565,0,0,0-1.46,1.2,3.4,3.4,0,0,0-.122.9c-.011,1.8,0,3.609,0,5.412,0,.9-.013,1.8-.016,2.7,0,1.142-.005,2.284,0,3.425,0,.65.016,1.3.043,1.954a1.551,1.551,0,0,0,1.174,1.5,5.109,5.109,0,0,0,1.109.127c.419.013.837.011,1.255.008h.119c.192,0,.381,0,.572,0v0c.065.807.124,1.582.192,2.429.332-.248.656-.47.964-.7l.016-.011,1.136-.923a3.561,3.561,0,0,1,2.249-.8h6.241c.31-.008.623-.019.931-.04a1.734,1.734,0,0,0,1.522-1.987,3.448,3.448,0,0,1-1.244.256l-.024,0c-.035,0-.065,0-.089.005l-.046,0-1.136.032c-.969.024-1.935.032-2.9.032-1.614,0-3.231-.03-4.848-.054a1.482,1.482,0,0,1-1.53-1.188,1.943,1.943,0,0,1,.472-1.5q2.352-3.162,4.7-6.327c.229-.308.451-.629.68-.956l.232-.3H55.967c-.192,0-.383,0-.575,0a6.727,6.727,0,0,1-1.344-.062,1.624,1.624,0,0,1-1.163-1.722,1.655,1.655,0,0,1,.38-1.182A.421.421,0,0,1,53.314,44.306Z" transform="translate(-47 -42.048)" fill="#fff"/>
      </g>
      <circle id="Ellipse_1435" data-name="Ellipse 1435" cx="16" cy="16" r="16" transform="translate(1416.001 5874)" fill="none" stroke="#fff" stroke-linecap="round" stroke-linejoin="round" stroke-width="1"/>
    </g>
  </g>
</svg>
