<svg xmlns="http://www.w3.org/2000/svg" width="22.35" height="22.7" viewBox="0 0 22.35 22.7">
  <g id="Group_8779" data-name="Group 8779" transform="translate(-4.317 -4.508)">
    <path id="Path_4033" data-name="Path 4033" d="M25.953,17.367a10.8,10.8,0,0,1-10.592,9.491,10.85,10.85,0,0,1-10.694-11,10.85,10.85,0,0,1,10.694-11,10.749,10.749,0,0,1,10.318,8.1" fill="none" stroke="#707070" stroke-width="0.7"/>
    <path id="Path_4034" data-name="Path 4034" d="M167.018,113.3l2.845-3.393a.242.242,0,0,1,.426.14l.389,4.453a.245.245,0,0,1-.316.259l-3.234-1.061A.251.251,0,0,1,167.018,113.3Z" transform="translate(-144.012 -93.241)" fill="#707070"/>
  </g>
</svg>
