<svg xmlns="http://www.w3.org/2000/svg" width="15.291" height="11.428" viewBox="0 0 15.291 11.428">
  <g id="Group_4099" data-name="Group 4099" transform="translate(-4.317 -29.663)">
    <path id="Path_4072" data-name="Path 4072" d="M19.078,32.117a.91.91,0,0,0-.217-.206h0a.917.917,0,0,0-.432-.153H15.053l-.234-1.173a.709.709,0,0,0-.693-.571H9.8a.708.708,0,0,0-.692.571l-.234,1.173H5.5a.9.9,0,0,0-.83.895v7.189a.905.905,0,0,0,.912.9H18.345a.905.905,0,0,0,.912-.9V32.586A.75.75,0,0,0,19.078,32.117ZM6.7,33.715a.614.614,0,1,1,.624-.614A.617.617,0,0,1,6.7,33.715ZM15.025,37.5l0,0a3.259,3.259,0,0,1-.718,1.06h0a3.309,3.309,0,0,1-1.074.707h0a3.357,3.357,0,0,1-2.535,0h0a3.309,3.309,0,0,1-1.074-.707h0A3.286,3.286,0,0,1,8.9,37.5v0a3.224,3.224,0,0,1,0-2.5h0a3.286,3.286,0,0,1,.718-1.06h0a3.309,3.309,0,0,1,1.074-.707v0a3.357,3.357,0,0,1,2.535,0v0a3.309,3.309,0,0,1,1.074.707h0A3.259,3.259,0,0,1,15.024,35h0a3.224,3.224,0,0,1,0,2.5Z" fill="none" stroke="#707070" stroke-linecap="round" stroke-linejoin="round" stroke-width="0.7"/>
  </g>
</svg>
