<svg xmlns="http://www.w3.org/2000/svg" width="19.953" height="21.8" viewBox="0 0 19.953 21.8">
  <g id="bin" transform="translate(0.4 0.4)">
    <line id="Line_653" data-name="Line 653" x2="19.153" transform="translate(0 2.702)" fill="none" stroke="#707070" stroke-linecap="round" stroke-linejoin="round" stroke-width="0.8"/>
    <path id="Rectangle_2139" data-name="Rectangle 2139" d="M0,0H15.676a0,0,0,0,1,0,0V16.3a2,2,0,0,1-2,2H2a2,2,0,0,1-2-2V0A0,0,0,0,1,0,0Z" transform="translate(2 2.702)" fill="none" stroke="#707070" stroke-linecap="round" stroke-linejoin="round" stroke-width="0.8"/>
    <path id="Rectangle_2140" data-name="Rectangle 2140" d="M1,0H5.318a1,1,0,0,1,1,1V2.7a0,0,0,0,1,0,0H0a0,0,0,0,1,0,0V1A1,1,0,0,1,1,0Z" transform="translate(6.679)" fill="none" stroke="#707070" stroke-linecap="round" stroke-linejoin="round" stroke-width="0.8"/>
    <line id="Line_654" data-name="Line 654" y2="10.609" transform="translate(5.943 6.596)" fill="none" stroke="#707070" stroke-linecap="round" stroke-linejoin="round" stroke-width="0.8"/>
    <line id="Line_655" data-name="Line 655" y2="10.609" transform="translate(9.837 6.596)" fill="none" stroke="#707070" stroke-linecap="round" stroke-linejoin="round" stroke-width="0.8"/>
    <line id="Line_656" data-name="Line 656" y2="10.609" transform="translate(13.731 6.596)" fill="none" stroke="#707070" stroke-linecap="round" stroke-linejoin="round" stroke-width="0.8"/>
  </g>
</svg>
