<svg xmlns="http://www.w3.org/2000/svg" width="52.915" height="53" viewBox="0 0 52.915 53">
  <g id="Group_8244" data-name="Group 8244" transform="translate(-3.668 -2.672)">
    <ellipse id="Ellipse_1753" data-name="Ellipse 1753" cx="22.801" cy="22.658" rx="22.801" ry="22.658" transform="translate(4.668 9.356)" fill="none" stroke="#707070" stroke-linecap="round" stroke-linejoin="round" stroke-width="2"/>
    <ellipse id="Ellipse_1754" data-name="Ellipse 1754" cx="16.719" cy="16.578" rx="16.719" ry="16.578" transform="translate(10.792 15.521)" fill="none" stroke="#707070" stroke-linecap="round" stroke-linejoin="round" stroke-width="2"/>
    <ellipse id="Ellipse_1755" data-name="Ellipse 1755" cx="10.659" cy="10.569" rx="10.659" ry="10.569" transform="translate(16.816 21.446)" fill="none" stroke="#707070" stroke-linecap="round" stroke-linejoin="round" stroke-width="2"/>
    <ellipse id="Ellipse_1756" data-name="Ellipse 1756" cx="4.652" cy="4.613" rx="4.652" ry="4.613" transform="translate(22.744 27.486)" fill="none" stroke="#707070" stroke-linecap="round" stroke-linejoin="round" stroke-width="2"/>
    <path id="Path_18075" data-name="Path 18075" d="M100.849,57.032l-1.385-1.363,14.979-14.747,1.385,1.363Z" transform="translate(-69.673 -27.755)" fill="#707070"/>
    <path id="Path_18076" data-name="Path 18076" d="M155.576,9.9l5.272-5.227-.413,2.516-.412,2.517,2.538-.408,2.537-.409-5.272,5.227-2.537.409-2.538.408.412-2.517Z" transform="translate(-109.516 -1)" fill="none" stroke="#707070" stroke-linecap="round" stroke-linejoin="round" stroke-width="2"/>
  </g>
</svg>
