<svg xmlns="http://www.w3.org/2000/svg" width="24" height="24" viewBox="0 0 24 24">
  <g id="Group_8748" data-name="Group 8748" transform="translate(-4.167 -4.161)">
    <path id="Path_4062" data-name="Path 4062" d="M12.278,25.413h0l.086.028.086.028.057.018.058.018.113.034.22.063.072.02.117.031.015,0,.066.017.066.016.089.021q.259.061.523.111l.076.014L14,25.85q.145.026.29.048l.089.013h0l.09.013.177.023.052.006.079.009.026,0,.053.006.045,0,.062.006.052,0,.117.01.081.006.072.005.052,0,.139.008.046,0,.14.006.052,0,.067,0,.093,0h.288c6.351,0,11.5-4.786,11.5-10.689S22.518,4.661,16.167,4.661,4.667,9.447,4.667,15.35c0,.035,0,.071,0,.106,0,.019,0,.038,0,.058q0,.114.006.227c0,.022,0,.044,0,.065s0,.044,0,.065,0,.043,0,.065q.006.1.014.2c0,.02,0,.041.005.061s0,.043.005.064l0,.046.006.063,0,.031c0,.018,0,.037.006.055s0,.045.008.068l0,.042c0,.022.005.043.008.065s0,.029.006.044.006.047.01.071l.007.048.009.062.007.043c0,.013,0,.027.006.04q.011.067.022.134l.008.045c0,.021.007.041.011.062l.012.061.012.061.012.061.01.046.005.026q.016.076.034.152l.01.042.011.047.012.051.015.06.015.06.016.06q.016.06.032.12l.017.06.017.059c.008.03.017.059.026.089l.027.089h0l.025.079,0,.016.027.082.02.058.025.073.022.063.018.051.017.046q.063.174.133.344l.023.057.033.079.039.091.025.056.025.056.051.112.052.111.027.055.058.118.043.085.01.019.055.106.046.085.022.04.08.143.031.053.045.078.026.044.022.037.028.047.03.048.038.061.033.052.033.052.042.064.042.064.086.127.035.051.035.05.035.05.072.1.036.049.037.049.079.1.048.062.048.061.051.064.038.048L7,21.81q.13.16.267.315l.053.06.033.036.008.01.054.06.139.148.06.063h0c0,.026-.121,3.4-1.271,5.16.21-.016,4.406-.687,5.931-2.248h0" transform="translate(0 0)" fill="none" stroke="#707070" stroke-linecap="round" stroke-linejoin="round" stroke-width="1"/>
    <g id="Group_4003" data-name="Group 4003" transform="translate(9.49 13.837)">
      <ellipse id="Ellipse_1413" data-name="Ellipse 1413" cx="1.173" cy="1.246" rx="1.173" ry="1.246" transform="translate(0)" fill="#707070"/>
      <ellipse id="Ellipse_1414" data-name="Ellipse 1414" cx="1.173" cy="1.246" rx="1.173" ry="1.246" transform="translate(5.504)" fill="#707070"/>
      <ellipse id="Ellipse_1415" data-name="Ellipse 1415" cx="1.173" cy="1.246" rx="1.173" ry="1.246" transform="translate(11.008)" fill="#707070"/>
    </g>
  </g>
</svg>
