<svg xmlns="http://www.w3.org/2000/svg" width="62.927" height="40.029" viewBox="0 0 62.927 40.029">
  <g id="xe112" transform="translate(0.6 0.601)">
    <path id="Path_4230" data-name="Path 4230" d="M53.6,102.113H48.049a2.063,2.063,0,0,1-2.039-2.087V70.871a2.066,2.066,0,0,1,2.039-2.087H83.361A2.063,2.063,0,0,1,85.4,70.871v31.242H65.684" transform="translate(-46.01 -68.784)" fill="none" stroke="#fff" stroke-linecap="round" stroke-linejoin="round" stroke-width="1.2"/>
    <path id="Path_4231" data-name="Path 4231" d="M141.85,82.184h9.923a3.3,3.3,0,0,1,2.554,1.23l8.337,10.207a3.871,3.871,0,0,1,.935,2.533v11.754a2.058,2.058,0,0,1-2.017,2.1h-2.875" transform="translate(-101.872 -76.677)" fill="none" stroke="#fff" stroke-linecap="round" stroke-linejoin="round" stroke-width="1.2"/>
    <circle id="Ellipse_1447" data-name="Ellipse 1447" cx="6.043" cy="6.043" r="6.043" transform="translate(7.547 26.743)" fill="none" stroke="#fff" stroke-linecap="round" stroke-linejoin="round" stroke-width="1.2"/>
    <circle id="Ellipse_1448" data-name="Ellipse 1448" cx="6.043" cy="6.043" r="6.043" transform="translate(44.696 26.743)" fill="none" stroke="#fff" stroke-linecap="round" stroke-linejoin="round" stroke-width="1.2"/>
    <circle id="Ellipse_1449" data-name="Ellipse 1449" cx="2.907" cy="2.907" r="2.907" transform="translate(47.831 29.878)" fill="none" stroke="#fff" stroke-linecap="round" stroke-linejoin="round" stroke-width="1.2"/>
    <circle id="Ellipse_1450" data-name="Ellipse 1450" cx="2.907" cy="2.907" r="2.907" transform="translate(10.689 29.878)" fill="none" stroke="#fff" stroke-linecap="round" stroke-linejoin="round" stroke-width="1.2"/>
    <path id="Path_4232" data-name="Path 4232" d="M156.235,91.392h-5.6a.873.873,0,0,0-.873.873V98.7a.873.873,0,0,0,.873.873h11.021a.805.805,0,0,0,.623-1.316l-5.364-6.547A.872.872,0,0,0,156.235,91.392Z" transform="translate(-106.76 -82.029)" fill="none" stroke="#fff" stroke-linecap="round" stroke-linejoin="round" stroke-width="1.2"/>
    <line id="Line_505" data-name="Line 505" x1="6" transform="translate(38.717 33.329)" fill="none" stroke="#fff" stroke-linecap="round" stroke-linejoin="round" stroke-width="1.2"/>
  </g>
</svg>
