<svg xmlns="http://www.w3.org/2000/svg" width="87.229" height="53" viewBox="0 0 87.229 53">
  <g id="Group_8272" data-name="Group 8272" transform="translate(-12.537 1)">
    <g id="Group_8270" data-name="Group 8270" transform="translate(13.537)">
      <path id="Path_18092" data-name="Path 18092" d="M-172.758,116.1h-8.415a2.8,2.8,0,0,1-2.814-2.783V74.45a2.8,2.8,0,0,1,2.814-2.783h48.745a2.8,2.8,0,0,1,2.814,2.783V116.1H-157.59" transform="translate(183.987 -71.667)" fill="none" stroke="#707070" stroke-linecap="round" stroke-linejoin="round" stroke-width="2"/>
      <path id="Path_18093" data-name="Path 18093" d="M-80.563,121.9h-7.584V85.067H-74.3a4.7,4.7,0,0,1,3.563,1.626l11.628,13.515a4.971,4.971,0,0,1,1.307,3.354v15.561A2.8,2.8,0,0,1-60.62,121.9h-4.77" transform="translate(143.035 -77.465)" fill="none" stroke="#707070" stroke-linecap="round" stroke-linejoin="round" stroke-width="2"/>
      <circle id="Ellipse_1765" data-name="Ellipse 1765" cx="6.567" cy="6.567" r="6.567" transform="translate(12.202 37.867)" fill="none" stroke="#707070" stroke-linecap="round" stroke-linejoin="round" stroke-width="2"/>
      <circle id="Ellipse_1766" data-name="Ellipse 1766" cx="6.567" cy="6.567" r="6.567" transform="translate(63.492 37.867)" fill="none" stroke="#707070" stroke-linecap="round" stroke-linejoin="round" stroke-width="2"/>
    </g>
    <g id="Group_8271" data-name="Group 8271" transform="translate(16.579 7.303)">
      <path id="Path_18094" data-name="Path 18094" d="M-151.066,89.6h-3.555l-.563,3.761h-1.472l1.32-8.819h5.646l-.176,1.181h-4.18l-.4,2.7h3.555Z" transform="translate(169.124 -84.539)" fill="#707070"/>
      <path id="Path_18095" data-name="Path 18095" d="M-141.048,89.767l-.624-.024a1.4,1.4,0,0,0-.736.191,1.625,1.625,0,0,0-.536.536l-.678,4.524h-1.472l.981-6.554h1.345l-.043.927a2.516,2.516,0,0,1,.751-.772,1.716,1.716,0,0,1,.945-.276,1.381,1.381,0,0,1,.245.021,1.454,1.454,0,0,1,.209.052Z" transform="translate(164.122 -86.174)" fill="#707070"/>
      <path id="Path_18096" data-name="Path 18096" d="M-134.75,95.121a2.464,2.464,0,0,1-2.084-.915,2.953,2.953,0,0,1-.484-2.338l.036-.242a4.075,4.075,0,0,1,1.163-2.4,3.075,3.075,0,0,1,2.229-.9,2.1,2.1,0,0,1,1.848.824,2.908,2.908,0,0,1,.381,2.168l-.115.794h-4.1a2.063,2.063,0,0,0,.249,1.347,1.263,1.263,0,0,0,1.139.494,3.554,3.554,0,0,0,1.054-.148,3.481,3.481,0,0,0,.884-.415l.333.963a3.746,3.746,0,0,1-1.075.551A4.448,4.448,0,0,1-134.75,95.121Zm.685-5.621a1.323,1.323,0,0,0-.963.418,2.436,2.436,0,0,0-.606,1.072l.012.036h2.55l.018-.115a1.51,1.51,0,0,0-.14-1.033A.946.946,0,0,0-134.065,89.5Z" transform="translate(160.78 -86.174)" fill="#707070"/>
      <path id="Path_18097" data-name="Path 18097" d="M-123.305,95.121a2.463,2.463,0,0,1-2.083-.915,2.951,2.951,0,0,1-.485-2.338l.037-.242a4.071,4.071,0,0,1,1.163-2.4,3.075,3.075,0,0,1,2.229-.9,2.1,2.1,0,0,1,1.848.824,2.908,2.908,0,0,1,.381,2.168l-.115.794h-4.1a2.062,2.062,0,0,0,.249,1.347,1.264,1.264,0,0,0,1.139.494,3.551,3.551,0,0,0,1.054-.148,3.482,3.482,0,0,0,.885-.415l.333.963a3.746,3.746,0,0,1-1.075.551A4.448,4.448,0,0,1-123.305,95.121Zm.685-5.621a1.323,1.323,0,0,0-.963.418,2.43,2.43,0,0,0-.605,1.072l.012.036h2.55l.018-.115a1.507,1.507,0,0,0-.14-1.033A.945.945,0,0,0-122.62,89.5Z" transform="translate(155.828 -86.174)" fill="#707070"/>
      <path id="Path_18098" data-name="Path 18098" d="M-173.637,114.9a1.064,1.064,0,0,0-.288-.984,4.041,4.041,0,0,0-1.438-.712,5.378,5.378,0,0,1-2.126-1.121,1.964,1.964,0,0,1-.5-1.811,2.3,2.3,0,0,1,1.042-1.638,3.806,3.806,0,0,1,2.163-.591,3.3,3.3,0,0,1,2.265.721,2.011,2.011,0,0,1,.593,1.981l-.012.036h-1.418a1.241,1.241,0,0,0-.345-1.12,1.727,1.727,0,0,0-1.266-.436,1.82,1.82,0,0,0-1.044.3,1.054,1.054,0,0,0-.5.739,1,1,0,0,0,.26.966,5.079,5.079,0,0,0,1.545.73,5.071,5.071,0,0,1,2.065,1.115,2.032,2.032,0,0,1,.473,1.817,2.268,2.268,0,0,1-1.054,1.663,4.063,4.063,0,0,1-2.223.566,4.207,4.207,0,0,1-2.4-.657,1.862,1.862,0,0,1-.732-2.044l.012-.036h1.411a1.094,1.094,0,0,0,.451,1.208,2.711,2.711,0,0,0,1.439.354,2.016,2.016,0,0,0,1.09-.294A1.072,1.072,0,0,0-173.637,114.9Z" transform="translate(178.633 -94.71)" fill="#707070"/>
      <path id="Path_18099" data-name="Path 18099" d="M-163.479,110.868a2.816,2.816,0,0,1,.9-.69,2.449,2.449,0,0,1,1.079-.242A1.772,1.772,0,0,1-160,110.6a2.664,2.664,0,0,1,.3,2.02l-.6,3.992h-1.472l.6-4a1.564,1.564,0,0,0-.124-1.132.99.99,0,0,0-.851-.334,1.953,1.953,0,0,0-.836.176,1.907,1.907,0,0,0-.642.485l-.72,4.809h-1.472l1.417-9.449h1.472Z" transform="translate(173.085 -94.327)" fill="#707070"/>
      <path id="Path_18100" data-name="Path 18100" d="M-151.752,116.61h-1.472l.981-6.554h1.472Zm1.224-8.159H-152l.193-1.29h1.472Z" transform="translate(167.639 -94.327)" fill="#707070"/>
      <path id="Path_18101" data-name="Path 18101" d="M-141.809,115.667A4.308,4.308,0,0,1-142.83,118a2.614,2.614,0,0,1-2,.851,2.028,2.028,0,0,1-.948-.209,1.683,1.683,0,0,1-.658-.615l-.478,3.217h-1.472l1.356-9.074h1.242l.024.824a2.7,2.7,0,0,1,.863-.7,2.342,2.342,0,0,1,1.069-.242,1.836,1.836,0,0,1,1.714.972,3.9,3.9,0,0,1,.327,2.517Zm-1.448-.128a3.01,3.01,0,0,0-.13-1.662,1.038,1.038,0,0,0-1.039-.621,1.575,1.575,0,0,0-.8.2,1.971,1.971,0,0,0-.615.561l-.442,2.943a1.12,1.12,0,0,0,.442.53,1.426,1.426,0,0,0,.764.184,1.481,1.481,0,0,0,1.19-.563,2.915,2.915,0,0,0,.609-1.447Z" transform="translate(165.547 -96.443)" fill="#707070"/>
      <path id="Path_18102" data-name="Path 18102" d="M-129.425,115.667A4.312,4.312,0,0,1-130.445,118a2.614,2.614,0,0,1-2,.851,2.031,2.031,0,0,1-.948-.209,1.685,1.685,0,0,1-.657-.615l-.478,3.217H-136l1.357-9.074h1.241l.024.824a2.7,2.7,0,0,1,.863-.7,2.343,2.343,0,0,1,1.069-.242,1.835,1.835,0,0,1,1.714.972,3.9,3.9,0,0,1,.327,2.517Zm-1.448-.128a3.01,3.01,0,0,0-.13-1.662,1.039,1.039,0,0,0-1.039-.621,1.575,1.575,0,0,0-.8.2,1.965,1.965,0,0,0-.615.561l-.442,2.943a1.113,1.113,0,0,0,.442.53,1.425,1.425,0,0,0,.763.184,1.483,1.483,0,0,0,1.19-.563,2.92,2.92,0,0,0,.609-1.447Z" transform="translate(160.189 -96.443)" fill="#707070"/>
      <path id="Path_18103" data-name="Path 18103" d="M-121.313,116.61h-1.472l.981-6.554h1.472Zm1.224-8.159h-1.472l.194-1.29h1.472Z" transform="translate(154.47 -94.327)" fill="#707070"/>
      <path id="Path_18104" data-name="Path 18104" d="M-115.037,113.081a2.888,2.888,0,0,1,.927-.76,2.462,2.462,0,0,1,1.139-.269,1.757,1.757,0,0,1,1.481.636,2.561,2.561,0,0,1,.3,1.962l-.612,4.076h-1.472l.612-4.064a1.471,1.471,0,0,0-.13-1.1,1.041,1.041,0,0,0-.857-.306,1.833,1.833,0,0,0-.83.185,1.945,1.945,0,0,0-.642.518l-.715,4.767h-1.472l.981-6.554h1.345Z" transform="translate(152.1 -96.443)" fill="#707070"/>
      <path id="Path_18105" data-name="Path 18105" d="M-104.553,115.54a4.947,4.947,0,0,1,1.048-2.556,2.575,2.575,0,0,1,2.036-.933,1.77,1.77,0,0,1,.978.263,1.894,1.894,0,0,1,.657.748l.279-.891h1.224l-.981,6.554a2.92,2.92,0,0,1-1.072,1.981,3.736,3.736,0,0,1-2.326.667,4.157,4.157,0,0,1-1.009-.136,3.955,3.955,0,0,1-.948-.361l.406-1.157a3.177,3.177,0,0,0,.8.294,4.093,4.093,0,0,0,.936.106,1.872,1.872,0,0,0,1.2-.348,1.6,1.6,0,0,0,.542-1.045l.1-.672a2.5,2.5,0,0,1-.815.6,2.406,2.406,0,0,1-1,.2,1.9,1.9,0,0,1-1.72-.887,3.28,3.28,0,0,1-.352-2.3Zm1.448.128a2.4,2.4,0,0,0,.127,1.463,1.057,1.057,0,0,0,1.036.524,1.614,1.614,0,0,0,.811-.2,1.948,1.948,0,0,0,.624-.579l.43-2.847a1.208,1.208,0,0,0-.442-.566,1.316,1.316,0,0,0-.757-.2,1.426,1.426,0,0,0-1.2.642,3.623,3.623,0,0,0-.615,1.641Z" transform="translate(146.631 -96.443)" fill="#707070"/>
    </g>
  </g>
</svg>
