<svg xmlns="http://www.w3.org/2000/svg" width="51.664" height="53" viewBox="0 0 51.664 53">
  <g id="Group_8267" data-name="Group 8267" transform="translate(-8.198 -3.647)">
    <path id="Path_18085" data-name="Path 18085" d="M99.014,90.674V65.863l24.763-13.208V77.466Z" transform="translate(-64.915 -35.027)" fill="none" stroke="#707070" stroke-linejoin="round" stroke-width="2"/>
    <path id="Path_18086" data-name="Path 18086" d="M34.222,90.735V65.912L9.2,52.715V78.038Z" transform="translate(0 -35.088)" fill="none" stroke="#707070" stroke-linejoin="round" stroke-width="2"/>
    <path id="Path_18087" data-name="Path 18087" d="M9.2,18.372,34.03,31.347,58.862,18.356,34.019,5.385Z" transform="translate(0 -0.738)" fill="none" stroke="#707070" stroke-linejoin="round" stroke-width="2"/>
    <g id="Dots" transform="translate(13.505 16.058)">
      <g id="Group_8259" data-name="Group 8259" transform="translate(32.326 19.894)">
        <g id="Group_8258" data-name="Group 8258">
          <path id="Path_18088" data-name="Path 18088" d="M143.393,117.581c0-1.189-.912-1.671-2.037-1.077a4.068,4.068,0,0,0-2.037,3.23c0,1.189.912,1.671,2.037,1.077A4.068,4.068,0,0,0,143.393,117.581Z" transform="translate(-139.318 -116.25)" fill="#707070"/>
        </g>
      </g>
      <g id="Group_8263" data-name="Group 8263" transform="translate(0 10.204)">
        <g id="Group_8260" data-name="Group 8260" transform="translate(12.224 19.381)">
          <path id="Path_18089" data-name="Path 18089" d="M67.918,152c0-1.189.912-1.671,2.037-1.077a4.067,4.067,0,0,1,2.037,3.23c0,1.189-.912,1.671-2.037,1.077A4.068,4.068,0,0,1,67.918,152Z" transform="translate(-67.918 -150.67)" fill="#707070"/>
        </g>
        <g id="Group_8261" data-name="Group 8261" transform="translate(6.112 9.69)">
          <path id="Path_18090" data-name="Path 18090" d="M46.208,117.581c0-1.189.912-1.671,2.037-1.077a4.068,4.068,0,0,1,2.037,3.23c0,1.189-.912,1.671-2.037,1.077A4.068,4.068,0,0,1,46.208,117.581Z" transform="translate(-46.208 -116.25)" fill="#707070"/>
        </g>
        <g id="Group_8262" data-name="Group 8262">
          <path id="Path_18091" data-name="Path 18091" d="M24.5,83.161c0-1.189.912-1.671,2.037-1.077a4.068,4.068,0,0,1,2.037,3.23c0,1.189-.912,1.671-2.037,1.077A4.068,4.068,0,0,1,24.5,83.161Z" transform="translate(-24.497 -81.829)" fill="#707070"/>
        </g>
      </g>
      <g id="Group_8266" data-name="Group 8266" transform="translate(6.151)">
        <g id="Group_8264" data-name="Group 8264">
          <ellipse id="Ellipse_1763" data-name="Ellipse 1763" cx="2.881" cy="1.523" rx="2.881" ry="1.523" fill="#707070"/>
        </g>
        <g id="Group_8265" data-name="Group 8265" transform="translate(24.449 0)">
          <ellipse id="Ellipse_1764" data-name="Ellipse 1764" cx="2.881" cy="1.523" rx="2.881" ry="1.523" fill="#707070"/>
        </g>
      </g>
    </g>
  </g>
</svg>
