<svg xmlns="http://www.w3.org/2000/svg" width="53" height="53" viewBox="0 0 53 53">
  <g id="Group_8248" data-name="Group 8248" transform="translate(-3.667 -3.672)">
    <path id="Path_18081" data-name="Path 18081" d="M26.481,35.263V25.041c0-11.2,8.886-20.369,19.747-20.369h0c10.861,0,19.747,9.166,19.747,20.369V36.41c0,8.58-7,14.723-15.13,15.516" transform="translate(-16.066 0)" fill="none" stroke="#707070" stroke-linecap="round" stroke-linejoin="round" stroke-width="2"/>
    <path id="Rectangle_2600" data-name="Rectangle 2600" d="M5.757,0h0a0,0,0,0,1,0,0V14.276a0,0,0,0,1,0,0h0A5.757,5.757,0,0,1,0,8.518V5.757A5.757,5.757,0,0,1,5.757,0Z" transform="translate(4.667 22.487)" fill="none" stroke="#707070" stroke-linecap="round" stroke-linejoin="round" stroke-width="2"/>
    <path id="Rectangle_2601" data-name="Rectangle 2601" d="M5.757,0h0a0,0,0,0,1,0,0V14.276a0,0,0,0,1,0,0h0A5.757,5.757,0,0,1,0,8.518V5.757A5.757,5.757,0,0,1,5.757,0Z" transform="translate(55.667 36.762) rotate(180)" fill="none" stroke="#707070" stroke-linecap="round" stroke-linejoin="round" stroke-width="2"/>
    <rect id="Rectangle_2602" data-name="Rectangle 2602" width="11.945" height="7.493" rx="3.746" transform="translate(22.781 48.179)" fill="none" stroke="#707070" stroke-linecap="round" stroke-linejoin="round" stroke-width="2"/>
  </g>
</svg>
