<svg xmlns="http://www.w3.org/2000/svg" width="21.542" height="21.659" viewBox="0 0 21.542 21.659">
  <path id="Path_4060" data-name="Path 4060" d="M11.1,13.447a10.805,10.805,0,0,0,6.492,5.9,1.363,1.363,0,0,0,1.37-.323c.3-.3.686-.69,1.033-1.044a1.342,1.342,0,0,1,1.907-.008L24.8,20.871a1.343,1.343,0,0,1,0,1.9l-2.34,2.34a2.179,2.179,0,0,1-2.26.521c-3.4-1.188-12.385-5.218-15.435-15.422A2.2,2.2,0,0,1,5.3,8.028c.708-.711,1.7-1.7,2.43-2.413a1.342,1.342,0,0,1,1.892.007l3.093,3.093a1.343,1.343,0,0,1,0,1.9l-1.336,1.336A1.332,1.332,0,0,0,11.1,13.447Z" transform="translate(-4.147 -4.62)" fill="none" stroke="#707070" stroke-linecap="round" stroke-linejoin="round" stroke-width="1"/>
</svg>
