<svg xmlns="http://www.w3.org/2000/svg" width="17" height="19" viewBox="0 0 17 19">
  <path id="Icon_material-date-range" data-name="Icon material-date-range" d="M10.167,11.55H8.278v1.9h1.889Zm3.778,0H12.056v1.9h1.889Zm3.778,0H15.833v1.9h1.889ZM19.611,4.9h-.944V3H16.778V4.9H9.222V3H7.333V4.9H6.389A1.886,1.886,0,0,0,4.509,6.8L4.5,20.1A1.894,1.894,0,0,0,6.389,22H19.611A1.9,1.9,0,0,0,21.5,20.1V6.8A1.9,1.9,0,0,0,19.611,4.9Zm0,15.2H6.389V9.65H19.611Z" transform="translate(-4.5 -3)" fill="#545454"/>
</svg>
