<svg xmlns="http://www.w3.org/2000/svg" width="18.981" height="17.822" viewBox="0 0 18.981 17.822">
  <g id="Group_4339" data-name="Group 4339" transform="translate(-298.584 -174.6)">
    <g id="Group_4333" data-name="Group 4333" transform="translate(299 175)">
      <path id="Path_4198" data-name="Path 4198" d="M9.9,12.036a8.857,8.857,0,0,0,5.277,4.891,1.093,1.093,0,0,0,1.114-.268c.247-.251.557-.572.84-.864a1.077,1.077,0,0,1,1.55-.007l2.352,2.4a1.127,1.127,0,0,1,0,1.573l-1.9,1.938a1.747,1.747,0,0,1-1.837.432C14.522,21.145,7.222,17.807,4.743,9.354A1.843,1.843,0,0,1,5.18,7.548c.576-.589,1.385-1.4,1.976-2a1.076,1.076,0,0,1,1.538.006l2.514,2.562a1.127,1.127,0,0,1,0,1.573L10.122,10.8A1.119,1.119,0,0,0,9.9,12.036Z" transform="translate(-4.667 -5.229)" fill="none" stroke="#707070" stroke-linecap="round" stroke-linejoin="round" stroke-width="0.8"/>
    </g>
    <g id="Group_4338" data-name="Group 4338" transform="translate(307.56 175.465)">
      <line id="Line_493" data-name="Line 493" x2="9.44" transform="translate(0 2.853)" fill="none" stroke="#707070" stroke-linecap="round" stroke-linejoin="round" stroke-width="0.8"/>
      <line id="Line_494" data-name="Line 494" x2="3.403" y2="2.853" transform="translate(6.037)" fill="none" stroke="#707070" stroke-linecap="round" stroke-linejoin="round" stroke-width="0.8"/>
      <line id="Line_495" data-name="Line 495" y1="3.183" x2="3.403" transform="translate(6.037 2.853)" fill="none" stroke="#707070" stroke-linecap="round" stroke-linejoin="round" stroke-width="0.8"/>
    </g>
  </g>
</svg>
