<svg xmlns="http://www.w3.org/2000/svg" width="18" height="19" viewBox="0 0 18 19">
  <g id="Layer_2" data-name="Layer 2" transform="translate(-0.276 0.453)">
    <g id="invisible_box" data-name="invisible box" transform="translate(0.276 -0.141)">
      <rect id="Rectangle_1418" data-name="Rectangle 1418" width="18" height="19" transform="translate(0 -0.312)" fill="none"/>
    </g>
    <g id="Q3_icons" data-name="Q3 icons" transform="translate(1.389 1.389)">
      <g id="Group_3528" data-name="Group 3528">
        <path id="Path_3892" data-name="Path 3892" d="M18.073,22H4.741a.741.741,0,0,0,0,1.481H18.073a.741.741,0,0,0,0-1.481Z" transform="translate(-4 -15.198)" fill="#545454"/>
        <path id="Path_3893" data-name="Path 3893" d="M4.741,15.481H18.073a.741.741,0,0,0,0-1.481H4.741a.741.741,0,0,0,0,1.481Z" transform="translate(-4 -10.221)" fill="#545454"/>
        <path id="Path_3894" data-name="Path 3894" d="M18.073,30H4.741a.741.741,0,0,0,0,1.481H18.073a.741.741,0,0,0,0-1.481Z" transform="translate(-4 -20.175)" fill="#545454"/>
        <path id="Path_3895" data-name="Path 3895" d="M20.222,4,18,6.222h4.444Z" transform="translate(-12.815 -4)" fill="#545454"/>
        <path id="Path_3896" data-name="Path 3896" d="M20.222,40.222,22.444,38H18Z" transform="translate(-12.815 -25.137)" fill="#545454"/>
      </g>
    </g>
  </g>
</svg>
