<svg xmlns="http://www.w3.org/2000/svg" width="14.7" height="18.7" viewBox="0 0 14.7 18.7">
  <g id="Group_5084" data-name="Group 5084" transform="translate(1885.286 -5057.956)">
    <path id="Path_4462" data-name="Path 4462" d="M-1852.6,5058.306h-7.033a1.853,1.853,0,0,0-1.866,1.839v.52h6.194a1.853,1.853,0,0,1,1.866,1.839v11.409h.839a1.853,1.853,0,0,0,1.866-1.839v-11.929A1.853,1.853,0,0,0-1852.6,5058.306Z" transform="translate(-20.203 0)" fill="none" stroke="#707070" stroke-width="0.7"/>
    <path id="Path_4463" data-name="Path 4463" d="M-1882.231,5079.042h-.839a1.853,1.853,0,0,0-1.866,1.839v11.928a1.853,1.853,0,0,0,1.866,1.84h7.033a1.853,1.853,0,0,0,1.866-1.84v-.519" transform="translate(0 -18.343)" fill="none" stroke="#707070" stroke-width="0.7"/>
    <path id="Path_4464" data-name="Path 4464" d="M-1852.908,5092.256v-11.379a1.916,1.916,0,0,0-1.989-1.834h-6.6" transform="translate(-20.733 -18.343)" fill="none" stroke="#707070" stroke-width="0.7"/>
  </g>
</svg>
