<svg xmlns="http://www.w3.org/2000/svg" width="17" height="11" viewBox="0 0 17 11">
  <path id="Icon_ionic-md-eye" data-name="Icon ionic-md-eye" d="M10.75,7.383a9.145,9.145,0,0,0-8.5,5.5,9.145,9.145,0,0,0,8.5,5.5,9.145,9.145,0,0,0,8.5-5.5A9.145,9.145,0,0,0,10.75,7.383Zm0,9.168a3.78,3.78,0,0,1-3.863-3.668A3.78,3.78,0,0,1,10.75,9.215a3.78,3.78,0,0,1,3.863,3.668A3.78,3.78,0,0,1,10.75,16.551Zm0-5.868a2.269,2.269,0,0,0-2.319,2.2,2.322,2.322,0,0,0,4.637,0A2.269,2.269,0,0,0,10.75,10.683Z" transform="translate(-2.25 -7.383)" fill="#fff"/>
</svg>
