<svg id="yeuthich1" xmlns="http://www.w3.org/2000/svg" width="33" height="33" viewBox="0 0 33 33">
  <path id="Path_18156" data-name="Path 18156" d="M16.5,0A16.5,16.5,0,1,1,0,16.5,16.5,16.5,0,0,1,16.5,0Z"/>
  <g id="Group_9506" data-name="Group 9506" transform="translate(6.836 8.832)">
    <path id="Path_18149" data-name="Path 18149" d="M14.331,24,11.56,21.8a33.883,33.883,0,0,1-2.753-2.482c-1.928-1.948-4.14-4.662-4.14-8.38,0-3.461,2.285-6.267,5.1-6.267a5.112,5.112,0,0,1,4.56,3.45,5.112,5.112,0,0,1,4.56-3.45c2.819,0,5.1,2.806,5.1,6.267,0,3.719-2.213,6.432-4.14,8.38A33.883,33.883,0,0,1,17.1,21.8Z" transform="translate(-4.667 -4.667)" fill="none" stroke="#fff" stroke-linejoin="round" stroke-width="1"/>
  </g>
</svg>
