<svg xmlns="http://www.w3.org/2000/svg" width="21.5" height="21.5" viewBox="0 0 21.5 21.5">
  <g id="Like" transform="translate(0.75 0.75)">
    <path id="Path_18065" data-name="Path 18065" d="M14.667,24.667,11.8,22.391a35.057,35.057,0,0,1-2.849-2.568C6.956,17.807,4.667,15,4.667,11.151c0-3.581,2.364-6.484,5.281-6.484a5.29,5.29,0,0,1,4.719,3.57,5.29,5.29,0,0,1,4.719-3.57c2.917,0,5.281,2.9,5.281,6.484,0,3.848-2.289,6.655-4.284,8.672a35.057,35.057,0,0,1-2.849,2.568Z" transform="translate(-4.667 -4.667)" fill="none" stroke="#707070" stroke-linejoin="round" stroke-width="1.5"/>
  </g>
</svg>
