<svg xmlns="http://www.w3.org/2000/svg" width="79" height="26" viewBox="0 0 79 26">
  <g id="Component_94_1" data-name="Component 94 – 1" transform="translate(0.5 0.5)">
    <path id="Path_18068" data-name="Path 18068" d="M2.518,0H39.145V25H2.518A2.535,2.535,0,0,1,0,22.449V2.551A2.535,2.535,0,0,1,2.518,0Z" fill="#ff2c00" stroke="#ff2c00" stroke-width="1"/>
    <path id="Rectangle_2599" data-name="Rectangle 2599" d="M0,0H37.145a2,2,0,0,1,2,2V23a2,2,0,0,1-2,2H0a0,0,0,0,1,0,0V0A0,0,0,0,1,0,0Z" transform="translate(38.855)" fill="none" stroke="#ff2c00" stroke-width="1"/>
    <g id="Group_8241" data-name="Group 8241" transform="translate(9.147 7.1)">
      <path id="Path_18069" data-name="Path 18069" d="M33.648,111.736h-4.1v4.7h-2.6v-11.68h7.491v2.086H29.545v2.807h4.1Z" transform="translate(-26.943 -104.757)" fill="#fff"/>
      <path id="Path_18070" data-name="Path 18070" d="M54.293,112.931h.046l2.533-8.174h3.441v11.68h-2.6v-7.524l-.046-.008-2.472,7.532H53.447l-2.426-7.42-.046.008v7.412h-2.6v-11.68h3.411Z" transform="translate(-39.573 -104.757)" fill="#fff"/>
    </g>
    <g id="Group_8242" data-name="Group 8242" transform="translate(44.635 5.97)">
      <path id="Path_18071" data-name="Path 18071" d="M116.68,113.727h4.812v2.086h-7.414v-11.68h2.6Z" transform="translate(-114.078 -103.299)" fill="#ff2c00"/>
      <path id="Path_18072" data-name="Path 18072" d="M138.042,103.922h-2.609V102.1h2.609Zm0,10.693h-2.609v-8.679h2.609Z" transform="translate(-126.664 -102.101)" fill="#ff2c00"/>
      <path id="Path_18073" data-name="Path 18073" d="M147.727,116.542l.154.923.046.008.169-.93,1.1-5.1h2.733l-2.71,8.679h-2.64l-2.71-8.679h2.741Z" transform="translate(-131.637 -107.605)" fill="#ff2c00"/>
      <path id="Path_18074" data-name="Path 18074" d="M168.366,120.056a3.788,3.788,0,0,1-2.968-1.195,4.356,4.356,0,0,1-1.074-3.024v-.305a4.989,4.989,0,0,1,1.013-3.241,3.529,3.529,0,0,1,2.929-1.244,3.3,3.3,0,0,1,2.614,1.051,4.2,4.2,0,0,1,.928,2.88v1.42h-4.773l-.015.048a1.714,1.714,0,0,0,.485,1.1,1.652,1.652,0,0,0,1.217.421,5.076,5.076,0,0,0,1.243-.128,7.645,7.645,0,0,0,1.135-.409l.624,1.653a4.679,4.679,0,0,1-1.447.69A6.441,6.441,0,0,1,168.366,120.056Zm-.1-6.923a1.054,1.054,0,0,0-.92.413,2.13,2.13,0,0,0-.343,1.119l.016.04h2.248V114.5a1.863,1.863,0,0,0-.227-1.019A.856.856,0,0,0,168.266,113.134Z" transform="translate(-143.692 -107.374)" fill="#ff2c00"/>
    </g>
  </g>
</svg>
