<svg xmlns="http://www.w3.org/2000/svg" width="55.721" height="29" viewBox="0 0 55.721 29">
  <g id="Group_6683" data-name="Group 6683" transform="translate(-175.069 -360.971)">
    <g id="Group_4243" data-name="Group 4243" transform="translate(203.962 360.971)">
      <path id="Path_4171" data-name="Path 4171" d="M130.507,81.364c-2.888-.184-4.3-16.917-4.383-17.845-.157.954-2.614,15.786-5.987,15.786-3.294,0-6.051-14.255-6.182-14.958,0,.528.529,17.525-4.016,17.017-4.162-.465-3.139-13.785-3.047-14.928s.241-2.34.45-3.6,1.9-10.382,5.893-10.382c3.4,0,6.643,11.035,6.825,11.587.209-.6,4.112-11.671,7.552-11.671,4.331,0,5.976,9.4,5.931,17.52C133.508,76.05,132.624,81.5,130.507,81.364Z" transform="translate(-106.715 -52.375)" fill="#ff2c00"/>
    </g>
    <path id="Path_4172" data-name="Path 4172" d="M30.718,56.658a8.254,8.254,0,0,0-2.071-1.5c-.846-.449-7.412-3.194-12.505-2.643a2.146,2.146,0,0,0-1.388.581c-.546.469-1.462,6.408-1.8,11.785-4.828.431-8.292,1.685-8.292,3.1s3.442,2.615,8.247,3.062c.323,4.9,1.6,10.372,4.323,10.372,1.5,0,2.545-3.76,2.95-10.289,5.331-.363,9.266-1.634,9.266-3.145s-3.852-2.72-9.129-3.121c-.074-3.17-.333-5.543-.333-5.543q1.758.524,3.83.993c1.381.312,6.079,1.1,7.366-.637a2.077,2.077,0,0,0,.333-1.256A2.5,2.5,0,0,0,30.718,56.658Z" transform="translate(170.402 308.548)" fill="#ff2c00"/>
  </g>
</svg>
