<svg id="Group_6683" data-name="Group 6683" xmlns="http://www.w3.org/2000/svg" width="46.462" height="24.181" viewBox="0 0 46.462 24.181">
  <g id="Group_4243" data-name="Group 4243" transform="translate(24.092)">
    <path id="Path_4171" data-name="Path 4171" d="M126.553,76.547c-2.408-.154-3.589-14.106-3.655-14.88-.131.8-2.18,13.163-4.992,13.163-2.746,0-5.046-11.886-5.155-12.473,0,.44.441,14.613-3.349,14.19-3.47-.388-2.617-11.495-2.541-12.447s.2-1.951.375-3,1.583-8.657,4.914-8.657c2.838,0,5.539,9.2,5.691,9.662.174-.5,3.429-9.731,6.3-9.731,3.611,0,4.983,7.84,4.946,14.609C129.056,72.116,128.319,76.66,126.553,76.547Z" transform="translate(-106.715 -52.375)" fill="#ffd500"/>
  </g>
  <path id="Path_4172" data-name="Path 4172" d="M26.389,55.957a6.883,6.883,0,0,0-1.727-1.251c-.706-.375-6.18-2.663-10.427-2.2a1.789,1.789,0,0,0-1.157.485c-.455.391-1.219,5.343-1.5,9.826-4.026.359-6.914,1.4-6.914,2.587s2.87,2.181,6.877,2.554c.269,4.089,1.336,8.648,3.6,8.648,1.249,0,2.122-3.135,2.46-8.579,4.445-.3,7.727-1.362,7.727-2.623s-3.212-2.268-7.613-2.6c-.061-2.643-.278-4.622-.278-4.622q1.466.437,3.193.828c1.151.26,5.069.916,6.142-.531a1.732,1.732,0,0,0,.278-1.047A2.086,2.086,0,0,0,26.389,55.957Z" transform="translate(-4.667 -52.426)" fill="#ffd500"/>
</svg>
