<svg xmlns="http://www.w3.org/2000/svg" width="25" height="25" viewBox="0 0 25 25"><g transform="translate(-15.185 -67)"><path d="M12.5,1.2A11.3,11.3,0,0,0,4.51,20.49,11.3,11.3,0,0,0,20.49,4.51,11.226,11.226,0,0,0,12.5,1.2m0-1.2A12.5,12.5,0,1,1,0,12.5,12.5,12.5,0,0,1,12.5,0Z" transform="translate(15.185 67)" fill="#707070"/><text transform="translate(22.185 86)" fill="#707070" font-size="19" font-family="Roboto-Light, Roboto" font-weight="300"><tspan x="0" y="0">$</tspan></text><path d="M6.593,2.53H4.447V.716A4.961,4.961,0,0,1,1.864-.444,4.168,4.168,0,0,1,.588-3.834l0-.136.254-.509h2.01v.6a2.233,2.233,0,0,0,.7,1.891,2.984,2.984,0,0,0,1.9.6A2.546,2.546,0,0,0,7.23-1.954a1.751,1.751,0,0,0,.6-1.376,1.637,1.637,0,0,0-.486-1.24,6.009,6.009,0,0,0-2.13-1.114,8.035,8.035,0,0,1-3.074-1.6,3.743,3.743,0,0,1-1.119-2.87,3.944,3.944,0,0,1,1.1-2.869,4.232,4.232,0,0,1,2.352-1.184v-1.946H6.621v1.953A4.016,4.016,0,0,1,9-12.877a4.689,4.689,0,0,1,1.011,3.219l0,.111-.211.526H7.74v-.6a2.693,2.693,0,0,0-.6-1.835,2,2,0,0,0-1.614-.654,2.276,2.276,0,0,0-1.663.539,1.87,1.87,0,0,0-.539,1.394,1.74,1.74,0,0,0,.46,1.283,5.608,5.608,0,0,0,2.19,1.088A8.413,8.413,0,0,1,9.029-6.189a3.682,3.682,0,0,1,1.117,2.84A3.834,3.834,0,0,1,9-.457,4.5,4.5,0,0,1,6.593.695Z" transform="translate(22.185 86)" fill="#707070"/></g></svg>