<svg xmlns="http://www.w3.org/2000/svg" xmlns:xlink="http://www.w3.org/1999/xlink" viewBox="0 0 190.61 190.63"><defs><style>.cls-1{fill:url(#linear-gradient);}.cls-2{fill:#c1282d;}.cls-3{fill:#fff;}</style><linearGradient id="linear-gradient" x1="-360.75" y1="3697.78" x2="-354.6" y2="3691.13" gradientTransform="matrix(29.31, 0, 0, -29.31, 10579.63, 108387.43)" gradientUnits="userSpaceOnUse"><stop offset="0" stop-color="#ef3824"/><stop offset="0.13" stop-color="#f58871"/><stop offset="0.31" stop-color="#ef3824"/><stop offset="1" stop-color="#ef3824"/></linearGradient></defs><title>Asset 9</title><g id="Layer_2" data-name="Layer 2"><g id="Layer_124" data-name="Layer 124"><path id="Path_4882" data-name="Path 4882" class="cls-1" d="M182.48,0a23.86,23.86,0,0,0-16.81,7L7,165.66a23.84,23.84,0,0,0-7,16.81V12.16A12.14,12.14,0,0,1,12.12,0H182.48Z"/><g id="Group_7041" data-name="Group 7041"><path id="Path_4884" data-name="Path 4884" class="cls-2" d="M7,165.66l.22-.21v18L0,190.63V182.5A23.84,23.84,0,0,1,7,165.66Z"/><path id="Path_4885" data-name="Path 4885" class="cls-2" d="M190.61,0,183.42,7.2h-18l.22-.21a23.81,23.81,0,0,1,16.8-7Z"/></g><g id="Group_7044" data-name="Group 7044"><path id="Path_4886" data-name="Path 4886" class="cls-3" d="M29.84,84.9l-6.18,6.18L41,108.4l-3.34,3.34L20.32,94.42l-6.09,6.08-2.68-2.67L27.16,82.22Z"/><path id="Path_4887" data-name="Path 4887" class="cls-3" d="M44.75,88.05,53,96.35l-3.33,3.33-20-20,6.89-6.89a11.1,11.1,0,0,1,6.67-3.65,7.44,7.44,0,0,1,6.15,2.49,6.31,6.31,0,0,1,1.87,3.47,7.89,7.89,0,0,1-.55,4.13,6,6,0,0,1,4.18-.69,7.91,7.91,0,0,1,3.74,2.24l1.66,1.67A9.76,9.76,0,0,0,62.25,84a3.43,3.43,0,0,0,2,.54l.32.32-3.44,3.44A3.11,3.11,0,0,1,59,87.53a18.26,18.26,0,0,1-2.07-1.77l-1.6-1.61A4.75,4.75,0,0,0,52,82.59a4.52,4.52,0,0,0-3.31,1.51Zm-2.68-2.68L45.44,82a6.42,6.42,0,0,0,2.16-3.69A4.08,4.08,0,0,0,46.17,75a4.42,4.42,0,0,0-3.28-1.46,5.45,5.45,0,0,0-3.62,1.9L35.72,79Z"/><path id="Path_4888" data-name="Path 4888" class="cls-3" d="M69.78,61.61,62,69.44l6.33,6.34,9.24-9.23,2.66,2.66L67.6,81.79l-20-20L60.05,49.33,62.72,52l-9.13,9.13,5.64,5.65L67.06,59Z"/><path id="Path_4889" data-name="Path 4889" class="cls-3" d="M98.81,50.58l-3.34,3.34L72.2,48.36l-.06.12L86.53,62.86,83.19,66.2l-20-20,3.33-3.34L89.8,48.41l0-.12L75.47,33.91l3.33-3.34Z"/><path id="Path_4890" data-name="Path 4890" class="cls-3" d="M103,46.37l-20-20,6.61-6.61a11.87,11.87,0,0,1,8.57-3.81,11.67,11.67,0,0,1,8.5,3.73l3,3a11.63,11.63,0,0,1,3.74,8.5,11.91,11.91,0,0,1-3.83,8.55ZM89,25.7l14.66,14.66L107,37.1a6.8,6.8,0,0,0,2.19-5.45,8.68,8.68,0,0,0-2.77-5.6L103.32,23a8.66,8.66,0,0,0-5.6-2.74,6.8,6.8,0,0,0-5.45,2.2Z"/></g></g></g></svg>