<svg xmlns="http://www.w3.org/2000/svg" xmlns:xlink="http://www.w3.org/1999/xlink" viewBox="0 0 190.67 85.19"><defs><style>.cls-1{fill:url(#linear-gradient);}.cls-2{isolation:isolate;}.cls-3{fill:#fff;}</style><linearGradient id="linear-gradient" x1="-139.79" y1="3728.55" x2="-134.65" y2="3728.55" gradientTransform="matrix(37.08, 0, 0, -16.57, 5183.21, 61813.43)" gradientUnits="userSpaceOnUse"><stop offset="0" stop-color="#ef3824"/><stop offset="0.13" stop-color="#f58871"/><stop offset="0.31" stop-color="#ef3824"/><stop offset="1" stop-color="#ef3824"/></linearGradient></defs><title>Asset 8</title><g id="Layer_2" data-name="Layer 2"><g id="Layer_124" data-name="Layer 124"><g id="Group_7077" data-name="Group 7077"><path id="Path_4902" data-name="Path 4902" class="cls-1" d="M0,0V85.19H190.67L171.43,44.88,190.67,0Z"/><g id="TOP" class="cls-2"><g class="cls-2"><path class="cls-3" d="M74.08,30H62.78V61.67h-6.1V30H45.56v-4.9H74.08Z"/><path class="cls-3" d="M106.75,46.68a15.43,15.43,0,0,1-4.21,11.11A14.4,14.4,0,0,1,91.61,62.2a13.92,13.92,0,0,1-10.67-4.41,15.62,15.62,0,0,1-4.12-11.11V40.1A15.68,15.68,0,0,1,80.93,29a13.91,13.91,0,0,1,10.68-4.42A14.44,14.44,0,0,1,102.53,29a15.46,15.46,0,0,1,4.22,11.1Zm-6.1-6.63a11.34,11.34,0,0,0-2.44-7.51,8.1,8.1,0,0,0-6.6-2.93,7.67,7.67,0,0,0-6.37,2.93,11.73,11.73,0,0,0-2.32,7.51v6.63a11.82,11.82,0,0,0,2.34,7.57,7.64,7.64,0,0,0,6.35,3,8.14,8.14,0,0,0,6.62-2.94,11.54,11.54,0,0,0,2.42-7.58Z"/><path class="cls-3" d="M119.33,47.81V61.67h-6.1V25.11h14c4,0,7.19,1.05,9.48,3.12a10.63,10.63,0,0,1,3.42,8.23,10.6,10.6,0,0,1-3.42,8.25q-3.43,3.1-9.48,3.1Zm0-4.9h7.91a6.71,6.71,0,0,0,5.1-1.8,6.47,6.47,0,0,0,1.7-4.6,6.15,6.15,0,0,0-6.8-6.5h-7.91Z"/></g></g></g></g></g></svg>