<svg xmlns="http://www.w3.org/2000/svg" xmlns:xlink="http://www.w3.org/1999/xlink" viewBox="0 0 152.67 190.48"><defs><style>.cls-1{fill:url(#linear-gradient);}.cls-2{fill:url(#linear-gradient-2);}.cls-3{fill:#fff;}</style><linearGradient id="linear-gradient" x1="76.33" x2="76.33" y2="190.18" gradientUnits="userSpaceOnUse"><stop offset="0" stop-color="#ee3724"/><stop offset="0.17" stop-color="#ef8d82"/><stop offset="0.41" stop-color="#ef4c32"/><stop offset="1" stop-color="#ee3724"/></linearGradient><linearGradient id="linear-gradient-2" x1="8.74" y1="183.25" x2="143.3" y2="42.69" gradientUnits="userSpaceOnUse"><stop offset="0" stop-color="#fffac0"/><stop offset="0.51" stop-color="#ddca3b"/><stop offset="1" stop-color="#dbb227"/></linearGradient></defs><title>Asset 11</title><g id="Layer_2" data-name="Layer 2"><g id="Tag_Siêu_sale" data-name="Tag Siêu sale"><path class="cls-1" d="M116.38,0H36.29L0,37.81V190.48H152.67V37.81Zm-40,34.39a8.74,8.74,0,1,1,8.72-8.73A8.74,8.74,0,0,1,76.35,34.39Z"/><path class="cls-2" d="M146.5,182.66H6.17v-140l.14-.14L39.58,7.82h73.51l33.41,34.8Zm-139.33-1H145.5V43L112.67,8.82H40L7.17,43Z"/><path class="cls-3" d="M46.87,87.11a5.21,5.21,0,0,0-1.76-4q-1.76-1.57-6.21-2.82A26.65,26.65,0,0,1,29,75.6a9.25,9.25,0,0,1-3.46-7.49,9.73,9.73,0,0,1,3.8-7.88,15,15,0,0,1,9.79-3.1q6.42,0,10.26,3.44a10.52,10.52,0,0,1,3.72,8.49l-.06.17H46.73a6.31,6.31,0,0,0-2.08-5,8,8,0,0,0-5.53-1.85A7.59,7.59,0,0,0,34,64a5.15,5.15,0,0,0-1.81,4.08,4.52,4.52,0,0,0,2,3.76,21.54,21.54,0,0,0,6.58,2.82,23.08,23.08,0,0,1,9.49,4.74,10,10,0,0,1,3.26,7.68,9.36,9.36,0,0,1-3.86,7.86q-3.86,2.92-10.14,2.93A17.67,17.67,0,0,1,29,94.65a10.18,10.18,0,0,1-4.35-9.06l0-.16H31a6.25,6.25,0,0,0,2.46,5.37,9.86,9.86,0,0,0,6,1.81,8.79,8.79,0,0,0,5.45-1.49A4.76,4.76,0,0,0,46.87,87.11Z"/><path class="cls-3" d="M77.29,97.28c-.24-.74-.43-1.47-.59-2.17A17.48,17.48,0,0,1,76.39,93a11.33,11.33,0,0,1-3.56,3.46,9.11,9.11,0,0,1-5,1.4c-3.06,0-5.41-.78-7-2.36A8.59,8.59,0,0,1,58.34,89a7.67,7.67,0,0,1,3.37-6.65C64,80.76,67.12,80,71.2,80h5.14V77.38A4.78,4.78,0,0,0,75,73.77a5.39,5.39,0,0,0-3.9-1.31,5.6,5.6,0,0,0-3.59,1.07,3.42,3.42,0,0,0-1.33,2.79l-6.36,0,0-.16q-.2-3.48,3.11-6.18a13.21,13.21,0,0,1,8.61-2.69,12.59,12.59,0,0,1,8.29,2.61q3.15,2.61,3.15,7.51V90.51a24.64,24.64,0,0,0,.25,3.5A17.71,17.71,0,0,0,84,97.28Zm-8.08-4.73a8.25,8.25,0,0,0,4.48-1.25,6.31,6.31,0,0,0,2.65-2.85V84.1H71.09a6.61,6.61,0,0,0-4.51,1.42A4.34,4.34,0,0,0,65,88.88a3.4,3.4,0,0,0,1.1,2.68A4.57,4.57,0,0,0,69.21,92.55Z"/><path class="cls-3" d="M96.89,97.28H90.28V54.87h6.61Z"/><path class="cls-3" d="M116.76,97.85q-6.44,0-10.07-4.06a15.22,15.22,0,0,1-3.63-10.54V82.17a15.72,15.72,0,0,1,3.63-10.67,11.73,11.73,0,0,1,9.37-4.18q5.93,0,9,3.66t3.05,9.77v3.56H109.89l-.06.14a9.59,9.59,0,0,0,1.91,5.87,6.46,6.46,0,0,0,5.41,2.26,15.06,15.06,0,0,0,4.66-.65,13.31,13.31,0,0,0,3.65-1.88l2.15,4.32a13.92,13.92,0,0,1-4.46,2.48A18.64,18.64,0,0,1,116.76,97.85Zm-.7-25.23a5.08,5.08,0,0,0-4.13,1.87A9.14,9.14,0,0,0,110,79.34l0,.13h11.5V79a7.41,7.41,0,0,0-1.32-4.58A4.88,4.88,0,0,0,116.06,72.62Z"/><path class="cls-3" d="M73.26,135.87a16.7,16.7,0,0,1-4.55,12,15.63,15.63,0,0,1-11.84,4.77,15.08,15.08,0,0,1-11.55-4.77,16.89,16.89,0,0,1-4.46-12v-7.13a17,17,0,0,1,4.44-12,15.08,15.08,0,0,1,11.57-4.79,15.63,15.63,0,0,1,11.83,4.79,16.71,16.71,0,0,1,4.56,12Zm-6.6-7.18A12.3,12.3,0,0,0,64,120.56a8.8,8.8,0,0,0-7.15-3.18A8.31,8.31,0,0,0,50,120.56a12.69,12.69,0,0,0-2.52,8.13v7.18A12.83,12.83,0,0,0,50,144.06a8.32,8.32,0,0,0,6.88,3.2A8.77,8.77,0,0,0,64,144.08a12.48,12.48,0,0,0,2.63-8.21Z"/><path class="cls-3" d="M81.75,152.1V127.58H77.26v-4.9h4.49v-3.42q0-4.87,2.65-7.51c1.77-1.76,4.24-2.63,7.43-2.63a12.62,12.62,0,0,1,1.93.14c.66.1,1.39.24,2.21.43l-.68,5.11c-.37-.08-.77-.14-1.21-.19a10.81,10.81,0,0,0-1.43-.08,4,4,0,0,0-3.22,1.22,5.12,5.12,0,0,0-1.08,3.51v3.42h5.47v4.9H88.35V152.1Z"/><path class="cls-3" d="M100.59,152.1V127.58H96.1v-4.9h4.49v-3.42q0-4.87,2.65-7.51c1.77-1.76,4.24-2.63,7.43-2.63a12.85,12.85,0,0,1,1.94.14c.65.1,1.38.24,2.2.43l-.68,5.11a11.88,11.88,0,0,0-1.21-.19,10.81,10.81,0,0,0-1.43-.08,4,4,0,0,0-3.22,1.22,5.12,5.12,0,0,0-1.08,3.51v3.42h5.47v4.9h-5.47V152.1Z"/></g></g></svg>