<svg xmlns="http://www.w3.org/2000/svg" xmlns:xlink="http://www.w3.org/1999/xlink" viewBox="0 0 158.32 190.59"><defs><style>.cls-1{fill:url(#linear-gradient);}.cls-2{fill:url(#linear-gradient-2);}.cls-3{fill:#fff;}</style><linearGradient id="linear-gradient" x1="79.16" y1="-1.17" x2="79.16" y2="191.35" gradientUnits="userSpaceOnUse"><stop offset="0" stop-color="#ee3724"/><stop offset="0.17" stop-color="#ef8d82"/><stop offset="0.41" stop-color="#ef4c32"/><stop offset="1" stop-color="#ee3724"/></linearGradient><linearGradient id="linear-gradient-2" x1="7.64" y1="177.32" x2="151.67" y2="-0.14" gradientUnits="userSpaceOnUse"><stop offset="0" stop-color="#fffac0"/><stop offset="0.51" stop-color="#ddca3b"/><stop offset="1" stop-color="#dbb227"/></linearGradient></defs><title>Asset 10</title><g id="Layer_2" data-name="Layer 2"><g id="Tag_new" data-name="Tag new"><polygon class="cls-1" points="151.16 0 158.32 0 158.32 190.59 78.15 139.39 0 190.59 0 0 7.16 0 151.16 0"/><polygon class="cls-2" points="6.41 178.42 6.41 0 7.91 0 7.91 175.62 78.23 128.56 150.41 175.63 150.41 0 151.91 0 151.91 178.41 78.25 130.36 6.41 178.42"/><path class="cls-3" d="M51.55,87.93h-7L25.77,57.47l-.17.06v30.4H18.54V45.66H25.6L44.32,76.11l.18-.06V45.66h7Z"/><path class="cls-3" d="M84,68.91H67.49V82.3H87v5.63H60.44V45.66H86.8v5.66H67.49V63.25H84Z"/><path class="cls-3" d="M126,76.14h.17l6.21-30.48h7.44L129.73,87.93h-6.41l-8.45-30.08h-.18l-8.47,30.08H99.77l-10-42.27h7.4l6.27,30.45h.17l8.05-30.45h6.21Z"/></g></g></svg>