<svg xmlns="http://www.w3.org/2000/svg" width="40.749" height="25.735" viewBox="0 0 40.749 25.735"><g transform="translate(-59.851 -1033.018)"><g transform="translate(60 1033.168)"><g transform="translate(0.002)"><path d="M34.8,52.765l-.189-.12-.642-.412-.086-.056-4.115-2.649-.146-.093-.472.855.144.093,3.714,2.388.2.132.629.405.1.065L40.1,57.34a.886.886,0,0,0,1.267-.345Zm-1.05.336a.158.158,0,0,1-.047-.032.161.161,0,0,1-.041-.037.3.3,0,0,1-.052-.076.194.194,0,0,1-.017-.037.221.221,0,0,1-.021-.069.376.376,0,0,1,.007-.195.344.344,0,0,1,.433-.243.331.331,0,0,1,.176.139.411.411,0,0,1,.03.053.186.186,0,0,1,.019.049.324.324,0,0,1,.021.12.362.362,0,0,1-.348.375A.3.3,0,0,1,33.75,53.1Z" transform="translate(-24.288 -45.657)" fill="#707070"/><path d="M9.313,31.064a2.856,2.856,0,1,0,.695,4.322,2.549,2.549,0,0,0,.294-.405,2.693,2.693,0,0,0,.218-.449A2.86,2.86,0,0,0,9.313,31.064ZM6.594,35.617a2.446,2.446,0,1,1,3.354-.848A2.442,2.442,0,0,1,6.594,35.617Z" transform="translate(-4.99 -30.66)" fill="#707070"/><path d="M7.85,30.51h0a3.007,3.007,0,0,1,2.81,4.075,2.828,2.828,0,0,1-.229.473,2.676,2.676,0,0,1-.311.428,3.007,3.007,0,0,1-4.854-3.509A3.023,3.023,0,0,1,7.85,30.51Zm0,5.715a2.693,2.693,0,0,0,2.047-.937,2.393,2.393,0,0,0,.279-.383,2.538,2.538,0,0,0,.207-.426,2.7,2.7,0,1,0-2.532,1.747Zm.005-5.3A2.6,2.6,0,1,1,5.62,32.189,2.588,2.588,0,0,1,7.852,30.921Zm-.008,4.892a2.31,2.31,0,0,0,1.974-1.121,2.294,2.294,0,0,0-1.966-3.471,2.307,2.307,0,0,0-1.975,1.121,2.294,2.294,0,0,0,1.967,3.471Z" transform="translate(-4.99 -30.66)" fill="#707070"/></g><g transform="translate(0 2.972)"><path d="M38.656,45.536,32.52,48.994l-.079.044-.763.428-.195.109-4.03,2.274-.156.088.535.7h0l4.411-2.485.071-.039.767-.435.188-.107,6.493-3.657A.788.788,0,0,0,38.656,45.536Zm-6.273,4.417a.3.3,0,0,1-.161-.046c-.015-.009-.032-.021-.047-.032a.318.318,0,0,1-.04-.037.294.294,0,0,1-.051-.076.1.1,0,0,1-.017-.037.222.222,0,0,1-.021-.069.377.377,0,0,1,.007-.195.342.342,0,0,1,.432-.243.33.33,0,0,1,.175.139.412.412,0,0,1,.03.053.227.227,0,0,1,.019.049.325.325,0,0,1,.021.12A.361.361,0,0,1,32.383,49.952Z" transform="translate(-22.806 -45.435)" fill="#707070"/><path d="M8.084,73.481a2.888,2.888,0,0,0-.174-.412,2.709,2.709,0,0,0-.236-.375,2.855,2.855,0,1,0,.41.788ZM6.5,76.559a2.446,2.446,0,1,1,1.04-3.3A2.447,2.447,0,0,1,6.5,76.559Z" transform="translate(-2.518 -66.278)" fill="#707070"/><path d="M5.371,71.38h0A3.02,3.02,0,0,1,7.795,72.6,2.851,2.851,0,0,1,8.043,73a3.042,3.042,0,0,1,.183.434A3.006,3.006,0,1,1,5.371,71.38Zm.007,5.714a2.682,2.682,0,0,0,1.247-.306,2.714,2.714,0,0,0,1.152-3.652,2.556,2.556,0,0,0-.222-.354,2.72,2.72,0,0,0-2.184-1.1h0a2.668,2.668,0,0,0-1.243.3,2.707,2.707,0,0,0,1.25,5.109Zm0-5.3a2.6,2.6,0,1,1-1.2.294A2.588,2.588,0,0,1,5.375,71.791Zm0,4.894a2.3,2.3,0,1,0-2.04-1.237A2.3,2.3,0,0,0,5.38,76.685Z" transform="translate(-2.518 -66.278)" fill="#707070"/></g></g><path d="M47.591,85.207h0l-3-.016a.6.6,0,1,1,.006-1.2l3,.016a.6.6,0,0,1,0,1.2Zm-6-.032h0l-3-.016a.6.6,0,1,1,.006-1.2l3,.016a.6.6,0,0,1,0,1.2Zm-6-.032h0l-3-.016a.6.6,0,0,1,.006-1.2l3,.016a.6.6,0,0,1,0,1.2Zm-6-.032h0l-3-.016a.6.6,0,0,1,.006-1.2l3,.016a.6.6,0,0,1,0,1.2Zm-6-.032h0l-3-.016a.6.6,0,1,1,.006-1.2l3,.016a.6.6,0,0,1,0,1.2Zm-6-.032h0l-3-.016a.6.6,0,0,1,.006-1.2l3,.016a.6.6,0,0,1,0,1.2ZM50.3,84.931a.6.6,0,0,1-.6-.6v-3a.6.6,0,0,1,1.2,0v3A.6.6,0,0,1,50.3,84.931ZM12,84.608a.6.6,0,0,1-.6-.6v-3a.6.6,0,0,1,1.2,0v3A.6.6,0,0,1,12,84.608Zm38.3-5.678a.6.6,0,0,1-.6-.6v-3a.6.6,0,0,1,1.2,0v3A.6.6,0,0,1,50.3,78.931ZM12,78.608a.6.6,0,0,1-.6-.6V76.274a.6.6,0,0,1,1.2,0v1.735A.6.6,0,0,1,12,78.608Zm38.3-5.678a.6.6,0,0,1-.6-.6v-3a.6.6,0,0,1,1.2,0v3A.6.6,0,0,1,50.3,72.931Zm0-6a.6.6,0,0,1-.53-.319h-2.15a.6.6,0,1,1,0-1.2H50.9v.919A.6.6,0,0,1,50.3,66.931Zm-5.681-.319h-3a.6.6,0,1,1,0-1.2h3a.6.6,0,0,1,0,1.2Zm-6,0h-3a.6.6,0,1,1,0-1.2h3a.6.6,0,0,1,0,1.2Zm-6,0h-3a.6.6,0,0,1,0-1.2h3a.6.6,0,0,1,0,1.2Z" transform="translate(49.7 973.546)" fill="#707070"/></g></svg>