<svg xmlns="http://www.w3.org/2000/svg" width="62.793" height="61.286" viewBox="0 0 62.793 61.286">
  <g id="chinhsachdoitra" transform="translate(0.5 0.5)">
    <path id="Path_4408" data-name="Path 4408" d="M40.913,61.524,58.181,73.732a.816.816,0,0,0,.474.151.825.825,0,0,0,.387-.1c.02-.011.047-.026,17.355-12.262a.859.859,0,0,0,.36-.7V41.7a.882.882,0,0,0-.336-.684l-.014-.012L59.129,28.791a.842.842,0,0,0-.948,0L40.913,41a.8.8,0,0,0-.36.7V60.822A.859.859,0,0,0,40.913,61.524ZM42.854,41.7l7.3-5.158L65.5,48.03l-6.849,4.842ZM59.489,71.4V54.357l15.6-11.029V60.375Zm7.664-24.54L51.8,35.376l6.856-4.847L74.457,41.7ZM42.221,60.375V43.327l15.6,11.029V71.4Z" transform="translate(-29.203 -21.121)"/>
    <path id="Path_4409" data-name="Path 4409" d="M63.294,39.137C61.327,53.827,49.015,65.144,34.121,65.144,17.855,65.144,4.667,51.649,4.667,35S17.855,4.858,34.121,4.858A29.577,29.577,0,0,1,62.537,27.066" transform="translate(-4.667 -4.858)" fill="none" stroke="#000" stroke-miterlimit="10" stroke-width="1"/>
    <path id="Path_4410" data-name="Path 4410" d="M167.1,118.211l6.864-8.184a.583.583,0,0,1,1.028.337l.938,10.743a.59.59,0,0,1-.763.625l-7.8-2.558A.605.605,0,0,1,167.1,118.211Z" transform="translate(-113.641 -80.48)"/>
  </g>
</svg>
