<svg xmlns="http://www.w3.org/2000/svg" width="53" height="35.256" viewBox="0 0 53 35.256">
  <g id="Group_8246" data-name="Group 8246" transform="translate(-3.897 -36.988)">
    <path id="Path_18077" data-name="Path 18077" d="M4.9,50.474V41.782a3.787,3.787,0,0,1,3.788-3.79H52.109a3.787,3.787,0,0,1,3.788,3.79v8.692" transform="translate(0 -0.003)" fill="none" stroke="#ffffff" stroke-linecap="round" stroke-linejoin="round" stroke-width="2"/>
    <path id="Path_18078" data-name="Path 18078" d="M55.9,115.48v8.692a3.787,3.787,0,0,1-3.788,3.79H8.685a3.787,3.787,0,0,1-3.788-3.79V115.48" transform="translate(0 -56.72)" fill="none" stroke="#ffffff" stroke-linecap="round" stroke-linejoin="round" stroke-width="2"/>
    <line id="Line_760" data-name="Line 760" y2="33.256" transform="translate(18.021 37.988)" fill="none" stroke="#ffffff" stroke-linecap="round" stroke-linejoin="round" stroke-width="2" stroke-dasharray="3 2"/>
    <path id="Path_18079" data-name="Path 18079" d="M4.9,92.822a4.154,4.154,0,0,0,0-8.308" transform="translate(0 -34.053)" fill="none" stroke="#ffffff" stroke-linecap="round" stroke-linejoin="round" stroke-width="2"/>
    <path id="Path_18080" data-name="Path 18080" d="M183.766,92.822a4.154,4.154,0,0,1,0-8.308" transform="translate(-127.869 -34.053)" fill="none" stroke="#ffffff" stroke-linecap="round" stroke-linejoin="round" stroke-width="2"/>
    <line id="Line_761" data-name="Line 761" x1="14.711" y2="14.586" transform="translate(28.69 47.395)" fill="none" stroke="#ffffff" stroke-linecap="round" stroke-linejoin="round" stroke-width="2"/>
    <circle id="Ellipse_1757" data-name="Ellipse 1757" cx="4.226" cy="4.226" r="4.226" transform="translate(26.576 45.174)" fill="none" stroke="#ffffff" stroke-linecap="round" stroke-linejoin="round" stroke-width="2"/>
    <circle id="Ellipse_1758" data-name="Ellipse 1758" cx="4.226" cy="4.226" r="4.226" transform="translate(36.79 55.387)" fill="none" stroke="#ffffff" stroke-linecap="round" stroke-linejoin="round" stroke-width="2"/>
  </g>
</svg>
