<svg xmlns="http://www.w3.org/2000/svg" width="21.5" height="21.499" viewBox="0 0 21.5 21.499">
  <g id="Setting" transform="translate(0.75 0.75)">
    <ellipse id="Ellipse_1748" data-name="Ellipse 1748" cx="3.964" cy="3.887" rx="3.964" ry="3.887" transform="translate(6.137 6.112)" fill="none" stroke="#707070" stroke-linecap="round" stroke-linejoin="round" stroke-width="1.5"/>
    <path id="Path_18036" data-name="Path 18036" d="M24.667,15.426V13.917a.7.7,0,0,0-.709-.7h-.671a.713.713,0,0,1-.69-.534,7.791,7.791,0,0,0-.825-1.981.687.687,0,0,1,.109-.844l.65-.637a.686.686,0,0,0,0-.984L21.22,6.957a.719.719,0,0,0-1,0l-.68.667a.723.723,0,0,1-.852.112A8.126,8.126,0,0,0,16.824,7a.7.7,0,0,1-.537-.674V5.368a.7.7,0,0,0-.71-.7H13.726a.7.7,0,0,0-.71.7V6.392a.7.7,0,0,1-.518.669,8.124,8.124,0,0,0-1.72.714.725.725,0,0,1-.86-.108l-.546-.536a.72.72,0,0,0-1,0L7.058,8.416a.686.686,0,0,0,0,.984l.553.542a.688.688,0,0,1,.112.838,7.787,7.787,0,0,0-.785,1.913.709.709,0,0,1-.687.529H5.376a.7.7,0,0,0-.709.7v1.509a.7.7,0,0,0,.709.7h.875a.709.709,0,0,1,.688.529A7.781,7.781,0,0,0,7.7,18.514a.688.688,0,0,1-.115.835l-.523.513a.686.686,0,0,0,0,.984l1.31,1.284a.719.719,0,0,0,1,0l.492-.483a.724.724,0,0,1,.864-.106,8.124,8.124,0,0,0,1.771.741.7.7,0,0,1,.518.669v1.024a.7.7,0,0,0,.71.7h1.852a.7.7,0,0,0,.71-.7v-.962a.7.7,0,0,1,.536-.673,8.127,8.127,0,0,0,1.912-.76.722.722,0,0,1,.855.11l.448.439a.719.719,0,0,0,1,0l1.31-1.284a.686.686,0,0,0,0-.984l-.442-.434a.687.687,0,0,1-.111-.84,7.793,7.793,0,0,0,.8-1.937.709.709,0,0,1,.687-.528h.673A.7.7,0,0,0,24.667,15.426Z" transform="translate(-4.667 -4.672)" fill="none" stroke="#707070" stroke-linecap="round" stroke-linejoin="round" stroke-width="1.5"/>
  </g>
</svg>
