<svg xmlns="http://www.w3.org/2000/svg" width="31.973" height="20.316" viewBox="0 0 31.973 20.316">
  <g id="Group_4350" data-name="Group 4350" transform="translate(-11.908 0.5)">
    <path id="Path_4230" data-name="Path 4230" d="M49.784,85.364h-2.76a1.026,1.026,0,0,1-1.014-1.038v-14.5a1.028,1.028,0,0,1,1.014-1.038H64.591a1.026,1.026,0,0,1,1.014,1.038V85.364H55.8" transform="translate(-33.602 -68.784)" fill="none" stroke="#707070" stroke-linecap="round" stroke-linejoin="round" stroke-width="1"/>
    <path id="Path_4231" data-name="Path 4231" d="M141.85,82.184h4.936a1.639,1.639,0,0,1,1.27.612l4.147,5.078a1.926,1.926,0,0,1,.465,1.26v5.848a1.024,1.024,0,0,1-1,1.043h-1.43" transform="translate(-109.289 -79.444)" fill="none" stroke="#707070" stroke-linecap="round" stroke-linejoin="round" stroke-width="1"/>
    <line id="Line_505" data-name="Line 505" x1="2.121" transform="translate(32.341 16.58)" fill="none" stroke="#707070" stroke-linecap="round" stroke-linejoin="round" stroke-width="1"/>
    <circle id="Ellipse_1447" data-name="Ellipse 1447" cx="3.006" cy="3.006" r="3.006" transform="translate(16.131 13.304)" fill="none" stroke="#707070" stroke-linecap="round" stroke-linejoin="round" stroke-width="1"/>
    <circle id="Ellipse_1448" data-name="Ellipse 1448" cx="3.006" cy="3.006" r="3.006" transform="translate(34.908 13.304)" fill="none" stroke="#707070" stroke-linecap="round" stroke-linejoin="round" stroke-width="1"/>
    <path id="Path_4232" data-name="Path 4232" d="M152.98,91.392h-2.788a.434.434,0,0,0-.434.434v3.2a.434.434,0,0,0,.434.434h5.483a.4.4,0,0,0,.31-.654l-2.669-3.257A.434.434,0,0,0,152.98,91.392Z" transform="translate(-115.695 -86.734)" fill="none" stroke="#707070" stroke-linecap="round" stroke-linejoin="round" stroke-width="1"/>
  </g>
</svg>
