<svg xmlns="http://www.w3.org/2000/svg" width="30.169" height="25.32" viewBox="0 0 30.169 25.32">
  <g id="Group_5028" data-name="Group 5028" transform="translate(-464.151 -5822.787)">
    <path id="Path_4439" data-name="Path 4439" d="M502.967,5905.359v9.595A2.064,2.064,0,0,1,500.89,5917H479.873a2.064,2.064,0,0,1-2.077-2.049v-9.595" transform="translate(-11.146 -69.396)" fill="none" stroke="#707070" stroke-linecap="round" stroke-linejoin="round" stroke-width="1"/>
    <path id="Path_4440" data-name="Path 4440" d="M491.731,5824.856a2.192,2.192,0,0,0-2.109-1.569H468.851a2.192,2.192,0,0,0-2.109,1.569l-1.931,6.614a3.564,3.564,0,0,0,3.234,4.563c.056,0,.112,0,.168,0a3.653,3.653,0,0,0,3.675-3.632,3.675,3.675,0,0,0,7.349,0,3.675,3.675,0,0,0,7.349,0,3.653,3.653,0,0,0,3.674,3.632c.056,0,.113,0,.168,0a3.564,3.564,0,0,0,3.234-4.562Z" transform="translate(0 0)" fill="none" stroke="#707070" stroke-linecap="round" stroke-linejoin="round" stroke-width="1"/>
  </g>
</svg>
