<svg xmlns="http://www.w3.org/2000/svg" width="71.839" height="112.937" viewBox="0 0 71.839 112.937">
  <g id="Group_5231" data-name="Group 5231" transform="translate(0.9 1.037)">
    <path id="Path_4474" data-name="Path 4474" d="M96.313,306.8H96.5c2.508,5.2,5.952,11.946,7.838,17.439,1.577,4.579,3.125,9.164,4.591,13.779,1.431,4.492,2.851,9.007,3.933,13.6-.017-.076-5.376.3-5.708.326-5.58.425-10.875,2.112-16.385,2.9-4.742.675-9.758,1.2-14.518.454a15.153,15.153,0,0,1-2.316-.529c-.273-.052,7.2-37.14,10.549-47.9" transform="translate(-52.95 -265.372)" fill="#e25f9b" stroke="#5d5d5d" stroke-linecap="round" stroke-linejoin="round" stroke-width="1.8"/>
    <path id="Path_4475" data-name="Path 4475" d="M77.382,306.566s-.395,10.906-18.414,16.3" transform="translate(-47.319 -265.491)" fill="none" stroke="#5d5d5d" stroke-linecap="round" stroke-linejoin="round" stroke-width="1.8"/>
    <path id="Path_4476" data-name="Path 4476" d="M112.72,306.8c.006.012.012.017.012.029a9.571,9.571,0,0,0,.786,1.641c1.751,2.956,6.837,8.8,19.661,8.676" transform="translate(-69.171 -265.614)" fill="none" stroke="#5d5d5d" stroke-linecap="round" stroke-linejoin="round" stroke-width="1.8"/>
    <circle id="Ellipse_1513" data-name="Ellipse 1513" cx="2.537" cy="2.537" r="2.537" transform="translate(64.009 48.802)" fill="none" stroke="#5d5d5d" stroke-linecap="round" stroke-linejoin="round" stroke-width="1.8"/>
    <circle id="Ellipse_1514" data-name="Ellipse 1514" cx="2.537" cy="2.537" r="2.537" transform="translate(7.051 56.634)" fill="none" stroke="#5d5d5d" stroke-linecap="round" stroke-linejoin="round" stroke-width="1.8"/>
    <path id="Path_4477" data-name="Path 4477" d="M120.458,386.575s-.223,12.666,1.669,21.008" transform="translate(-72.643 -298.415)" fill="none" stroke="#5d5d5d" stroke-linecap="round" stroke-linejoin="round" stroke-width="1.8"/>
    <ellipse id="Ellipse_1515" data-name="Ellipse 1515" cx="3.339" cy="2.236" rx="3.339" ry="2.236" transform="translate(49.501 106.528)" fill="none" stroke="#5d5d5d" stroke-linecap="round" stroke-linejoin="round" stroke-width="1.8"/>
    <ellipse id="Ellipse_1516" data-name="Ellipse 1516" cx="3.827" cy="2.236" rx="3.827" ry="2.236" transform="translate(22.912 106.527)" fill="none" stroke="#5d5d5d" stroke-linecap="round" stroke-linejoin="round" stroke-width="1.8"/>
    <path id="Path_4478" data-name="Path 4478" d="M93.921,390.248s-1.31,12.705-2.686,18.724" transform="translate(-60.626 -299.951)" fill="none" stroke="#5d5d5d" stroke-linecap="round" stroke-linejoin="round" stroke-width="1.8"/>
    <path id="Path_4479" data-name="Path 4479" d="M61.693,279.73l-.207.041a2.412,2.412,0,1,1-.8-4.658c.1-.013.186-.027.275-.034" transform="translate(-47.046 -252.533)" fill="none" stroke="#5d5d5d" stroke-linecap="round" stroke-linejoin="round" stroke-width="1.8"/>
    <path id="Path_4480" data-name="Path 4480" d="M136.3,271.1l.233-.041c1.782-.275,3.425.55,3.681,1.837s-.989,2.552-2.771,2.82c-.109.014-1.043.094-1.144.1" transform="translate(-79.03 -250.849)" fill="none" stroke="#5d5d5d" stroke-linecap="round" stroke-linejoin="round" stroke-width="1.8"/>
    <path id="Path_4481" data-name="Path 4481" d="M77.86,242.344s5.036,9.787-14.807,18.28" transform="translate(-49.001 -239.044)" fill="none" stroke="#5d5d5d" stroke-linecap="round" stroke-linejoin="round" stroke-width="1.8"/>
    <path id="Path_4482" data-name="Path 4482" d="M89.807,247.81s5.492,9.591,25.834,9.8" transform="translate(-59.849 -241.329)" fill="none" stroke="#5d5d5d" stroke-linecap="round" stroke-linejoin="round" stroke-width="1.8"/>
    <path id="Path_4483" data-name="Path 4483" d="M78.628,243.21a40.528,40.528,0,0,1,25.919,9.871c-22.041-5.358-25.642-9.1-25.642-9.1a44.157,44.157,0,0,1-15.347,14.284A37.726,37.726,0,0,1,78.628,243.21Z" transform="translate(-49.42 -239.404)" fill="none" stroke="#5d5d5d" stroke-linecap="round" stroke-linejoin="round" stroke-width="1.8"/>
    <path id="Path_4484" data-name="Path 4484" d="M88.177,293.371s9.717,7.223,18.23-2.408" transform="translate(-59.264 -259.092)" fill="none" stroke="#5d5d5d" stroke-linecap="round" stroke-linejoin="round" stroke-width="1.8"/>
    <path id="Path_4485" data-name="Path 4485" d="M85.725,277.856a3.99,3.99,0,0,0,0-.578,2.6,2.6,0,1,0-5.152.44,3.134,3.134,0,0,0,.069.447" transform="translate(-56.227 -252.329)" fill="none" stroke="#5d5d5d" stroke-linecap="round" stroke-linejoin="round" stroke-width="1.8"/>
    <path id="Path_4486" data-name="Path 4486" d="M117.633,275.806a3.483,3.483,0,0,0,0-.505,2.275,2.275,0,1,0-4.5.385,2.7,2.7,0,0,0,.06.391" transform="translate(-69.609 -251.654)" fill="none" stroke="#5d5d5d" stroke-linecap="round" stroke-linejoin="round" stroke-width="1.8"/>
    <path id="Path_4487" data-name="Path 4487" d="M67.8,250.138a4.167,4.167,0,0,0-2.105-.555,3.811,3.811,0,0,0-3.976,3.624,3.594,3.594,0,0,0,2.215,3.238" transform="translate(-48.486 -242.071)" fill="#e25f9b" stroke="#5d5d5d" stroke-linecap="round" stroke-linejoin="round" stroke-width="1.8"/>
    <path id="Path_4488" data-name="Path 4488" d="M128.918,252.811a3.359,3.359,0,0,0,2.031-3.027,2.844,2.844,0,0,0-.844-2.192,3.187,3.187,0,0,0-2.358-.683,5.9,5.9,0,0,0-2.375,1.19" transform="translate(-74.633 -240.947)" fill="#e25f9b" stroke="#5d5d5d" stroke-linecap="round" stroke-linejoin="round" stroke-width="1.8"/>
    <path id="Path_4489" data-name="Path 4489" d="M55.371,246.018c-.5-1.936-1.715-4.035-3.625-4.839a5.793,5.793,0,0,0-5.093.535,6.545,6.545,0,0,0-2.691,3.6c-.556,1.687-.143,3.323-.449,5.02a9.269,9.269,0,0,1-.608,1.988,6.208,6.208,0,0,1-3.645,3.567A11.258,11.258,0,0,0,53.4,251.995" transform="translate(-39.26 -238.402)" fill="none" stroke="#5d5d5d" stroke-linecap="round" stroke-linejoin="round" stroke-width="1.8"/>
    <path id="Path_4490" data-name="Path 4490" d="M46.791,251.19s4-8.234,10.13-1.9" transform="translate(-42.409 -240.947)" fill="none" stroke="#5d5d5d" stroke-linecap="round" stroke-linejoin="round" stroke-width="1.8"/>
    <path id="Path_4491" data-name="Path 4491" d="M52.753,252.832a4.529,4.529,0,0,0-4.022.623,11.378,11.378,0,0,0-2.592,2.373,23.333,23.333,0,0,1-2.242,2.219,13.322,13.322,0,0,1-4.638,2.762,1.116,1.116,0,0,1,.308.044,8.107,8.107,0,0,0,.882.045,11.129,11.129,0,0,0,3.068-.44,12.174,12.174,0,0,0,4.075-1.992c.947-.726,1.768-1.623,2.666-2.408a16.242,16.242,0,0,1,2.071-1.6" transform="translate(-39.26 -243.322)" fill="none" stroke="#5d5d5d" stroke-linecap="round" stroke-linejoin="round" stroke-width="1.8"/>
    <path id="Path_4492" data-name="Path 4492" d="M131.21,242.689a6.523,6.523,0,0,1,3.1-5.4,5.45,5.45,0,0,1,6.1.713c1.684,1.572,2.139,3.972,2.476,6.149.353,2.288,1.5,4.433,4.019,4.767.072.086-9.526,5.066-14.079-1.595" transform="translate(-76.902 -236.673)" fill="none" stroke="#5d5d5d" stroke-linecap="round" stroke-linejoin="round" stroke-width="1.8"/>
    <path id="Path_4493" data-name="Path 4493" d="M154.637,256.235" transform="translate(-86.698 -244.852)" fill="none" stroke="#5d5d5d" stroke-linecap="round" stroke-linejoin="round" stroke-width="1.8"/>
    <path id="Path_4494" data-name="Path 4494" d="M132.619,245.205a5.308,5.308,0,0,1,2.656-2.854c3.6-1.57,6.778,2.871,8.479,5.376l.06.088" transform="translate(-77.491 -238.91)" fill="none" stroke="#5d5d5d" stroke-linecap="round" stroke-linejoin="round" stroke-width="1.8"/>
    <path id="Path_4495" data-name="Path 4495" d="M134.354,248.216s2.884-3.337,6.84.49c-.043,0,3.1,3.176,5.159,3.759a16.019,16.019,0,0,1-11.691-3.287" transform="translate(-78.217 -240.936)" fill="none" stroke="#5d5d5d" stroke-linecap="round" stroke-linejoin="round" stroke-width="1.8"/>
    <path id="Path_4496" data-name="Path 4496" d="M106.137,259.489c.48,10.6-6.052,20.608-21.542,19.86-11.883-.574-21.542-8.891-21.542-19.86s9.645-19.86,21.542-19.86C98.527,239.629,105.641,248.531,106.137,259.489Z" transform="translate(-49.209 -237.909)" fill="none" stroke="#5d5d5d" stroke-linecap="round" stroke-linejoin="round" stroke-width="1.8"/>
  </g>
</svg>
