<svg xmlns="http://www.w3.org/2000/svg" width="61.567" height="112.806" viewBox="0 0 61.567 112.806">
  <g id="Group_5232" data-name="Group 5232" transform="translate(-14.565 -3.993)">
    <path id="Path_4497" data-name="Path 4497" d="M21.969,54.985A4.1,4.1,0,0,1,19.216,56a3.517,3.517,0,0,1-3.751-3.229,3.516,3.516,0,0,1,3.751-3.222,4.126,4.126,0,0,1,2.3.676" transform="translate(0 -18.652)" fill="none" stroke="#5d5d5d" stroke-linecap="round" stroke-linejoin="round" stroke-width="1.8"/>
    <path id="Path_4498" data-name="Path 4498" d="M104.836,49.562a3.359,3.359,0,0,1,2.417-1.019,3.226,3.226,0,1,1,0,6.451,3.314,3.314,0,0,1-2.021-.676" transform="translate(-37.409 -18.23)" fill="none" stroke="#5d5d5d" stroke-linecap="round" stroke-linejoin="round" stroke-width="1.8"/>
    <path id="Path_4499" data-name="Path 4499" d="M18.244,31.476s-.874-7.847,1.715-11.683c-.194.116-3.681,1.045-4.494,2.906.158-.232-.425-6.276,5.4-9.589,0,.232-1.2-3.894.983-6.16a16.956,16.956,0,0,0,3.546,4.01c-.194,0,9.9-7.323,23.878-5.87-.065.116-1.942,2.208-1.942,2.208s11.862-.93,20.135,8.659c.119.407-2.275-.349-2.275-.349s5.955,5.3,3.884,15.259" transform="translate(0 0)" fill="none" stroke="#5d5d5d" stroke-linecap="round" stroke-linejoin="round" stroke-width="1.8"/>
    <path id="Path_4500" data-name="Path 4500" d="M45.208,65.517s11.175,9.012,23.672-.407" transform="translate(-12.596 -25.138)" fill="none" stroke="#5d5d5d" stroke-linecap="round" stroke-linejoin="round" stroke-width="1.8"/>
    <path id="Path_4501" data-name="Path 4501" d="M50.03,53.42a2.261,2.261,0,0,1,4.518,0" transform="translate(-14.445 -19.346)" fill="none" stroke="#5d5d5d" stroke-linecap="round" stroke-linejoin="round" stroke-width="1.8"/>
    <path id="Path_4502" data-name="Path 4502" d="M73.087,53.42a2.628,2.628,0,0,1,5.172,0" transform="translate(-24.088 -19.346)" fill="none" stroke="#5d5d5d" stroke-linecap="round" stroke-linejoin="round" stroke-width="1.8"/>
    <path id="Path_4503" data-name="Path 4503" d="M47.793,79.452h-.008s-5.784,21.075-6.243,30.9c-.071.175,19.647,1.046,32.442.524-.269-.119-7.478-24.338-10.9-31.264" transform="translate(-11.175 -31.386)" fill="#3bb3ea" stroke="#5d5d5d" stroke-linecap="round" stroke-linejoin="round" stroke-width="1.8"/>
    <path id="Path_4504" data-name="Path 4504" d="M25.9,42.417S23.123,54.5,35.958,59.5c0,0,13.222,7.322,30.121-1.859.129.116,7.611-5.4,4.9-15.226-.064,0-4.128-3.835-4.128-3.835L66.659,42.3,61.177,36.78l-.064,4.475s-6.9-1.859-10.448-6.335c.064-.058,1.806,6.1,1.806,6.1s-7.547-2.092-10.256-5.114a30.031,30.031,0,0,1,1.613,3.777,13.469,13.469,0,0,1-9.61-3.254c.258.058.064,3.719.064,3.719L28.541,37.3l-.258,5.172Z" transform="translate(-4.144 -12.618)" fill="none" stroke="#5d5d5d" stroke-linecap="round" stroke-linejoin="round" stroke-width="1.8"/>
    <path id="Path_4505" data-name="Path 4505" d="M39.4,85.557s-11.357,5.2-16.1,19.782" transform="translate(-3.189 -33.814)" fill="none" stroke="#5d5d5d" stroke-linecap="round" stroke-linejoin="round" stroke-width="1.8"/>
    <ellipse id="Ellipse_1517" data-name="Ellipse 1517" cx="3.099" cy="2.731" rx="3.099" ry="2.731" transform="translate(15.692 71.305)" fill="none" stroke="#5d5d5d" stroke-linecap="round" stroke-linejoin="round" stroke-width="1.8"/>
    <ellipse id="Ellipse_1518" data-name="Ellipse 1518" cx="3.099" cy="2.731" rx="3.099" ry="2.731" transform="translate(69.034 67.497)" fill="none" stroke="#5d5d5d" stroke-linecap="round" stroke-linejoin="round" stroke-width="1.8"/>
    <path id="Path_4506" data-name="Path 4506" d="M80.685,86.25s10.946-1.925,18.133,15.626" transform="translate(-27.577 -34.037)" fill="none" stroke="#5d5d5d" stroke-linecap="round" stroke-linejoin="round" stroke-width="1.8"/>
    <path id="Path_4507" data-name="Path 4507" d="M44.011,131.846l-1.25,21.162,9.759.872-.461-11.017H63.993v10.552s6.27-.988,10.487-.349L72.3,132.28" transform="translate(-11.683 -53.585)" fill="none" stroke="#5d5d5d" stroke-linecap="round" stroke-linejoin="round" stroke-width="1.8"/>
    <path id="Path_4508" data-name="Path 4508" d="M49.959,168.227s-.336,8.009-.732,12.368" transform="translate(-14.086 -68.396)" fill="none" stroke="#5d5d5d" stroke-linecap="round" stroke-linejoin="round" stroke-width="1.8"/>
    <ellipse id="Ellipse_1519" data-name="Ellipse 1519" cx="5.193" cy="2.321" rx="5.193" ry="2.321" transform="translate(24.901 109.165)" fill="none" stroke="#5d5d5d" stroke-linecap="round" stroke-linejoin="round" stroke-width="1.8"/>
    <ellipse id="Ellipse_1520" data-name="Ellipse 1520" cx="3.892" cy="2.207" rx="3.892" ry="2.207" transform="translate(56.955 111.486)" fill="none" stroke="#5d5d5d" stroke-linecap="round" stroke-linejoin="round" stroke-width="1.8"/>
    <path id="Path_4509" data-name="Path 4509" d="M86.9,167.366s-1.028,9.6,0,13.7" transform="translate(-29.609 -68.045)" fill="none" stroke="#5d5d5d" stroke-linecap="round" stroke-linejoin="round" stroke-width="1.8"/>
  </g>
</svg>
