<svg xmlns="http://www.w3.org/2000/svg" width="442.329" height="499.818" viewBox="0 0 442.329 499.818">
  <g id="Component_329_5" data-name="Component 329 – 5" transform="translate(1.5 1.5)">
    <g id="Group_7938" data-name="Group 7938">
      <path id="Path_18005" data-name="Path 18005" d="M291.46,180.816a2.118,2.118,0,0,1,.3.067V168.347s-58.661-34.182-15.89-155.784L248.459,3.746S235.6,84.385,166.372,84.188c0,0-65.9,3.785-82.12-80.442L56.845,12.563s43.66,104.163-15.89,155.784v12.536c.1-.034.2-.034.3-.067,2.27-.527,17.076-3.717,41.85-6.513a4.368,4.368,0,0,1,.659-.067" transform="translate(53.172 -3.746)" fill="none" stroke="#000" stroke-linecap="round" stroke-linejoin="round" stroke-width="3"/>
      <path id="Path_18006" data-name="Path 18006" d="M99.09,79.342c-.1.034-.2.034-.3.067,0,0-86.5,87.02-94.127,274.16,0,0,191.58,102.386,439.055,0,2.3-4.179-13.95-173.353-94.127-274.16a2.118,2.118,0,0,0-.3-.067c-5.758-1.414-90.114-21.187-207.7-6.581a3.948,3.948,0,0,0-.659.067" transform="translate(-4.667 97.728)" fill="none" stroke="#000" stroke-linecap="round" stroke-linejoin="round" stroke-width="3"/>
      <path id="Path_18007" data-name="Path 18007" d="M72.322,396.711,116.361,68l44.229,328.017" transform="translate(103.168 98.669)" fill="none" stroke="#000" stroke-linecap="round" stroke-linejoin="round" stroke-width="3"/>
      <path id="Path_18008" data-name="Path 18008" d="M132.384,8.54s35.967-8.474,45.53,7.328a9.938,9.938,0,0,1,.446,9.47c-1.691,3.447-5.564,8.243-14.4,13.309a2.783,2.783,0,0,0-.475,4.526c4.532,3.891,12.65,11.452,11.779,19.76,0,.029.373,12.643-17.773,19.657a3.727,3.727,0,0,0-1.844,5.525c6.2,9.507,16.725,34.634-24.673,57.39" transform="translate(196.654 0.277)" fill="none" stroke="#000" stroke-linecap="round" stroke-linejoin="round" stroke-width="3"/>
      <path id="Path_18009" data-name="Path 18009" d="M75.983,8.54S40.016.065,30.453,15.867a9.931,9.931,0,0,0-.446,9.47c1.691,3.447,5.564,8.243,14.4,13.309a2.781,2.781,0,0,1,.472,4.526C40.348,47.064,32.229,54.625,33.1,62.934c0,.029-.371,12.643,17.776,19.657a3.729,3.729,0,0,1,1.844,5.525c-6.2,9.507-18.668,33.537,22.728,56.293" transform="translate(34.14 0.277)" fill="none" stroke="#000" stroke-linecap="round" stroke-linejoin="round" stroke-width="3"/>
    </g>
  </g>
</svg>
