<svg xmlns="http://www.w3.org/2000/svg" width="507.194" height="294.031" viewBox="0 0 507.194 294.031">
  <g id="Component_331_5" data-name="Component 331 – 5" transform="translate(1.659 1.586)">
    <g id="Group_7944" data-name="Group 7944">
      <path id="Path_18017" data-name="Path 18017" d="M-210.812-45.292c18.968,37,71.27,37.325,104.775,26.139A140.025,140.025,0,0,0-85.309-28,143.473,143.473,0,0,0-45.014-59.692c12.329-13.842,21.507-30.36,29.565-47.1,7.737-16.079,15.129-35.855,8.342-53.615-5.584-14.621-20.952-20.66-34.781-23.728-17.868-3.969-36.181-5.574-54.381-6.966-20.676-1.584-41.562-1.613-62.112,1.479-16.052,2.416-32.391,7.779-45.231,18.287-26.783,21.918-25.226,60.409-17.947,91.4C-218.961-68.884-216.277-55.956-210.812-45.292Z" transform="translate(226.143 303.522)" fill="none" stroke="#000" stroke-linecap="round" stroke-linejoin="round" stroke-width="3"/>
      <path id="Path_18018" data-name="Path 18018" d="M87.457-45.292C68.489-8.3,16.187-7.967-17.317-19.153A139.974,139.974,0,0,1-38.043-28,143.4,143.4,0,0,1-78.337-59.692c-12.331-13.842-21.51-30.36-29.565-47.1-7.737-16.079-15.131-35.855-8.344-53.615,5.587-14.621,20.952-20.66,34.783-23.728,17.865-3.969,36.181-5.574,54.381-6.966,20.676-1.584,41.562-1.613,62.112,1.479,16.052,2.416,32.389,7.779,45.231,18.287,26.781,21.918,25.223,60.409,17.944,91.4C95.61-68.884,92.926-55.956,87.457-45.292Z" transform="translate(401.087 303.522)" fill="none" stroke="#000" stroke-linecap="round" stroke-linejoin="round" stroke-width="3"/>
      <path id="Path_18019" data-name="Path 18019" d="M-141.922-169.76s35.126-20.218,60.612,0" transform="translate(363.552 325.407)" fill="none" stroke="#000" stroke-linecap="round" stroke-linejoin="round" stroke-width="3"/>
      <path id="Path_18020" data-name="Path 18020" d="M-215.17-106.9l111.3-112.383s28.368-34.2,59.5.013" transform="translate(244.046 234.478)" fill="none" stroke="#000" stroke-linecap="round" stroke-linejoin="round" stroke-width="3"/>
      <path id="Path_18021" data-name="Path 18021" d="M53.584-111.088-50.609-219.281s-28.37-34.2-59.5.013" transform="translate(415.449 234.478)" fill="none" stroke="#000" stroke-linecap="round" stroke-linejoin="round" stroke-width="3"/>
    </g>
  </g>
</svg>
