<svg xmlns="http://www.w3.org/2000/svg" width="506.061" height="498.873" viewBox="0 0 506.061 498.873">
  <g id="Component_326_5" data-name="Component 326 – 5" transform="translate(1.5 1.5)">
    <g id="Group_7930" data-name="Group 7930">
      <path id="Path_17997" data-name="Path 17997" d="M168.972,32.343l-68,17.852L4.667,216.883s20.75,44.427,92.428,56.226c.408-.172,23.385-34.755,23.385-34.755l-5.854,262.883H399.667L394.82,239.277l19.859,34.352s56.806-2.193,93.048-56.668c.058.4-99.8-168.727-99.8-168.727l-68.891-15.89L307.051,5.365H200.958Z" transform="translate(-4.667 -5.365)" fill="none" stroke="#000" stroke-linecap="round" stroke-linejoin="round" stroke-width="3"/>
      <path id="Path_17998" data-name="Path 17998" d="M65.583,32.328l57.942,70.182L153.6,81.474l31.877,21.036L238.819,32.4,206.762,5.365H195.521L153.6,59.212,109.681,5.365h-9.244Z" transform="translate(95.744 -5.365)" fill="none" stroke="#000" stroke-linecap="round" stroke-linejoin="round" stroke-width="3"/>
      <line id="Line_848" data-name="Line 848" y1="101.54" transform="translate(249.337 53.847)" fill="none" stroke="#000" stroke-linecap="round" stroke-linejoin="round" stroke-width="3"/>
    </g>
  </g>
</svg>
