<svg xmlns="http://www.w3.org/2000/svg" width="450.029" height="516.303" viewBox="0 0 450.029 516.303">
  <g id="Component_330_5" data-name="Component 330 – 5" transform="translate(1.5 1.5)">
    <g id="Group_7941" data-name="Group 7941">
      <path id="Path_18010" data-name="Path 18010" d="M72.805,11.229l11.124-5.14s19.7,30.98,75.026,31.053c0,0,48.957,2.94,75.027-31.053l10.828,5" transform="translate(64.558 -3.031)" fill="none" stroke="#000" stroke-linecap="round" stroke-linejoin="round" stroke-width="3"/>
      <path id="Path_18011" data-name="Path 18011" d="M149.691,13.954l102.665,47.46-40.77,86.364-25.191-13.7v65.733" transform="translate(194.673 10.28)" fill="none" stroke="#000" stroke-linecap="round" stroke-linejoin="round" stroke-width="3"/>
      <path id="Path_18012" data-name="Path 18012" d="M88.168,199.727v-58.3L62.555,147.69,21.785,61.326,124.168,14.007" transform="translate(-21.785 10.369)" fill="none" stroke="#000" stroke-linecap="round" stroke-linejoin="round" stroke-width="3"/>
      <path id="Path_18013" data-name="Path 18013" d="M58.36,20.081l41.849,99.134a24.043,24.043,0,0,0,8.381,10.562,18.839,18.839,0,0,0,18.386,1.844s11.031-3.058,10.987-19.14a19.686,19.686,0,0,0-1.6-7.678C129.041,87.666,93.74,4.953,93.74,4.953Z" transform="translate(40.112 -4.953)" fill="none" stroke="#000" stroke-linecap="round" stroke-linejoin="round" stroke-width="3"/>
      <path id="Path_18014" data-name="Path 18014" d="M201.157,20.081l-41.852,99.134a24.048,24.048,0,0,1-8.381,10.562,18.837,18.837,0,0,1-18.386,1.844s-11.031-3.058-10.987-19.14a19.74,19.74,0,0,1,1.607-7.678c7.318-17.137,42.616-99.85,42.616-99.85Z" transform="translate(147.051 -4.953)" fill="none" stroke="#000" stroke-linecap="round" stroke-linejoin="round" stroke-width="3"/>
      <path id="Path_18015" data-name="Path 18015" d="M87.562,42.639H180.07" transform="translate(89.531 58.824)" fill="none" stroke="#000" stroke-linecap="round" stroke-linejoin="round" stroke-width="3"/>
      <path id="Path_18016" data-name="Path 18016" d="M164.308,50.152v.016L99.789,163.994,82.7,157.974S34.832,254.073,23.3,396.858c0,0,31.476,34.47,140.231,44.908l39.082-87.28s35.242,13.327,79.463.28c.264,0,39.838,87,39.838,87s85.411-.652,140.248-44.908c0,0-4.03-112.383-59.4-238.884l-18.448,5.581L320.787,50.168" transform="translate(-19.218 71.538)" fill="none" stroke="#000" stroke-linecap="round" stroke-linejoin="round" stroke-width="3"/>
    </g>
  </g>
</svg>
