<svg xmlns="http://www.w3.org/2000/svg" width="318.794" height="499.811" viewBox="0 0 318.794 499.811">
  <path id="thoitrangnu" d="M343.23,134.114l26.3,59.811a26.038,26.038,0,0,1-3.123,23.9c-19.575,28.029-72.962,113.3-77.224,275.8a9.607,9.607,0,0,0,9.584,9.879H557.9a9.576,9.576,0,0,0,9.584-9.318c1.017-35.83-13.03-164.228-79.446-273.155a30.5,30.5,0,0,1-2.436-27.1L512.5,130.813l11.626,24.911a9.592,9.592,0,0,0,13.4,3.8l43.595-25.9a9.57,9.57,0,0,0,4.079-11.612c-9.057-23.9-40.286-97.24-88.335-114.679A9.565,9.565,0,0,0,485.6,10.983C475.9,25.54,449.358,63.372,436,82.362a9.579,9.579,0,0,1-15.716-.071L370.824,10.852a9.553,9.553,0,0,0-11.231-3.529c-17.267,6.571-61.48,30.792-89.024,112.118a9.558,9.558,0,0,0,4.274,11.373c10.786,6.179,31.88,18.21,43.253,24.695a9.572,9.572,0,0,0,12.681-2.966Z" transform="translate(-268.538 -5.189)" fill="none" stroke="#000" stroke-linecap="round" stroke-linejoin="round" stroke-width="3"/>
</svg>
