<svg xmlns="http://www.w3.org/2000/svg" width="68.494" height="59.289" viewBox="0 0 68.494 59.289">
  <g id="chothanhtoan" transform="translate(0.75 0.75)">
    <path id="Path_4951" data-name="Path 4951" d="M50.9,56.51H7.028a2.154,2.154,0,0,1-2.161-2.161V16.688a2.154,2.154,0,0,1,2.161-2.161H55.56a2.16,2.16,0,0,1,2.161,2.161V54.349a2.146,2.146,0,0,1-.878,1.739" transform="translate(-4.863 -14.527)" fill="none" stroke="#000" stroke-linecap="round" stroke-linejoin="round" stroke-width="1.5"/>
    <line id="Line_801" data-name="Line 801" x2="52.858" transform="translate(0 11.285)" fill="none" stroke="#000" stroke-linecap="round" stroke-linejoin="round" stroke-width="1.5"/>
    <path id="Rectangle_2546" data-name="Rectangle 2546" d="M0,0H9.759A5.645,5.645,0,0,1,15.4,5.645v0a5.645,5.645,0,0,1-5.645,5.645H0a0,0,0,0,1,0,0V0A0,0,0,0,1,0,0Z" transform="translate(0 21.774)" fill="none" stroke="#000" stroke-linecap="round" stroke-linejoin="round" stroke-width="1.5"/>
    <circle id="Ellipse_1615" data-name="Ellipse 1615" cx="0.897" cy="0.897" r="0.897" transform="translate(9.46 26.519)" fill="none" stroke="#000" stroke-linecap="round" stroke-linejoin="round" stroke-width="1.5"/>
    <path id="Path_4952" data-name="Path 4952" d="M131.44,126.21c-11.131-4.959-5.8-16.142-5.8-16.142s-6.026-9.611-6.067-9.7A2.471,2.471,0,0,1,122.228,97a4.46,4.46,0,0,1,2.592,2.308c3.258,5.072,6.321,10.269,9.573,15.347" transform="translate(-79.781 -68.661)" fill="none" stroke="#000" stroke-linecap="round" stroke-linejoin="round" stroke-width="1.5"/>
    <path id="Path_4953" data-name="Path 4953" d="M155.757,75.575a8.569,8.569,0,0,1,3.463-.414,3.651,3.651,0,0,1,2.329,1.011,12.551,12.551,0,0,1,1.887,3.519c1.147,2.529,2.443,4.994,3.7,7.467a30.939,30.939,0,0,1,1.933,4.133c.705,2.1.527,4.411.529,6.6q0,2.595,0,5.189-.006,4.368-.019,8.736c0,.142,0,.283,0,.424" transform="translate(-102.62 -54.479)" fill="none" stroke="#000" stroke-linecap="round" stroke-linejoin="round" stroke-width="1.5"/>
  </g>
</svg>
