<svg xmlns="http://www.w3.org/2000/svg" width="92.46" height="58.925" viewBox="0 0 92.46 58.925">
  <g id="Chuanbihang" transform="translate(0.5 0.5)">
    <g id="Group_4368" data-name="Group 4368">
      <path id="Path_4222" data-name="Path 4222" d="M-171.9,122.524h-9.058a3.109,3.109,0,0,1-3.029-3.185V74.852a3.109,3.109,0,0,1,3.029-3.185h52.47a3.11,3.11,0,0,1,3.029,3.185v47.672h-30.114" transform="translate(183.987 -71.667)" fill="none" stroke="#000" stroke-linecap="round" stroke-linejoin="round" stroke-width="1"/>
      <path id="Path_4223" data-name="Path 4223" d="M-78.995,127.765l-9.152-.025V85.067h15.1a5.011,5.011,0,0,1,3.888,1.883l12.688,15.658a5.962,5.962,0,0,1,1.426,3.886v18.029a3.149,3.149,0,0,1-3.07,3.217h-5.2" transform="translate(146.5 -76.884)" fill="none" stroke="#000" stroke-linecap="round" stroke-linejoin="round" stroke-width="1"/>
      <circle id="Ellipse_1454" data-name="Ellipse 1454" cx="7.068" cy="7.068" r="7.068" transform="translate(13.135 43.788)" fill="none" stroke="#000" stroke-linecap="round" stroke-linejoin="round" stroke-width="1"/>
      <circle id="Ellipse_1455" data-name="Ellipse 1455" cx="7.068" cy="7.068" r="7.068" transform="translate(68.062 43.788)" fill="none" stroke="#000" stroke-linecap="round" stroke-linejoin="round" stroke-width="1"/>
    </g>
    <path id="Icon_ionic-md-checkmark" data-name="Icon ionic-md-checkmark" d="M16.043,29.432,7.52,20.9,4.5,23.776,16.043,35.294l24.7-24.68-3.02-2.879Z" transform="translate(7.335 0.588)" stroke="#f2f2f2" stroke-width="2"/>
  </g>
</svg>
