<svg xmlns="http://www.w3.org/2000/svg" width="66.607" height="58.543" viewBox="0 0 66.607 58.543">
  <g id="danggiaohang" transform="translate(-671.5 -1720)">
    <path id="Path_4829" data-name="Path 4829" d="M679.7,1823.553h-6.575a1.123,1.123,0,0,1-1.123-1.123v-19.308a1.123,1.123,0,0,1,1.123-1.123H679.7Z" transform="translate(0 -50.862)" fill="none" stroke="#000" stroke-linejoin="round" stroke-miterlimit="10" stroke-width="1"/>
    <path id="Path_4830" data-name="Path 4830" d="M687.75,1817.347h10.1c5.882.426,12.175,6.594,19.821,5.2s15.78-5,16.358-6.35a2.546,2.546,0,0,0-1.539-3.464c-1.528-.531-13.663,4.426-15.4,4.234s-14.048-7.12-12.7-10.392c1.169-2.84,7.993,1.425,11.27,2.021a1.075,1.075,0,0,0,.661-.1c2.4-.3,3.271-4.041,2.694-4.618l-.019-.018-.087-.122c-3.216-4.565-16.186-12.788-21.7-11.256s-7.829,3.314-7.829,3.314" transform="translate(-9.688 -44.656)" fill="none" stroke="#000" stroke-linejoin="round" stroke-miterlimit="10" stroke-width="1"/>
    <path id="Path_4831" data-name="Path 4831" d="M744.23,1768.876l13.384-6.424-.385-29.636L731.057,1720.5,704.5,1732.432v16.2" transform="translate(-20.006 0)" fill="none" stroke="#000" stroke-linejoin="round" stroke-miterlimit="10" stroke-width="1"/>
    <path id="Path_4832" data-name="Path 4832" d="M704.673,1751.649l26.557,13.086,26.105-12.759" transform="translate(-20.113 -19.354)" fill="none" stroke="#000" stroke-linejoin="round" stroke-miterlimit="10" stroke-width="1"/>
    <path id="Path_4833" data-name="Path 4833" d="M773.5,1785.5" transform="translate(-62.443 -40.297)" fill="none" stroke="#000" stroke-miterlimit="10" stroke-width="1"/>
    <line id="Line_775" data-name="Line 775" y2="26.942" transform="translate(711.057 1744.595)" fill="none" stroke="#000" stroke-miterlimit="10" stroke-width="1"/>
    <path id="Path_4834" data-name="Path 4834" d="M799.5,1793.5" transform="translate(-78.439 -45.256)" fill="none" stroke="#000" stroke-miterlimit="10" stroke-width="1"/>
    <line id="Line_776" data-name="Line 776" y1="5.388" x2="10.777" transform="translate(721.25 1742.704)" fill="none" stroke="#000" stroke-linecap="round" stroke-miterlimit="10" stroke-width="1"/>
    <line id="Line_777" data-name="Line 777" y1="2.694" x2="6.158" transform="matrix(0.999, -0.035, 0.035, 0.999, 725.439, 1747.385)" fill="none" stroke="#000" stroke-linecap="round" stroke-miterlimit="10" stroke-width="1"/>
  </g>
</svg>
