<svg xmlns="http://www.w3.org/2000/svg" width="49.621" height="58.062" viewBox="0 0 49.621 58.062">
  <g id="Group_5928" data-name="Group 5928" transform="translate(0.5 0.5)">
    <g id="Group_5094" data-name="Group 5094">
      <path id="Path_4465" data-name="Path 4465" d="M-2309.13,2792.984h-41.8a3.316,3.316,0,0,1-3.41-3.207v-50.647a3.317,3.317,0,0,1,3.41-3.207h41.8a3.316,3.316,0,0,1,3.407,3.207v50.647A3.315,3.315,0,0,1-2309.13,2792.984Zm-41.8-56.925a3.175,3.175,0,0,0-3.263,3.071v50.647a3.175,3.175,0,0,0,3.263,3.07h41.8a3.175,3.175,0,0,0,3.263-3.07v-50.647a3.175,3.175,0,0,0-3.263-3.071Z" transform="translate(2354.344 -2735.922)" fill="none" stroke="#000" stroke-width="1"/>
    </g>
    <g id="Group_5095" data-name="Group 5095" transform="translate(9.672 14.892)">
      <rect id="Rectangle_1951" data-name="Rectangle 1951" width="29.855" height="0.157" transform="translate(0 0)" fill="none" stroke="#000" stroke-linejoin="round" stroke-width="1"/>
    </g>
    <g id="Group_5096" data-name="Group 5096" transform="translate(9.672 28.647)">
      <rect id="Rectangle_1952" data-name="Rectangle 1952" width="29.855" height="0.157" transform="translate(0 0)" fill="none" stroke="#000" stroke-linejoin="round" stroke-width="1"/>
    </g>
    <g id="Group_5097" data-name="Group 5097" transform="translate(9.672 42.403)">
      <rect id="Rectangle_1953" data-name="Rectangle 1953" width="29.855" height="0.157" transform="translate(0 0)" fill="none" stroke="#000" stroke-linejoin="round" stroke-width="1"/>
    </g>
  </g>
</svg>
