<svg xmlns="http://www.w3.org/2000/svg" xmlns:xlink="http://www.w3.org/1999/xlink" width="84" height="84" viewBox="0 0 84 84">
  <defs>
    <filter id="Path_20610" x="0" y="0" width="84" height="84" filterUnits="userSpaceOnUse">
      <feOffset dy="1" input="SourceAlpha"/>
      <feGaussianBlur stdDeviation="1.5" result="blur"/>
      <feFlood flood-opacity="0.161"/>
      <feComposite operator="in" in2="blur"/>
      <feComposite in="SourceGraphic"/>
    </filter>
  </defs>
  <g id="thoigianhuy" transform="translate(4.5 -1998.5)">
    <g transform="matrix(1, 0, 0, 1, -4.5, 1998.5)" filter="url(#Path_20610)">
      <g id="Path_20610-2" data-name="Path 20610" transform="translate(4.5 3.5)" fill="#fff">
        <path d="M 37.5 74.5 C 32.50481033325195 74.5 27.65930938720703 73.52179718017578 23.09807968139648 71.59255981445312 C 18.69220924377441 69.72902679443359 14.73523044586182 67.06112670898438 11.33705043792725 63.66294860839844 C 7.938869953155518 60.2647705078125 5.270969867706299 56.30778884887695 3.407439947128296 51.90192031860352 C 1.47819995880127 47.34069061279297 0.5 42.49518966674805 0.5 37.5 C 0.5 32.50481033325195 1.47819995880127 27.65930938720703 3.407439947128296 23.09807968139648 C 5.270969867706299 18.69220924377441 7.938869953155518 14.73523044586182 11.33705043792725 11.33705043792725 C 14.73523044586182 7.938869953155518 18.69220924377441 5.270969867706299 23.09807968139648 3.407439947128296 C 27.65930938720703 1.47819995880127 32.50481033325195 0.5 37.5 0.5 C 42.49518966674805 0.5 47.34069061279297 1.47819995880127 51.90192031860352 3.407439947128296 C 56.30778884887695 5.270969867706299 60.2647705078125 7.938869953155518 63.66294860839844 11.33705043792725 C 67.06112670898438 14.73523044586182 69.72902679443359 18.69220924377441 71.59255981445312 23.09807968139648 C 73.52179718017578 27.65930938720703 74.5 32.50481033325195 74.5 37.5 C 74.5 42.49518966674805 73.52179718017578 47.34069061279297 71.59255981445312 51.90192031860352 C 69.72902679443359 56.30778884887695 67.06112670898438 60.2647705078125 63.66294860839844 63.66294860839844 C 60.2647705078125 67.06112670898438 56.30778884887695 69.72902679443359 51.90192031860352 71.59255981445312 C 47.34069061279297 73.52179718017578 42.49518966674805 74.5 37.5 74.5 Z" stroke="none"/>
        <path d="M 37.5 1 C 32.57209014892578 1 27.79212188720703 1.964912414550781 23.2928581237793 3.867942810058594 C 18.94657897949219 5.706260681152344 15.04301834106445 8.338180541992188 11.69060134887695 11.69060134887695 C 8.338180541992188 15.04301834106445 5.706260681152344 18.94657897949219 3.867942810058594 23.2928581237793 C 1.964912414550781 27.79212188720703 1 32.57209014892578 1 37.5 C 1 42.42790985107422 1.964912414550781 47.20787811279297 3.867942810058594 51.70713806152344 C 5.706260681152344 56.05342102050781 8.338180541992188 59.95697784423828 11.69060134887695 63.30939865112305 C 15.04301834106445 66.66181945800781 18.94657897949219 69.29373931884766 23.2928581237793 71.13205718994141 C 27.79212188720703 73.03508758544922 32.57209014892578 74 37.5 74 C 42.42790985107422 74 47.20787811279297 73.03508758544922 51.70713806152344 71.13205718994141 C 56.05342102050781 69.29373931884766 59.95697784423828 66.66181945800781 63.30939865112305 63.30939865112305 C 66.66181945800781 59.95697784423828 69.29373931884766 56.05342102050781 71.13205718994141 51.70713806152344 C 73.03508758544922 47.20787811279297 74 42.42790985107422 74 37.5 C 74 32.57209014892578 73.03508758544922 27.79212188720703 71.13205718994141 23.2928581237793 C 69.29373931884766 18.94657897949219 66.66181945800781 15.04301834106445 63.30939865112305 11.69060134887695 C 59.95697784423828 8.338180541992188 56.05342102050781 5.706260681152344 51.70713806152344 3.867942810058594 C 47.20787811279297 1.964912414550781 42.42790985107422 1 37.5 1 M 37.5 0 C 58.21067810058594 0 75 16.78932189941406 75 37.5 C 75 58.21067810058594 58.21067810058594 75 37.5 75 C 16.78932189941406 75 0 58.21067810058594 0 37.5 C 0 16.78932189941406 16.78932189941406 0 37.5 0 Z" stroke="none" fill="#ff2c00"/>
      </g>
    </g>
    <g id="Group_10022" data-name="Group 10022" transform="translate(16.562 2018.49)">
      <g id="Path_20627" data-name="Path 20627" transform="translate(3579 -2547)" fill="none" stroke-miterlimit="10">
        <path d="M-3545.9,2571.47a8.772,8.772,0,0,1,1.753.176,18.017,18.017,0,0,0,1.243-6.6A18.049,18.049,0,0,0-3560.951,2547,18.049,18.049,0,0,0-3579,2565.049a18.05,18.05,0,0,0,18.049,18.049,17.973,17.973,0,0,0,6.438-1.183,8.708,8.708,0,0,1-.16-1.671A8.774,8.774,0,0,1-3545.9,2571.47Zm-13.626-7.206-8.846,7.42,8.846-7.42v0Z" stroke="none"/>
        <path d="M -3560.95068359375 2582.098388671875 C -3559.122314453125 2582.098388671875 -3557.333251953125 2581.812744140625 -3555.621826171875 2581.248779296875 C -3555.65576171875 2580.9169921875 -3555.6728515625 2580.581298828125 -3555.6728515625 2580.244384765625 C -3555.6728515625 2574.854736328125 -3551.287841796875 2570.4697265625 -3545.89794921875 2570.4697265625 C -3545.53076171875 2570.4697265625 -3545.164306640625 2570.490234375 -3544.80126953125 2570.53076171875 C -3544.2041015625 2568.77099609375 -3543.90185546875 2566.930908203125 -3543.90185546875 2565.049072265625 C -3543.90185546875 2560.495361328125 -3545.67529296875 2556.2138671875 -3548.8955078125 2552.99365234375 C -3552.11572265625 2549.7734375 -3556.39697265625 2548 -3560.95068359375 2548 C -3565.504638671875 2548 -3569.785888671875 2549.7734375 -3573.006103515625 2552.99365234375 C -3576.226318359375 2556.2138671875 -3577.999755859375 2560.495361328125 -3577.999755859375 2565.049072265625 C -3577.999755859375 2569.602783203125 -3576.226318359375 2573.884033203125 -3573.006103515625 2577.1044921875 C -3569.785888671875 2580.324951171875 -3565.50439453125 2582.098388671875 -3560.95068359375 2582.098388671875 M -3560.52392578125 2563.797607421875 L -3560.52392578125 2553.420654296875 L -3558.52392578125 2553.420654296875 L -3558.52392578125 2564.730712890625 L -3558.88134765625 2565.0302734375 L -3567.727783203125 2572.449951171875 L -3569.012939453125 2570.917724609375 L -3560.52392578125 2563.797607421875 M -3560.95068359375 2583.098388671875 C -3570.918701171875 2583.098388671875 -3578.999755859375 2575.0166015625 -3578.999755859375 2565.049072265625 C -3578.999755859375 2555.081298828125 -3570.918701171875 2547 -3560.95068359375 2547 C -3550.98291015625 2547 -3542.90185546875 2555.081298828125 -3542.90185546875 2565.049072265625 C -3542.90185546875 2567.376220703125 -3543.342529296875 2569.60205078125 -3544.14453125 2571.645263671875 C -3544.711181640625 2571.52978515625 -3545.29736328125 2571.4697265625 -3545.89794921875 2571.4697265625 C -3550.7451171875 2571.4697265625 -3554.6728515625 2575.397705078125 -3554.6728515625 2580.244384765625 C -3554.6728515625 2580.815185546875 -3554.618896484375 2581.37451171875 -3554.51318359375 2581.915283203125 C -3556.51171875 2582.68017578125 -3558.682373046875 2583.098388671875 -3560.95068359375 2583.098388671875 Z M -3559.52392578125 2553.420654296875 L -3559.52392578125 2564.26416015625 L -3568.370361328125 2571.683837890625 L -3559.52392578125 2564.26416015625 L -3559.52392578125 2553.420654296875 Z" stroke="none" fill="#ff2c00"/>
      </g>
      <path id="Path_20628" data-name="Path 20628" d="M-3397.971,2718.675a8.759,8.759,0,0,0-1.754-.175,8.774,8.774,0,0,0-8.775,8.775,8.7,8.7,0,0,0,.16,1.67,8.775,8.775,0,0,0,8.615,7.1,8.774,8.774,0,0,0,8.775-8.775A8.776,8.776,0,0,0-3397.971,2718.675Z" transform="translate(3432.827 -2694.03)" fill="none" stroke="#ff2c00" stroke-miterlimit="10" stroke-width="1"/>
      <g id="Group_10021" data-name="Group 10021" transform="translate(29.86 29.596)">
        <line id="Line_982" data-name="Line 982" x2="6.626" y2="7.064" transform="translate(0 0.045)" fill="none" stroke="#ff2c00" stroke-miterlimit="10" stroke-width="1"/>
        <line id="Line_983" data-name="Line 983" y1="7.155" x2="6.528" transform="translate(0.049 0)" fill="none" stroke="#ff2c00" stroke-miterlimit="10" stroke-width="1"/>
      </g>
    </g>
  </g>
</svg>
