<svg xmlns="http://www.w3.org/2000/svg" xmlns:xlink="http://www.w3.org/1999/xlink" width="84" height="84" viewBox="0 0 84 84">
  <defs>
    <filter id="Path_20610" x="0" y="0" width="84" height="84" filterUnits="userSpaceOnUse">
      <feOffset dy="1" input="SourceAlpha"/>
      <feGaussianBlur stdDeviation="1.5" result="blur"/>
      <feFlood flood-opacity="0.161"/>
      <feComposite operator="in" in2="blur"/>
      <feComposite in="SourceGraphic"/>
    </filter>
  </defs>
  <g id="thoigianyeucautrahang" transform="translate(4.5 -1998.5)">
    <g transform="matrix(1, 0, 0, 1, -4.5, 1998.5)" filter="url(#Path_20610)">
      <g id="Path_20610-2" data-name="Path 20610" transform="translate(4.5 3.5)" fill="#fff">
        <path d="M 37.5 74.5 C 32.50481033325195 74.5 27.65930938720703 73.52179718017578 23.09807968139648 71.59255981445312 C 18.69220924377441 69.72902679443359 14.73523044586182 67.06112670898438 11.33705043792725 63.66294860839844 C 7.938869953155518 60.2647705078125 5.270969867706299 56.30778884887695 3.407439947128296 51.90192031860352 C 1.47819995880127 47.34069061279297 0.5 42.49518966674805 0.5 37.5 C 0.5 32.50481033325195 1.47819995880127 27.65930938720703 3.407439947128296 23.09807968139648 C 5.270969867706299 18.69220924377441 7.938869953155518 14.73523044586182 11.33705043792725 11.33705043792725 C 14.73523044586182 7.938869953155518 18.69220924377441 5.270969867706299 23.09807968139648 3.407439947128296 C 27.65930938720703 1.47819995880127 32.50481033325195 0.5 37.5 0.5 C 42.49518966674805 0.5 47.34069061279297 1.47819995880127 51.90192031860352 3.407439947128296 C 56.30778884887695 5.270969867706299 60.2647705078125 7.938869953155518 63.66294860839844 11.33705043792725 C 67.06112670898438 14.73523044586182 69.72902679443359 18.69220924377441 71.59255981445312 23.09807968139648 C 73.52179718017578 27.65930938720703 74.5 32.50481033325195 74.5 37.5 C 74.5 42.49518966674805 73.52179718017578 47.34069061279297 71.59255981445312 51.90192031860352 C 69.72902679443359 56.30778884887695 67.06112670898438 60.2647705078125 63.66294860839844 63.66294860839844 C 60.2647705078125 67.06112670898438 56.30778884887695 69.72902679443359 51.90192031860352 71.59255981445312 C 47.34069061279297 73.52179718017578 42.49518966674805 74.5 37.5 74.5 Z" stroke="none"/>
        <path d="M 37.5 1 C 32.57209014892578 1 27.79212188720703 1.964912414550781 23.2928581237793 3.867942810058594 C 18.94657897949219 5.706260681152344 15.04301834106445 8.338180541992188 11.69060134887695 11.69060134887695 C 8.338180541992188 15.04301834106445 5.706260681152344 18.94657897949219 3.867942810058594 23.2928581237793 C 1.964912414550781 27.79212188720703 1 32.57209014892578 1 37.5 C 1 42.42790985107422 1.964912414550781 47.20787811279297 3.867942810058594 51.70713806152344 C 5.706260681152344 56.05342102050781 8.338180541992188 59.95697784423828 11.69060134887695 63.30939865112305 C 15.04301834106445 66.66181945800781 18.94657897949219 69.29373931884766 23.2928581237793 71.13205718994141 C 27.79212188720703 73.03508758544922 32.57209014892578 74 37.5 74 C 42.42790985107422 74 47.20787811279297 73.03508758544922 51.70713806152344 71.13205718994141 C 56.05342102050781 69.29373931884766 59.95697784423828 66.66181945800781 63.30939865112305 63.30939865112305 C 66.66181945800781 59.95697784423828 69.29373931884766 56.05342102050781 71.13205718994141 51.70713806152344 C 73.03508758544922 47.20787811279297 74 42.42790985107422 74 37.5 C 74 32.57209014892578 73.03508758544922 27.79212188720703 71.13205718994141 23.2928581237793 C 69.29373931884766 18.94657897949219 66.66181945800781 15.04301834106445 63.30939865112305 11.69060134887695 C 59.95697784423828 8.338180541992188 56.05342102050781 5.706260681152344 51.70713806152344 3.867942810058594 C 47.20787811279297 1.964912414550781 42.42790985107422 1 37.5 1 M 37.5 0 C 58.21067810058594 0 75 16.78932189941406 75 37.5 C 75 58.21067810058594 58.21067810058594 75 37.5 75 C 16.78932189941406 75 0 58.21067810058594 0 37.5 C 0 16.78932189941406 16.78932189941406 0 37.5 0 Z" stroke="none" fill="#ff2c00"/>
      </g>
    </g>
    <g id="Group_10159" data-name="Group 10159" transform="translate(17.47 2012.773)">
      <path id="Path_20633" data-name="Path 20633" d="M-4221.03,3116.58a19.659,19.659,0,0,1,8.936,16.487,19.628,19.628,0,0,1-7.079,15.114" transform="translate(4252.154 -3105.72)" fill="none" stroke="#ff2c00" stroke-linecap="round" stroke-linejoin="round" stroke-miterlimit="10" stroke-width="1"/>
      <path id="Path_20634" data-name="Path 20634" d="M-4491.781,3131.92a19.627,19.627,0,0,0-6.719,14.805,19.658,19.658,0,0,0,8.911,16.471" transform="translate(4499.212 -3119.379)" fill="none" stroke="#ff2c00" stroke-linecap="round" stroke-linejoin="round" stroke-miterlimit="10" stroke-width="1"/>
      <path id="Path_20635" data-name="Path 20635" d="M-4270.5,3150.5" transform="translate(4296.202 -3135.922)" fill="none" stroke="#ff2c00" stroke-linecap="round" stroke-miterlimit="10" stroke-width="1"/>
      <path id="Path_20636" data-name="Path 20636" d="M-4217.847,3123.984c-.219-.438-1.612-5.584-2.5-6.957l7.656,2.353" transform="translate(4251.551 -3106.118)" fill="none" stroke="#ff2c00" stroke-linecap="round" stroke-linejoin="round" stroke-miterlimit="10" stroke-width="1"/>
      <path id="Path_20637" data-name="Path 20637" d="M-4441,3334" transform="translate(4448.015 -3299.31)" fill="none" stroke="#ff2c00" stroke-linecap="round" stroke-miterlimit="10" stroke-width="1"/>
      <path id="Path_20638" data-name="Path 20638" d="M-4497.985,3332l2.524,9.292-9.539-2.825" transform="translate(4505 -3297.529)" fill="none" stroke="#ff2c00" stroke-linecap="round" stroke-linejoin="round" stroke-miterlimit="10" stroke-width="1"/>
      <g id="Rectangle_2776" data-name="Rectangle 2776" transform="translate(12.698 44.056) rotate(-12.678)" fill="none" stroke="#ff2c00" stroke-linecap="round" stroke-linejoin="round" stroke-miterlimit="10" stroke-width="1">
        <rect width="16.678" height="8.878" stroke="none"/>
        <rect x="0.5" y="0.5" width="15.678" height="7.878" fill="none"/>
      </g>
      <g id="Path_20639" data-name="Path 20639" transform="translate(4419.522 -3061.574)" fill="none" stroke-linecap="round" stroke-linejoin="round" stroke-miterlimit="10">
        <path d="M-4409,3067v9.426l8.878,5.48v-9.426Z" stroke="none"/>
        <path d="M -4408 3068.79248046875 L -4408 3075.867919921875 L -4401.1220703125 3080.11376953125 L -4401.1220703125 3073.0380859375 L -4408 3068.79248046875 M -4409 3067 L -4400.1220703125 3072.480224609375 L -4400.1220703125 3081.90625 L -4409 3076.42578125 L -4409 3067 Z" stroke="none" fill="#ff2c00"/>
      </g>
      <path id="Path_20640" data-name="Path 20640" d="M-4328.285,3072.875l9.656-5.875v9.448l-9.369,4.961" transform="translate(4347.4 -3061.629)" fill="none" stroke="#ff2c00" stroke-linecap="round" stroke-linejoin="round" stroke-miterlimit="10" stroke-width="1"/>
      <path id="Path_20641" data-name="Path 20641" d="M-4409.334,3023.095l9.287-5.595,8.485,5.469" transform="translate(4420.333 -3017.5)" fill="none" stroke="#ff2c00" stroke-linecap="round" stroke-linejoin="round" stroke-miterlimit="10" stroke-width="1"/>
      <text id="_" data-name="$" transform="translate(20.688 48.586) rotate(-14.913)" fill="#ff2c00" font-size="5" font-family="Roboto-Regular, Roboto"><tspan x="0" y="0">$</tspan></text>
    </g>
  </g>
</svg>
