<svg xmlns="http://www.w3.org/2000/svg" xmlns:xlink="http://www.w3.org/1999/xlink" width="84" height="84" viewBox="0 0 84 84">
  <defs>
    <filter id="Ellipse_1792" x="0" y="0" width="84" height="84" filterUnits="userSpaceOnUse">
      <feOffset dy="1" input="SourceAlpha"/>
      <feGaussianBlur stdDeviation="1.5" result="blur"/>
      <feFlood flood-opacity="0.161"/>
      <feComposite operator="in" in2="blur"/>
      <feComposite in="SourceGraphic"/>
    </filter>
  </defs>
  <g id="thoigiangiaohangchovanchuyen" transform="translate(4.5 -1998.5)">
    <g transform="matrix(1, 0, 0, 1, -4.5, 1998.5)" filter="url(#Ellipse_1792)">
      <g id="Ellipse_1792-2" data-name="Ellipse 1792" transform="translate(4.5 3.5)" fill="#fff" stroke="#707070" stroke-width="1">
        <circle cx="37.5" cy="37.5" r="37.5" stroke="none"/>
        <circle cx="37.5" cy="37.5" r="37" fill="none"/>
      </g>
    </g>
    <g id="Group_9913" data-name="Group 9913" transform="translate(14.892 2019.232)">
      <g id="Path_20611" data-name="Path 20611" transform="translate(2276.454 -2419)" fill="none" stroke-linecap="round" stroke-linejoin="round" stroke-miterlimit="10">
        <path d="M-2251.1,2428.952c0,.106,0,.213-.005.318a9.952,9.952,0,0,1-9.947,9.634,9.951,9.951,0,0,1-9.947-9.634c0-.105-.006-.212-.006-.318a9.952,9.952,0,0,1,9.952-9.952A9.952,9.952,0,0,1-2251.1,2428.952Z" stroke="none"/>
        <path d="M -2261.048095703125 2437.904541015625 C -2258.706298828125 2437.904541015625 -2256.491943359375 2437.006591796875 -2254.8125 2435.3759765625 C -2253.136474609375 2433.7490234375 -2252.17333984375 2431.5693359375 -2252.100341796875 2429.235595703125 C -2252.09716796875 2429.14794921875 -2252.095703125 2429.055419921875 -2252.095703125 2428.952392578125 C -2252.095703125 2424.01611328125 -2256.11181640625 2420 -2261.048095703125 2420 C -2265.984375 2420 -2270.000244140625 2424.01611328125 -2270.000244140625 2428.952392578125 C -2270.000244140625 2429.044677734375 -2269.99853515625 2429.139892578125 -2269.9951171875 2429.239013671875 C -2269.92236328125 2431.569580078125 -2268.95947265625 2433.7490234375 -2267.28369140625 2435.3759765625 C -2265.604248046875 2437.006591796875 -2263.389892578125 2437.904541015625 -2261.048095703125 2437.904541015625 M -2261.048095703125 2438.904541015625 C -2266.438720703125 2438.904541015625 -2270.82763671875 2434.619873046875 -2270.99462890625 2429.270263671875 C -2270.998291015625 2429.1650390625 -2271.000244140625 2429.05859375 -2271.000244140625 2428.952392578125 C -2271.000244140625 2423.45556640625 -2266.544677734375 2419 -2261.048095703125 2419 C -2255.55078125 2419 -2251.095703125 2423.45556640625 -2251.095703125 2428.952392578125 C -2251.095703125 2429.05859375 -2251.09716796875 2429.1650390625 -2251.100830078125 2429.270263671875 C -2251.2685546875 2434.619873046875 -2255.657470703125 2438.904541015625 -2261.048095703125 2438.904541015625 Z" stroke="none" fill="#707070"/>
      </g>
      <path id="Path_20612" data-name="Path 20612" d="M-2305.648,2531h3.637a1.912,1.912,0,0,1,1.912,1.912v22.442a1.912,1.912,0,0,1-1.912,1.912H-2319v-.045a4.135,4.135,0,0,0-4.135-4.135,4.135,4.135,0,0,0-4.135,4.135v.045h-1.814a1.912,1.912,0,0,1-1.912-1.912v-22.442a1.912,1.912,0,0,1,1.912-1.912h3.547" transform="translate(2331 -2520.821)" fill="none" stroke="#707070" stroke-linecap="round" stroke-linejoin="round" stroke-miterlimit="10" stroke-width="1"/>
      <g id="Path_20613" data-name="Path 20613" transform="translate(2293.726 -2741.735)" fill="none" stroke-linecap="round" stroke-linejoin="round" stroke-miterlimit="10">
        <path d="M-2281.729,2778.135v.045a4.135,4.135,0,0,1-4.135,4.09,4.135,4.135,0,0,1-4.135-4.09v-.045a4.135,4.135,0,0,1,4.135-4.135A4.135,4.135,0,0,1-2281.729,2778.135Z" stroke="none"/>
        <path d="M -2285.86474609375 2781.270751953125 C -2284.156005859375 2781.270751953125 -2282.750732421875 2779.882568359375 -2282.7294921875 2778.17529296875 L -2282.7294921875 2778.135498046875 C -2282.7294921875 2776.406494140625 -2284.135986328125 2775 -2285.86474609375 2775 C -2287.593505859375 2775 -2289 2776.406494140625 -2289 2778.135498046875 L -2289 2778.17529296875 C -2288.978759765625 2779.882568359375 -2287.573486328125 2781.270751953125 -2285.86474609375 2781.270751953125 M -2285.86474609375 2782.270751953125 C -2288.13330078125 2782.270751953125 -2289.9755859375 2780.444091796875 -2290 2778.180908203125 L -2290 2778.135498046875 C -2290 2775.8515625 -2288.1484375 2774 -2285.86474609375 2774 C -2283.58056640625 2774 -2281.7294921875 2775.8515625 -2281.7294921875 2778.135498046875 L -2281.7294921875 2778.180908203125 C -2281.75390625 2780.444091796875 -2283.59619140625 2782.270751953125 -2285.86474609375 2782.270751953125 Z" stroke="none" fill="#707070"/>
      </g>
      <path id="Path_20614" data-name="Path 20614" d="M-1955.729,2778.135a4.135,4.135,0,0,1-4.135,4.135,4.135,4.135,0,0,1-4.135-4.135c0-.061,0-.122,0-.182a4.135,4.135,0,0,1,4.131-3.954,4.135,4.135,0,0,1,4.131,3.954C-1955.73,2778.014-1955.729,2778.075-1955.729,2778.135Z" transform="translate(1997.356 -2741.735)" fill="none" stroke="#707070" stroke-linecap="round" stroke-linejoin="round" stroke-miterlimit="10" stroke-width="1"/>
      <line id="Line_968" data-name="Line 968" x1="3.557" transform="translate(29.803 36.219)" fill="none" stroke="#707070" stroke-linecap="round" stroke-miterlimit="10" stroke-width="1"/>
      <path id="Path_20615" data-name="Path 20615" d="M-1991,2615.38h10.77l3.545,8.1v10.27h-3.595" transform="translate(2021.902 -2597.531)" fill="none" stroke="#707070" stroke-linecap="round" stroke-linejoin="round" stroke-miterlimit="10" stroke-width="1"/>
      <path id="Path_20616" data-name="Path 20616" d="M-1960.5,2650.5v6.362h8.18l-2.727-6.362Z" transform="translate(1994.174 -2629.459)" fill="none" stroke="#707070" stroke-linecap="round" stroke-linejoin="round" stroke-miterlimit="10" stroke-width="1"/>
      <path id="Path_20617" data-name="Path 20617" d="M-2160.5,2468.5v5.908h6.271" transform="translate(2175.996 -2464.001)" fill="none" stroke="#707070" stroke-linecap="round" stroke-linejoin="round" stroke-miterlimit="10" stroke-width="1"/>
    </g>
  </g>
</svg>
