<svg xmlns="http://www.w3.org/2000/svg" xmlns:xlink="http://www.w3.org/1999/xlink" width="84" height="84" viewBox="0 0 84 84">
  <defs>
    <filter id="Path_20610" x="0" y="0" width="84" height="84" filterUnits="userSpaceOnUse">
      <feOffset dy="1" input="SourceAlpha"/>
      <feGaussianBlur stdDeviation="1.5" result="blur"/>
      <feFlood flood-opacity="0.161"/>
      <feComposite operator="in" in2="blur"/>
      <feComposite in="SourceGraphic"/>
    </filter>
  </defs>
  <g id="thoigiandathang" transform="translate(4.5 -1998.5)">
    <g transform="matrix(1, 0, 0, 1, -4.5, 1998.5)" filter="url(#Path_20610)">
      <g id="Path_20610-2" data-name="Path 20610" transform="translate(4.5 3.5)" fill="#fff">
        <path d="M 37.5 74.5 C 32.50481033325195 74.5 27.65930938720703 73.52179718017578 23.09807968139648 71.59255981445312 C 18.69220924377441 69.72902679443359 14.73523044586182 67.06112670898438 11.33705043792725 63.66294860839844 C 7.938869953155518 60.2647705078125 5.270969867706299 56.30778884887695 3.407439947128296 51.90192031860352 C 1.47819995880127 47.34069061279297 0.5 42.49518966674805 0.5 37.5 C 0.5 32.50481033325195 1.47819995880127 27.65930938720703 3.407439947128296 23.09807968139648 C 5.270969867706299 18.69220924377441 7.938869953155518 14.73523044586182 11.33705043792725 11.33705043792725 C 14.73523044586182 7.938869953155518 18.69220924377441 5.270969867706299 23.09807968139648 3.407439947128296 C 27.65930938720703 1.47819995880127 32.50481033325195 0.5 37.5 0.5 C 42.49518966674805 0.5 47.34069061279297 1.47819995880127 51.90192031860352 3.407439947128296 C 56.30778884887695 5.270969867706299 60.2647705078125 7.938869953155518 63.66294860839844 11.33705043792725 C 67.06112670898438 14.73523044586182 69.72902679443359 18.69220924377441 71.59255981445312 23.09807968139648 C 73.52179718017578 27.65930938720703 74.5 32.50481033325195 74.5 37.5 C 74.5 42.49518966674805 73.52179718017578 47.34069061279297 71.59255981445312 51.90192031860352 C 69.72902679443359 56.30778884887695 67.06112670898438 60.2647705078125 63.66294860839844 63.66294860839844 C 60.2647705078125 67.06112670898438 56.30778884887695 69.72902679443359 51.90192031860352 71.59255981445312 C 47.34069061279297 73.52179718017578 42.49518966674805 74.5 37.5 74.5 Z" stroke="none"/>
        <path d="M 37.5 1 C 32.57209014892578 1 27.79212188720703 1.964912414550781 23.2928581237793 3.867942810058594 C 18.94657897949219 5.706260681152344 15.04301834106445 8.338180541992188 11.69060134887695 11.69060134887695 C 8.338180541992188 15.04301834106445 5.706260681152344 18.94657897949219 3.867942810058594 23.2928581237793 C 1.964912414550781 27.79212188720703 1 32.57209014892578 1 37.5 C 1 42.42790985107422 1.964912414550781 47.20787811279297 3.867942810058594 51.70713806152344 C 5.706260681152344 56.05342102050781 8.338180541992188 59.95697784423828 11.69060134887695 63.30939865112305 C 15.04301834106445 66.66181945800781 18.94657897949219 69.29373931884766 23.2928581237793 71.13205718994141 C 27.79212188720703 73.03508758544922 32.57209014892578 74 37.5 74 C 42.42790985107422 74 47.20787811279297 73.03508758544922 51.70713806152344 71.13205718994141 C 56.05342102050781 69.29373931884766 59.95697784423828 66.66181945800781 63.30939865112305 63.30939865112305 C 66.66181945800781 59.95697784423828 69.29373931884766 56.05342102050781 71.13205718994141 51.70713806152344 C 73.03508758544922 47.20787811279297 74 42.42790985107422 74 37.5 C 74 32.57209014892578 73.03508758544922 27.79212188720703 71.13205718994141 23.2928581237793 C 69.29373931884766 18.94657897949219 66.66181945800781 15.04301834106445 63.30939865112305 11.69060134887695 C 59.95697784423828 8.338180541992188 56.05342102050781 5.706260681152344 51.70713806152344 3.867942810058594 C 47.20787811279297 1.964912414550781 42.42790985107422 1 37.5 1 M 37.5 0 C 58.21067810058594 0 75 16.78932189941406 75 37.5 C 75 58.21067810058594 58.21067810058594 75 37.5 75 C 16.78932189941406 75 0 58.21067810058594 0 37.5 C 0 16.78932189941406 16.78932189941406 0 37.5 0 Z" stroke="none" fill="#707070"/>
      </g>
    </g>
    <g id="Group_9912" data-name="Group 9912" transform="translate(14.074 2018.123)">
      <path id="Path_20606" data-name="Path 20606" d="M-1964,2609h9.506v30.64l28.433-.509" transform="translate(1964 -2604.926)" fill="none" stroke="#707070" stroke-linecap="round" stroke-linejoin="round" stroke-miterlimit="10" stroke-width="1"/>
      <path id="Path_20607" data-name="Path 20607" d="M-1908,2708.921h27.16l3.354-9.831" transform="translate(1917.506 -2679.723)" fill="none" stroke="#707070" stroke-linecap="round" stroke-linejoin="round" stroke-miterlimit="10" stroke-width="1"/>
      <line id="Line_964" data-name="Line 964" x1="17.617" transform="translate(9.506 8.308)" fill="none" stroke="#707070" stroke-linecap="round" stroke-miterlimit="10" stroke-width="1"/>
      <line id="Line_965" data-name="Line 965" x2="6.247" transform="translate(14.056 16.958)" fill="none" stroke="#707070" stroke-linecap="round" stroke-miterlimit="10" stroke-width="1"/>
      <line id="Line_966" data-name="Line 966" x2="15.108" transform="translate(14.089 22.492)" fill="none" stroke="#707070" stroke-linecap="round" stroke-miterlimit="10" stroke-width="1"/>
      <path id="Path_20608" data-name="Path 20608" d="M-1783,2623.319l3.9,3.9,7.724-7.723" transform="translate(1813.725 -2613.644)" fill="none" stroke="#707070" stroke-linecap="round" stroke-linejoin="round" stroke-miterlimit="10" stroke-width="1"/>
      <g id="Path_20609" data-name="Path 20609" transform="translate(1831.99 -2585)" fill="none" stroke-linecap="round" stroke-linejoin="round" stroke-miterlimit="10">
        <path d="M-1785.139,2594.93a9.932,9.932,0,0,1-6.831,9.437,9.9,9.9,0,0,1-3.1.494,9.93,9.93,0,0,1-9.931-9.93,10.032,10.032,0,0,1,.132-1.623,9.933,9.933,0,0,1,9.8-8.308A9.93,9.93,0,0,1-1785.139,2594.93Z" stroke="none"/>
        <path d="M -1795.069458007812 2586 C -1797.199462890625 2586 -1799.261840820312 2586.76220703125 -1800.876953125 2588.14599609375 C -1802.47509765625 2589.515380859375 -1803.5419921875 2591.40625 -1803.880859375 2593.46923828125 C -1803.9599609375 2593.9521484375 -1804 2594.44384765625 -1804 2594.930419921875 C -1804 2599.854736328125 -1799.993774414062 2603.86083984375 -1795.069458007812 2603.86083984375 C -1794.116088867188 2603.86083984375 -1793.178344726562 2603.71142578125 -1792.281494140625 2603.416748046875 C -1790.509155273438 2602.835693359375 -1788.984375 2601.72998046875 -1787.8720703125 2600.21875 C -1786.73828125 2598.678466796875 -1786.139038085938 2596.849853515625 -1786.139038085938 2594.930419921875 C -1786.139038085938 2590.006103515625 -1790.145263671875 2586 -1795.069458007812 2586 M -1795.069458007812 2585 C -1789.584716796875 2585 -1785.139038085938 2589.4453125 -1785.139038085938 2594.930419921875 C -1785.139038085938 2599.33203125 -1788.002685546875 2603.06640625 -1791.969970703125 2604.366943359375 C -1792.945922851562 2604.687744140625 -1793.986694335938 2604.86083984375 -1795.069458007812 2604.86083984375 C -1800.554077148438 2604.86083984375 -1805 2600.4150390625 -1805 2594.930419921875 C -1805 2594.376953125 -1804.9541015625 2593.83544921875 -1804.86767578125 2593.3076171875 C -1804.093627929688 2588.59521484375 -1800.000854492188 2585 -1795.069458007812 2585 Z" stroke="none" fill="#707070"/>
      </g>
      <circle id="Ellipse_1795" data-name="Ellipse 1795" cx="3.395" cy="3.395" r="3.395" transform="translate(12.477 35.229)" fill="none" stroke="#707070" stroke-linecap="round" stroke-linejoin="round" stroke-miterlimit="10" stroke-width="1"/>
      <circle id="Ellipse_1796" data-name="Ellipse 1796" cx="3.395" cy="3.395" r="3.395" transform="translate(26.831 34.714)" fill="none" stroke="#707070" stroke-linecap="round" stroke-linejoin="round" stroke-miterlimit="10" stroke-width="1"/>
    </g>
  </g>
</svg>
