<svg xmlns="http://www.w3.org/2000/svg" width="19.457" height="19.457" viewBox="0 0 19.457 19.457"><g transform="translate(0.75 0.75)"><path d="M13.646,22.625l-2.574-2.043a31.479,31.479,0,0,1-2.558-2.306c-1.791-1.81-3.847-4.331-3.847-7.786,0-3.216,2.123-5.822,4.742-5.822a4.75,4.75,0,0,1,4.237,3.206,4.75,4.75,0,0,1,4.237-3.206c2.619,0,4.742,2.607,4.742,5.822,0,3.455-2.056,5.976-3.847,7.786a31.477,31.477,0,0,1-2.558,2.306Z" transform="translate(-4.668 -4.668)" fill="none" stroke="#000" stroke-linejoin="round" stroke-width="1.5"/></g></svg>