<svg xmlns="http://www.w3.org/2000/svg" width="18.995" height="16.003" viewBox="0 0 18.995 16.003">
  <g id="Group_4307" data-name="Group 4307" transform="translate(-4.157 -20.762)">
    <path id="Path_4187" data-name="Path 4187" d="M33.3,103.337v5.986a1.279,1.279,0,0,1-1.279,1.279H19.075a1.279,1.279,0,0,1-1.279-1.279v-5.986" transform="translate(-11.891 -74.337)" fill="none" stroke="#707070" stroke-linecap="round" stroke-linejoin="round" stroke-width="1"/>
    <path id="Path_4188" data-name="Path 4188" d="M21.362,22.241a1.354,1.354,0,0,0-1.3-.979H7.248a1.354,1.354,0,0,0-1.3.979L4.756,26.368A2.22,2.22,0,0,0,6.75,29.215l.1,0A2.267,2.267,0,0,0,9.121,26.95a2.267,2.267,0,1,0,4.533,0,2.267,2.267,0,1,0,4.533,0,2.267,2.267,0,0,0,2.267,2.267l.1,0a2.22,2.22,0,0,0,1.995-2.847Z" transform="translate(0 0)" fill="none" stroke="#707070" stroke-linecap="round" stroke-linejoin="round" stroke-width="1"/>
  </g>
</svg>
