<svg xmlns="http://www.w3.org/2000/svg" width="18.016" height="18.016" viewBox="0 0 18.016 18.016">
  <g id="Group_4319" data-name="Group 4319" transform="translate(-4.265 -4.265)">
    <circle id="Ellipse_1442" data-name="Ellipse 1442" cx="8.508" cy="8.508" r="8.508" transform="translate(4.765 4.765)" fill="none" stroke="#707070" stroke-miterlimit="10" stroke-width="1"/>
    <g id="Group_4318" data-name="Group 4318" transform="translate(6.539 11.013)">
      <path id="Path_4189" data-name="Path 4189" d="M19.9,73.6v.374h.828v.556H19.9v.7h-.669V73.048h1.614V73.6Z" transform="translate(-19.234 -72.998)" fill="#707070"/>
      <path id="Path_4190" data-name="Path 4190" d="M41.4,74.587a1.046,1.046,0,0,1-.4-.407A1.268,1.268,0,0,1,41,73a1.046,1.046,0,0,1,.4-.407,1.2,1.2,0,0,1,1.152,0,1.046,1.046,0,0,1,.4.407,1.268,1.268,0,0,1,0,1.176,1.046,1.046,0,0,1-.4.407,1.2,1.2,0,0,1-1.152,0Zm.8-.516a.465.465,0,0,0,.16-.19.729.729,0,0,0,0-.577.466.466,0,0,0-.16-.19.413.413,0,0,0-.451,0,.466.466,0,0,0-.16.19.729.729,0,0,0,0,.577.465.465,0,0,0,.16.19.413.413,0,0,0,.451,0Z" transform="translate(-39.053 -72.449)" fill="#707070"/>
      <path id="Path_4191" data-name="Path 4191" d="M71.492,73.048h.669v1.613h.9v.571H71.492Z" transform="translate(-67.132 -72.998)" fill="#707070"/>
      <path id="Path_4192" data-name="Path 4192" d="M93.319,73.048h.669v1.613h.9v.571H93.319Z" transform="translate(-87.138 -72.998)" fill="#707070"/>
      <path id="Path_4193" data-name="Path 4193" d="M114.4,74.587a1.046,1.046,0,0,1-.4-.407A1.268,1.268,0,0,1,114,73a1.046,1.046,0,0,1,.4-.407,1.2,1.2,0,0,1,1.152,0,1.046,1.046,0,0,1,.4.407,1.268,1.268,0,0,1,0,1.176,1.046,1.046,0,0,1-.4.407,1.2,1.2,0,0,1-1.152,0Zm.8-.516a.466.466,0,0,0,.16-.19.729.729,0,0,0,0-.577.466.466,0,0,0-.16-.19.413.413,0,0,0-.451,0,.466.466,0,0,0-.16.19.729.729,0,0,0,0,.577.465.465,0,0,0,.16.19.413.413,0,0,0,.451,0Z" transform="translate(-105.96 -72.449)" fill="#707070"/>
      <path id="Path_4194" data-name="Path 4194" d="M145.405,73.048l-.635,2.184h-.718l-.321-1.167-.338,1.167h-.718l-.635-2.184h.689l.346,1.242.366-1.242h.616l.346,1.258.366-1.258Z" transform="translate(-131.795 -72.998)" fill="#707070"/>
      <path id="Path_4195" data-name="Path 4195" d="M77.067,115.811a1.068,1.068,0,0,1-.255-.761v-1.2h.669v1.179a.611.611,0,0,0,.078.35.288.288,0,0,0,.451,0,.612.612,0,0,0,.078-.35v-1.179h.658v1.2a1.068,1.068,0,0,1-.255.761,1.069,1.069,0,0,1-1.424,0Z" transform="translate(-72.008 -110.394)" fill="#707070"/>
      <path id="Path_4196" data-name="Path 4196" d="M103.41,115.472a1.223,1.223,0,0,1-.384-.164l.216-.537a1.3,1.3,0,0,0,.318.145,1.136,1.136,0,0,0,.338.055.48.48,0,0,0,.2-.03.1.1,0,0,0,.06-.089.111.111,0,0,0-.078-.1,1.564,1.564,0,0,0-.257-.075,2.709,2.709,0,0,1-.383-.114.655.655,0,0,1-.267-.2.577.577,0,0,1-.113-.376.694.694,0,0,1,.1-.374.708.708,0,0,1,.313-.265,1.2,1.2,0,0,1,.506-.1,1.676,1.676,0,0,1,.4.048,1.191,1.191,0,0,1,.348.142l-.2.534a1.146,1.146,0,0,0-.553-.162q-.258,0-.258.137a.106.106,0,0,0,.077.1,1.507,1.507,0,0,0,.252.07,2.413,2.413,0,0,1,.383.108.665.665,0,0,1,.271.2.565.565,0,0,1,.115.374.686.686,0,0,1-.1.373.72.72,0,0,1-.313.265,1.18,1.18,0,0,1-.506.1A1.9,1.9,0,0,1,103.41,115.472Z" transform="translate(-96.035 -109.845)" fill="#707070"/>
    </g>
  </g>
</svg>
