<svg xmlns="http://www.w3.org/2000/svg" width="18.016" height="18.016" viewBox="0 0 18.016 18.016">
  <g id="Group_3972" data-name="Group 3972" transform="translate(-4.167 -4.167)">
    <path id="Path_4039" data-name="Path 4039" d="M13.175,21.683l-2.439-1.936a29.827,29.827,0,0,1-2.424-2.185c-1.7-1.715-3.645-4.1-3.645-7.378,0-3.047,2.012-5.517,4.493-5.517A4.5,4.5,0,0,1,13.175,7.7,4.5,4.5,0,0,1,17.19,4.667c2.482,0,4.493,2.47,4.493,5.517,0,3.274-1.948,5.662-3.645,7.378a29.827,29.827,0,0,1-2.424,2.185Z" fill="none" stroke="#707070" stroke-linejoin="round" stroke-width="1"/>
  </g>
</svg>
