<svg xmlns="http://www.w3.org/2000/svg" width="18.016" height="17.921" viewBox="0 0 18.016 17.921">
  <g id="Group_3979" data-name="Group 3979" transform="translate(-3.74 -4.172)">
    <path id="Path_4043" data-name="Path 4043" d="M17.219,9.962V6.133a1.6,1.6,0,0,0-1.7-1.461H5.945A1.6,1.6,0,0,0,4.24,6.133V17.856A1.463,1.463,0,0,0,5.282,19.2H5.29" fill="none" stroke="#707070" stroke-linecap="round" stroke-linejoin="round" stroke-width="1" fill-rule="evenodd"/>
    <path id="Path_4044" data-name="Path 4044" d="M108,109.66V113.5a1.593,1.593,0,0,1-1.7,1.454H103.9" transform="translate(-90.782 -95.639)" fill="none" stroke="#707070" stroke-linecap="round" stroke-linejoin="round" stroke-width="1" fill-rule="evenodd"/>
    <path id="Path_4045" data-name="Path 4045" d="M13.938,23.47l-6.4-2.205a1.975,1.975,0,0,1-1.1-1.818V7.906A1.069,1.069,0,0,1,7.773,6.837l6.165,1.71a1.915,1.915,0,0,1,1.179,1.824V22.38C15.117,23.206,14.588,23.694,13.938,23.47Z" transform="translate(-2.006 -1.939)" fill="none" stroke="#707070" stroke-linecap="round" stroke-linejoin="round" stroke-width="1" fill-rule="evenodd"/>
    <line id="Line_440" data-name="Line 440" x2="6.041" transform="translate(15.215 11.772)" fill="none" stroke="#707070" stroke-linecap="round" stroke-linejoin="round" stroke-width="1"/>
    <path id="Path_4046" data-name="Path 4046" d="M174.616,59.544l1.845,2.222-1.845,2.317" transform="translate(-155.204 -49.986)" fill="none" stroke="#707070" stroke-linecap="round" stroke-linejoin="round" stroke-width="1"/>
    <line id="Line_441" data-name="Line 441" y2="2.607" transform="translate(11.342 11.92)" fill="none" stroke="#707070" stroke-linecap="round" stroke-linejoin="round" stroke-width="1"/>
  </g>
</svg>
