<svg xmlns="http://www.w3.org/2000/svg" width="18.016" height="18.015" viewBox="0 0 18.016 18.015">
  <g id="Group_3978" data-name="Group 3978" transform="translate(-4.167 -4.172)">
    <ellipse id="Ellipse_1402" data-name="Ellipse 1402" cx="3.373" cy="3.307" rx="3.373" ry="3.307" transform="translate(9.888 9.872)" fill="none" stroke="#707070" stroke-linecap="round" stroke-linejoin="round" stroke-width="1"/>
    <path id="Path_4042" data-name="Path 4042" d="M21.683,13.821V12.538a.6.6,0,0,0-.6-.592h-.571a.607.607,0,0,1-.587-.454,6.629,6.629,0,0,0-.7-1.685.585.585,0,0,1,.093-.718l.553-.542a.584.584,0,0,0,0-.837L18.75,6.616a.612.612,0,0,0-.854,0l-.578.567a.615.615,0,0,1-.724.1,6.914,6.914,0,0,0-1.584-.624.6.6,0,0,1-.456-.573V5.264a.6.6,0,0,0-.6-.592H12.374a.6.6,0,0,0-.6.592v.871a.6.6,0,0,1-.441.569,6.912,6.912,0,0,0-1.464.607.616.616,0,0,1-.732-.092L8.67,6.764a.612.612,0,0,0-.854,0L6.7,7.857a.584.584,0,0,0,0,.837l.47.461a.585.585,0,0,1,.1.713A6.625,6.625,0,0,0,6.6,11.5a.6.6,0,0,1-.585.45H5.271a.6.6,0,0,0-.6.592v1.284a.6.6,0,0,0,.6.592h.744a.6.6,0,0,1,.585.45,6.62,6.62,0,0,0,.644,1.585.585.585,0,0,1-.1.71l-.445.436a.584.584,0,0,0,0,.837l1.114,1.093a.612.612,0,0,0,.854,0l.419-.411a.616.616,0,0,1,.735-.09,6.912,6.912,0,0,0,1.507.631.6.6,0,0,1,.441.569V21.1a.6.6,0,0,0,.6.592H13.95a.6.6,0,0,0,.6-.592v-.818a.6.6,0,0,1,.456-.573,6.915,6.915,0,0,0,1.627-.647.615.615,0,0,1,.728.093l.381.374a.612.612,0,0,0,.854,0l1.114-1.093a.584.584,0,0,0,0-.837l-.376-.369a.585.585,0,0,1-.095-.715,6.63,6.63,0,0,0,.68-1.648.6.6,0,0,1,.585-.449h.573A.6.6,0,0,0,21.683,13.821Z" fill="none" stroke="#707070" stroke-linecap="round" stroke-linejoin="round" stroke-width="1"/>
  </g>
</svg>
