<svg xmlns="http://www.w3.org/2000/svg" width="18.032" height="18.028" viewBox="0 0 18.032 18.028">
  <path id="Path_4040" data-name="Path 4040" d="M473.642,1384.977l2.226,4.727a.523.523,0,0,0,.392.3l4.977.758a.553.553,0,0,1,.289.931l-3.6,3.679a.562.562,0,0,0-.15.483l.85,5.2a.526.526,0,0,1-.756.575l-4.451-2.453a.5.5,0,0,0-.485,0l-4.451,2.453a.526.526,0,0,1-.756-.575l.85-5.2a.562.562,0,0,0-.15-.483l-3.6-3.679a.553.553,0,0,1,.289-.931l4.977-.758a.523.523,0,0,0,.392-.3l2.226-4.727A.51.51,0,0,1,473.642,1384.977Z" transform="translate(-464.159 -1384.172)" fill="none" stroke="#707070" stroke-linecap="round" stroke-linejoin="round" stroke-width="1"/>
</svg>
